G04*
G04 #@! TF.GenerationSoftware,Altium Limited,Altium Designer,23.4.1 (23)*
G04*
G04 Layer_Color=8388736*
%FSLAX25Y25*%
%MOIN*%
G70*
G04*
G04 #@! TF.SameCoordinates,6A7C3DE4-8593-4091-87D5-6454EB1C75A9*
G04*
G04*
G04 #@! TF.FilePolarity,Negative*
G04*
G01*
G75*
%ADD95R,0.02933X0.02233*%
%ADD96R,0.03162X0.06902*%
%ADD97R,0.03800X0.04300*%
%ADD98R,0.01778X0.08274*%
%ADD99R,0.12211X0.20676*%
%ADD100R,0.01975X0.03156*%
%ADD101R,0.01581X0.02368*%
%ADD102R,0.02572X0.06706*%
%ADD103R,0.04028X0.04422*%
%ADD104R,0.01981X0.08280*%
%ADD105R,0.02233X0.02933*%
%ADD106R,0.02972X0.02272*%
%ADD107R,0.02272X0.02972*%
G04:AMPARAMS|DCode=108|XSize=47.37mil|YSize=47.37mil|CornerRadius=0mil|HoleSize=0mil|Usage=FLASHONLY|Rotation=0.000|XOffset=0mil|YOffset=0mil|HoleType=Round|Shape=Octagon|*
%AMOCTAGOND108*
4,1,8,0.02368,-0.01184,0.02368,0.01184,0.01184,0.02368,-0.01184,0.02368,-0.02368,0.01184,-0.02368,-0.01184,-0.01184,-0.02368,0.01184,-0.02368,0.02368,-0.01184,0.0*
%
%ADD108OCTAGOND108*%

%ADD109R,0.14580X0.07099*%
%ADD110R,0.05131X0.03162*%
%ADD111R,0.05013X0.04816*%
%ADD112R,0.09461X0.05013*%
%ADD113R,0.04343X0.03359*%
%ADD114R,0.04343X0.02887*%
%ADD115R,0.04540X0.04147*%
%ADD116R,0.03950X0.03162*%
%ADD117C,0.01981*%
%ADD118R,0.05229X0.02769*%
%ADD119R,0.02769X0.05229*%
%ADD120R,0.05131X0.15367*%
%ADD121R,0.03635X0.03241*%
%ADD122R,0.03398X0.02965*%
%ADD123R,0.04343X0.05131*%
%ADD124R,0.05131X0.04343*%
%ADD125R,0.03556X0.04343*%
%ADD126R,0.04343X0.03556*%
%ADD127R,0.11036X0.13005*%
%ADD128R,0.01981X0.04147*%
%ADD129R,0.04147X0.01981*%
%ADD130R,0.10839X0.10839*%
G04:AMPARAMS|DCode=131|XSize=47.37mil|YSize=47.37mil|CornerRadius=0mil|HoleSize=0mil|Usage=FLASHONLY|Rotation=90.000|XOffset=0mil|YOffset=0mil|HoleType=Round|Shape=Octagon|*
%AMOCTAGOND131*
4,1,8,0.01184,0.02368,-0.01184,0.02368,-0.02368,0.01184,-0.02368,-0.01184,-0.01184,-0.02368,0.01184,-0.02368,0.02368,-0.01184,0.02368,0.01184,0.01184,0.02368,0.0*
%
%ADD131OCTAGOND131*%

%ADD132R,0.02375X0.02808*%
%ADD133R,0.03972X0.03472*%
%ADD134R,0.06483X0.04325*%
%ADD135R,0.05118X0.01654*%
%ADD136R,0.06699X0.06306*%
%ADD137R,0.08274X0.06306*%
%ADD138R,0.03005X0.06194*%
%ADD139R,0.03162X0.01981*%
%ADD140R,0.13202X0.13202*%
%ADD141R,0.04186X0.01863*%
%ADD142R,0.01863X0.04186*%
%ADD143R,0.07487X0.10243*%
%ADD144R,0.03543X0.01575*%
%ADD145R,0.05721X0.04343*%
%ADD146R,0.07965X0.06312*%
%ADD147R,0.02769X0.02572*%
%ADD148R,0.14587X0.11087*%
%ADD149R,0.03156X0.01975*%
%ADD150R,0.02769X0.04737*%
%ADD151C,0.07099*%
%ADD152R,0.04422X0.04028*%
%ADD153R,0.04737X0.04737*%
%ADD154R,0.03950X0.07887*%
%ADD155R,0.05400X0.11424*%
%ADD156R,0.03162X0.05131*%
%ADD157R,0.02965X0.08477*%
%ADD158R,0.08280X0.08280*%
%ADD159R,0.08280X0.07887*%
%ADD160R,0.07099X0.09068*%
%ADD161R,0.06115X0.02375*%
%ADD162C,0.06400*%
%ADD163R,0.06400X0.06400*%
%ADD164C,0.20485*%
%ADD165C,0.00800*%
%ADD166C,0.11036*%
%ADD167C,0.10642*%
%ADD168C,0.07487*%
%ADD169R,0.08274X0.08274*%
%ADD170C,0.08274*%
%ADD171C,0.07487*%
%ADD172C,0.08274*%
%ADD173C,0.09849*%
%ADD174R,0.07487X0.07487*%
%ADD175O,0.04331X0.06299*%
%ADD176C,0.24422*%
%ADD177C,0.13386*%
%ADD178C,0.05906*%
%ADD179R,0.05906X0.05906*%
%ADD180C,0.12211*%
%ADD181C,0.05518*%
%ADD182C,0.09843*%
%ADD183C,0.00394*%
%ADD184O,0.06299X0.11811*%
%ADD185O,0.11811X0.06299*%
%ADD186C,0.06299*%
%ADD187R,0.06394X0.06299*%
%ADD188R,0.00800X0.00800*%
%ADD189C,0.07480*%
%ADD190R,0.07480X0.07480*%
%ADD191C,0.10243*%
G36*
X495839Y162167D02*
X484816D01*
Y170873D01*
X489101Y175159D01*
X495839D01*
Y162167D01*
D02*
G37*
D95*
X484929Y27963D02*
D03*
Y31663D02*
D03*
X495727Y334176D02*
D03*
Y337876D02*
D03*
X421450D02*
D03*
Y334176D02*
D03*
X484422Y201412D02*
D03*
Y197712D02*
D03*
X54906Y167028D02*
D03*
Y170728D02*
D03*
X72622Y167090D02*
D03*
Y170790D02*
D03*
X531823Y201412D02*
D03*
Y197712D02*
D03*
X505879Y201412D02*
D03*
Y197712D02*
D03*
X488753Y201413D02*
D03*
Y197713D02*
D03*
X497439Y109351D02*
D03*
Y113051D02*
D03*
X488753Y104050D02*
D03*
Y100350D02*
D03*
X488777Y109351D02*
D03*
Y113051D02*
D03*
X493108Y109351D02*
D03*
Y113051D02*
D03*
X501769Y109351D02*
D03*
Y113051D02*
D03*
X553120Y253541D02*
D03*
Y257241D02*
D03*
Y244892D02*
D03*
Y248592D02*
D03*
X475800Y272150D02*
D03*
Y268450D02*
D03*
Y276400D02*
D03*
Y280100D02*
D03*
X189202Y324712D02*
D03*
Y321012D02*
D03*
X489962Y28000D02*
D03*
Y31700D02*
D03*
X495339Y27963D02*
D03*
Y31663D02*
D03*
X479177Y27963D02*
D03*
Y31663D02*
D03*
X532050Y345541D02*
D03*
Y341841D02*
D03*
X408200Y61250D02*
D03*
Y64950D02*
D03*
X88481Y339775D02*
D03*
Y336075D02*
D03*
X95556Y348395D02*
D03*
Y344695D02*
D03*
X469917Y37598D02*
D03*
Y33898D02*
D03*
X464917Y37598D02*
D03*
Y33898D02*
D03*
Y75163D02*
D03*
Y71463D02*
D03*
X470103Y75163D02*
D03*
Y71463D02*
D03*
X47006Y229650D02*
D03*
Y233350D02*
D03*
D96*
X494929Y64934D02*
D03*
X489929D02*
D03*
X484929D02*
D03*
X479929D02*
D03*
Y43675D02*
D03*
X484929D02*
D03*
X489929D02*
D03*
X494929D02*
D03*
X100556Y355544D02*
D03*
X105556D02*
D03*
X110556D02*
D03*
X95556D02*
D03*
Y376804D02*
D03*
X100556D02*
D03*
X105556D02*
D03*
X110556D02*
D03*
D97*
X485014Y36061D02*
D03*
X479014D02*
D03*
X528942Y333795D02*
D03*
X522942D02*
D03*
X453740Y325936D02*
D03*
X447740D02*
D03*
X415350Y345289D02*
D03*
X421350D02*
D03*
X35000Y227444D02*
D03*
X29000D02*
D03*
Y232450D02*
D03*
X35000D02*
D03*
X495675Y36034D02*
D03*
X489675D02*
D03*
X489527Y345289D02*
D03*
X495527D02*
D03*
D98*
X257025Y312701D02*
D03*
X258010Y284157D02*
D03*
X258994Y312701D02*
D03*
X259978Y284157D02*
D03*
X260962Y312701D02*
D03*
X261947Y284157D02*
D03*
X262931Y312701D02*
D03*
X263915Y284157D02*
D03*
X265883D02*
D03*
X267852D02*
D03*
X269820D02*
D03*
X271789D02*
D03*
X273758D02*
D03*
X275726D02*
D03*
X277695D02*
D03*
X279663D02*
D03*
X281632D02*
D03*
X283600D02*
D03*
X285568D02*
D03*
X287537D02*
D03*
X289505D02*
D03*
X291474D02*
D03*
X293443D02*
D03*
X295411D02*
D03*
X417458D02*
D03*
X418443Y312701D02*
D03*
X419426Y284157D02*
D03*
X420412Y312701D02*
D03*
X421395Y284157D02*
D03*
X422380Y312701D02*
D03*
X423363Y284157D02*
D03*
X424349Y312701D02*
D03*
X425332Y284157D02*
D03*
X426317Y312701D02*
D03*
X427300Y284157D02*
D03*
X428286Y312701D02*
D03*
X429269Y284157D02*
D03*
X430254Y312701D02*
D03*
X431237Y284157D02*
D03*
X432223Y312701D02*
D03*
X433206Y284157D02*
D03*
X434191Y312701D02*
D03*
X435174Y284157D02*
D03*
X436159Y312701D02*
D03*
X437143Y284157D02*
D03*
X438128Y312701D02*
D03*
X439111Y284157D02*
D03*
X440096Y312701D02*
D03*
X441080Y284157D02*
D03*
X442065Y312701D02*
D03*
X443049Y284157D02*
D03*
X444033Y312701D02*
D03*
X445017Y284157D02*
D03*
X446002Y312701D02*
D03*
X446986Y284157D02*
D03*
X447970Y312701D02*
D03*
X448954Y284157D02*
D03*
X135962D02*
D03*
X137931D02*
D03*
X139900D02*
D03*
X141868D02*
D03*
X143837D02*
D03*
X145805D02*
D03*
X147773D02*
D03*
X149742D02*
D03*
X151710D02*
D03*
X153679D02*
D03*
X155647D02*
D03*
X157616D02*
D03*
X159585D02*
D03*
X161553D02*
D03*
X163522D02*
D03*
X165490D02*
D03*
X167459D02*
D03*
X169427D02*
D03*
X171395D02*
D03*
X173364D02*
D03*
X175332D02*
D03*
X177301D02*
D03*
X179270D02*
D03*
X181238D02*
D03*
X183207D02*
D03*
X185175D02*
D03*
X187143D02*
D03*
X189112D02*
D03*
X191080D02*
D03*
X193049D02*
D03*
X195017D02*
D03*
X196986D02*
D03*
X198955D02*
D03*
X200923D02*
D03*
X202892D02*
D03*
X204860D02*
D03*
X206828D02*
D03*
X208797D02*
D03*
X210765D02*
D03*
X212734D02*
D03*
X214703D02*
D03*
X216671D02*
D03*
X218640D02*
D03*
X220608D02*
D03*
X222577D02*
D03*
X224545D02*
D03*
X226513D02*
D03*
X228482D02*
D03*
X230450D02*
D03*
X232419D02*
D03*
X234388D02*
D03*
X236356D02*
D03*
X238325D02*
D03*
X240293D02*
D03*
X242262D02*
D03*
X244230D02*
D03*
X246198D02*
D03*
X248167D02*
D03*
X250135D02*
D03*
X252104D02*
D03*
X254073D02*
D03*
X256041D02*
D03*
X133994D02*
D03*
X303285D02*
D03*
X305254D02*
D03*
X307222D02*
D03*
X309191D02*
D03*
X311159D02*
D03*
X313128D02*
D03*
X315096D02*
D03*
X317065D02*
D03*
X319033D02*
D03*
X321002D02*
D03*
X322970D02*
D03*
X324939D02*
D03*
X326907D02*
D03*
X328876D02*
D03*
X330844D02*
D03*
X332813D02*
D03*
X334781D02*
D03*
X336750D02*
D03*
X338718D02*
D03*
X340687D02*
D03*
X342655D02*
D03*
X344624D02*
D03*
X346592D02*
D03*
X348561D02*
D03*
X350529D02*
D03*
X352498D02*
D03*
X354466D02*
D03*
X356435D02*
D03*
X358403D02*
D03*
X360372D02*
D03*
X362340D02*
D03*
X364309D02*
D03*
X366277D02*
D03*
X368246D02*
D03*
X370214D02*
D03*
X372183D02*
D03*
X374151D02*
D03*
X376120D02*
D03*
X378088D02*
D03*
X380057D02*
D03*
X382025D02*
D03*
X383994D02*
D03*
X385962D02*
D03*
X387931D02*
D03*
X389899D02*
D03*
X391868D02*
D03*
X393836D02*
D03*
X395805D02*
D03*
X397773D02*
D03*
X399742D02*
D03*
X401710D02*
D03*
X403679D02*
D03*
X405647D02*
D03*
X407616D02*
D03*
X409585D02*
D03*
X411553D02*
D03*
X413522D02*
D03*
X415490D02*
D03*
X136946Y312701D02*
D03*
X138914D02*
D03*
X140883D02*
D03*
X142851D02*
D03*
X144820D02*
D03*
X146788D02*
D03*
X148757D02*
D03*
X150725D02*
D03*
X152694D02*
D03*
X154662D02*
D03*
X156631D02*
D03*
X158599D02*
D03*
X160568D02*
D03*
X162536D02*
D03*
X164505D02*
D03*
X166473D02*
D03*
X168442D02*
D03*
X170410D02*
D03*
X172379D02*
D03*
X174347D02*
D03*
X176316D02*
D03*
X178284D02*
D03*
X180253D02*
D03*
X182221D02*
D03*
X184190D02*
D03*
X186158D02*
D03*
X188127D02*
D03*
X190095D02*
D03*
X192064D02*
D03*
X194032D02*
D03*
X196001D02*
D03*
X197969D02*
D03*
X199938D02*
D03*
X201906D02*
D03*
X203875D02*
D03*
X205843D02*
D03*
X207812D02*
D03*
X209780D02*
D03*
X211749D02*
D03*
X213717D02*
D03*
X215686D02*
D03*
X217654D02*
D03*
X219623D02*
D03*
X221591D02*
D03*
X223560D02*
D03*
X225528D02*
D03*
X227497D02*
D03*
X229465D02*
D03*
X231434D02*
D03*
X233402D02*
D03*
X235371D02*
D03*
X237339D02*
D03*
X239308D02*
D03*
X241276D02*
D03*
X243245D02*
D03*
X245213D02*
D03*
X247182D02*
D03*
X249150D02*
D03*
X251119D02*
D03*
X253087D02*
D03*
X255056D02*
D03*
X134978D02*
D03*
X264900D02*
D03*
X304270D02*
D03*
X306238D02*
D03*
X308207D02*
D03*
X310176D02*
D03*
X312144D02*
D03*
X314113D02*
D03*
X316081D02*
D03*
X318050D02*
D03*
X320018D02*
D03*
X321986D02*
D03*
X323955D02*
D03*
X325923D02*
D03*
X327892D02*
D03*
X329861D02*
D03*
X331829D02*
D03*
X333798D02*
D03*
X335766D02*
D03*
X337734D02*
D03*
X339703D02*
D03*
X341671D02*
D03*
X343640D02*
D03*
X345608D02*
D03*
X347577D02*
D03*
X349546D02*
D03*
X351514D02*
D03*
X353483D02*
D03*
X355451D02*
D03*
X357420D02*
D03*
X359388D02*
D03*
X361356D02*
D03*
X363325D02*
D03*
X365294D02*
D03*
X367262D02*
D03*
X369230D02*
D03*
X371199D02*
D03*
X373167D02*
D03*
X375136D02*
D03*
X377104D02*
D03*
X379073D02*
D03*
X381041D02*
D03*
X383010D02*
D03*
X384978D02*
D03*
X386947D02*
D03*
X388916D02*
D03*
X390884D02*
D03*
X392853D02*
D03*
X394821D02*
D03*
X396790D02*
D03*
X398758D02*
D03*
X400727D02*
D03*
X402695D02*
D03*
X404663D02*
D03*
X406632D02*
D03*
X408600D02*
D03*
X410569D02*
D03*
X412537D02*
D03*
X414506D02*
D03*
X416474D02*
D03*
X292459D02*
D03*
X280648D02*
D03*
X278679D02*
D03*
X276711D02*
D03*
X294427D02*
D03*
X290491D02*
D03*
X288522D02*
D03*
X286554D02*
D03*
X284585D02*
D03*
X282616D02*
D03*
X274742D02*
D03*
X272774D02*
D03*
X270806D02*
D03*
X268837D02*
D03*
X266869D02*
D03*
D99*
X118246Y301874D02*
D03*
X464702D02*
D03*
D100*
X370909Y364578D02*
D03*
X368350D02*
D03*
X363879Y364400D02*
D03*
X361320D02*
D03*
X303233Y363597D02*
D03*
X300674D02*
D03*
X296306D02*
D03*
X293747D02*
D03*
X31912Y287183D02*
D03*
X34471D02*
D03*
X31522Y355441D02*
D03*
X34081D02*
D03*
X34671Y302385D02*
D03*
X32112D02*
D03*
D101*
X367283Y359400D02*
D03*
Y354479D02*
D03*
X365117Y359400D02*
D03*
Y354479D02*
D03*
X297635Y354479D02*
D03*
Y359400D02*
D03*
X299800Y354479D02*
D03*
Y359400D02*
D03*
D102*
X213636Y358895D02*
D03*
X216195D02*
D03*
X218754D02*
D03*
X221313D02*
D03*
X223872D02*
D03*
X226432D02*
D03*
X228991D02*
D03*
X231550D02*
D03*
X234109D02*
D03*
X236668D02*
D03*
X239227D02*
D03*
X241786D02*
D03*
Y381730D02*
D03*
X239227D02*
D03*
X236668D02*
D03*
X234109D02*
D03*
X231550D02*
D03*
X228991D02*
D03*
X226432D02*
D03*
X223872D02*
D03*
X221313D02*
D03*
X218754D02*
D03*
X216195D02*
D03*
X213636D02*
D03*
D103*
X540876Y331764D02*
D03*
X533396D02*
D03*
X537136Y339638D02*
D03*
X412710Y332411D02*
D03*
X416450Y340285D02*
D03*
X408970D02*
D03*
X567620Y258091D02*
D03*
X560140D02*
D03*
X563880Y265965D02*
D03*
X489161Y273060D02*
D03*
X481680D02*
D03*
X485421Y280934D02*
D03*
X466883Y331764D02*
D03*
X459403D02*
D03*
X463143Y339638D02*
D03*
X486350Y332411D02*
D03*
X490090Y340285D02*
D03*
X482610D02*
D03*
D104*
X209883Y395486D02*
D03*
X245317D02*
D03*
X243348D02*
D03*
X241380D02*
D03*
X239411D02*
D03*
X237443D02*
D03*
X235474D02*
D03*
X233506D02*
D03*
X231537D02*
D03*
X229569D02*
D03*
X227600D02*
D03*
X225632D02*
D03*
X223663D02*
D03*
X221694D02*
D03*
X219726D02*
D03*
X217757D02*
D03*
X215789D02*
D03*
X213820D02*
D03*
X211852D02*
D03*
D105*
X447000Y338588D02*
D03*
X450700D02*
D03*
X526092Y338216D02*
D03*
X522392D02*
D03*
X526092Y329341D02*
D03*
X522392D02*
D03*
X526092Y325457D02*
D03*
X522392D02*
D03*
X428666Y331479D02*
D03*
X424966D02*
D03*
X411563Y345342D02*
D03*
X407863D02*
D03*
X30150Y189400D02*
D03*
X26450D02*
D03*
X79050Y111600D02*
D03*
X82750D02*
D03*
X87049Y127188D02*
D03*
X90749D02*
D03*
Y131125D02*
D03*
X87049D02*
D03*
Y135061D02*
D03*
X90749D02*
D03*
X87049Y138998D02*
D03*
X90749D02*
D03*
X87049Y142934D02*
D03*
X90749D02*
D03*
Y146871D02*
D03*
X87049D02*
D03*
X95348Y127188D02*
D03*
X99048D02*
D03*
X95348Y131125D02*
D03*
X99048D02*
D03*
X95348Y135061D02*
D03*
X99048D02*
D03*
X95348Y142934D02*
D03*
X99048D02*
D03*
X95348Y146871D02*
D03*
X99048D02*
D03*
X30952Y361285D02*
D03*
X34652D02*
D03*
X26450Y193400D02*
D03*
X30150D02*
D03*
Y197800D02*
D03*
X26450D02*
D03*
X30150Y202259D02*
D03*
X26450D02*
D03*
X465100Y326607D02*
D03*
X461400D02*
D03*
X461757Y345993D02*
D03*
X458057D02*
D03*
X485790Y345289D02*
D03*
X482090D02*
D03*
X535086Y326607D02*
D03*
X538786D02*
D03*
X502859Y331479D02*
D03*
X499159D02*
D03*
X383321Y357954D02*
D03*
X387021D02*
D03*
X354017D02*
D03*
X350317D02*
D03*
X308533Y357430D02*
D03*
X312233D02*
D03*
X341875Y357954D02*
D03*
X345575D02*
D03*
X320566Y357430D02*
D03*
X316866D02*
D03*
X287617Y357954D02*
D03*
X283917D02*
D03*
X275375D02*
D03*
X279075D02*
D03*
X378556D02*
D03*
X374856D02*
D03*
X34652Y346383D02*
D03*
X30952D02*
D03*
X34652Y331783D02*
D03*
X30952D02*
D03*
Y317083D02*
D03*
X34652D02*
D03*
X31721Y282849D02*
D03*
X35421D02*
D03*
X34652Y298002D02*
D03*
X30952D02*
D03*
X81371Y348521D02*
D03*
X85071D02*
D03*
X50915Y262600D02*
D03*
X47215D02*
D03*
X50915Y258580D02*
D03*
X47215D02*
D03*
X31600Y237800D02*
D03*
X27900D02*
D03*
D106*
X517776Y328786D02*
D03*
Y325086D02*
D03*
X513976Y328786D02*
D03*
Y325086D02*
D03*
X510193Y328786D02*
D03*
Y325086D02*
D03*
X435965Y328786D02*
D03*
Y325086D02*
D03*
X142315Y321012D02*
D03*
Y324712D02*
D03*
X150100Y321012D02*
D03*
Y324712D02*
D03*
X42901Y229601D02*
D03*
Y233301D02*
D03*
X510406Y113050D02*
D03*
Y109350D02*
D03*
X64875Y106229D02*
D03*
Y109929D02*
D03*
X69064Y106232D02*
D03*
Y109932D02*
D03*
X38949Y233301D02*
D03*
Y229601D02*
D03*
X527729Y201412D02*
D03*
Y197712D02*
D03*
X511219Y201413D02*
D03*
Y197713D02*
D03*
X515139Y201413D02*
D03*
Y197713D02*
D03*
X519067Y201413D02*
D03*
Y197713D02*
D03*
X493083Y201413D02*
D03*
Y197713D02*
D03*
X501942Y201412D02*
D03*
Y197712D02*
D03*
X506100Y109350D02*
D03*
Y113050D02*
D03*
X526700Y67650D02*
D03*
Y63950D02*
D03*
X553120Y262304D02*
D03*
Y266004D02*
D03*
X192986Y321012D02*
D03*
Y324712D02*
D03*
X155603D02*
D03*
Y321012D02*
D03*
X22972Y234176D02*
D03*
Y237876D02*
D03*
X494929Y75163D02*
D03*
Y71463D02*
D03*
X541690Y341841D02*
D03*
Y345541D02*
D03*
X513776Y345606D02*
D03*
Y341906D02*
D03*
X518976Y345606D02*
D03*
Y341906D02*
D03*
X524094Y345606D02*
D03*
Y341906D02*
D03*
X209200Y376927D02*
D03*
Y380627D02*
D03*
X325400Y340871D02*
D03*
Y344571D02*
D03*
X270864Y341071D02*
D03*
Y344771D02*
D03*
X292100Y340871D02*
D03*
Y344571D02*
D03*
X239200Y349580D02*
D03*
Y353280D02*
D03*
X337364Y340871D02*
D03*
Y344571D02*
D03*
X304000Y340871D02*
D03*
Y344571D02*
D03*
X358741Y340871D02*
D03*
Y344571D02*
D03*
X391800Y344671D02*
D03*
Y340971D02*
D03*
X370571Y344571D02*
D03*
Y340871D02*
D03*
X450350Y345841D02*
D03*
Y342141D02*
D03*
X439815Y325086D02*
D03*
Y328786D02*
D03*
X443665D02*
D03*
Y325086D02*
D03*
X467612Y342342D02*
D03*
Y346042D02*
D03*
X446300Y345947D02*
D03*
Y342247D02*
D03*
X440394Y345889D02*
D03*
Y342189D02*
D03*
X459917Y37598D02*
D03*
Y33898D02*
D03*
X444917Y33898D02*
D03*
Y37598D02*
D03*
X439917Y37598D02*
D03*
Y33898D02*
D03*
X434917Y71463D02*
D03*
Y75163D02*
D03*
D107*
X436131Y345334D02*
D03*
X432432D02*
D03*
Y341535D02*
D03*
X436131D02*
D03*
Y337566D02*
D03*
X432432D02*
D03*
X32977Y99293D02*
D03*
X36677D02*
D03*
X78999Y94216D02*
D03*
X82699D02*
D03*
X79050Y107500D02*
D03*
X82750D02*
D03*
X76368Y167440D02*
D03*
X80068D02*
D03*
X76368Y171778D02*
D03*
X80068D02*
D03*
X559444Y281697D02*
D03*
X555744D02*
D03*
X559444Y299151D02*
D03*
X555744D02*
D03*
X559444Y316589D02*
D03*
X555744D02*
D03*
X559444Y333938D02*
D03*
X555744D02*
D03*
X559444Y351254D02*
D03*
X555744D02*
D03*
X559444Y368800D02*
D03*
X555744D02*
D03*
X509980Y337566D02*
D03*
X506280D02*
D03*
X509980Y341535D02*
D03*
X506280D02*
D03*
X509976Y345334D02*
D03*
X506276D02*
D03*
X27900Y241938D02*
D03*
X31600D02*
D03*
X250781Y379431D02*
D03*
X247081D02*
D03*
X250781Y383383D02*
D03*
X247081D02*
D03*
X31720Y278649D02*
D03*
X35420D02*
D03*
X34652Y293708D02*
D03*
X30952D02*
D03*
X450667Y37113D02*
D03*
X454367D02*
D03*
D108*
X247681Y372900D02*
D03*
X486238Y235557D02*
D03*
Y227962D02*
D03*
Y212773D02*
D03*
Y220368D02*
D03*
X59507Y373618D02*
D03*
X59500Y364628D02*
D03*
X145680Y363785D02*
D03*
X145615Y342169D02*
D03*
Y335019D02*
D03*
X145680Y349320D02*
D03*
Y371085D02*
D03*
X145722Y378500D02*
D03*
X145680Y356501D02*
D03*
X124192Y377664D02*
D03*
Y370785D02*
D03*
D109*
X54957Y338925D02*
D03*
X77005D02*
D03*
D110*
X319666Y344514D02*
D03*
Y348254D02*
D03*
Y351994D02*
D03*
X309429D02*
D03*
Y344514D02*
D03*
X353083Y344514D02*
D03*
Y348254D02*
D03*
Y351994D02*
D03*
X342846D02*
D03*
Y344514D02*
D03*
X276346D02*
D03*
Y351994D02*
D03*
X286583D02*
D03*
Y348254D02*
D03*
Y344514D02*
D03*
X375853D02*
D03*
Y351994D02*
D03*
X386089D02*
D03*
Y348254D02*
D03*
Y344514D02*
D03*
D111*
X18171Y99193D02*
D03*
D112*
X10500Y93386D02*
D03*
Y105000D02*
D03*
D113*
X320969Y45693D02*
D03*
Y55457D02*
D03*
X314000D02*
D03*
Y45693D02*
D03*
X352369Y55457D02*
D03*
Y45693D02*
D03*
X345400D02*
D03*
Y55457D02*
D03*
D114*
X320969Y49000D02*
D03*
Y52150D02*
D03*
X314000D02*
D03*
Y49000D02*
D03*
X352369Y52150D02*
D03*
Y49000D02*
D03*
X345400D02*
D03*
Y52150D02*
D03*
D115*
X83695Y98617D02*
D03*
X77986D02*
D03*
Y103144D02*
D03*
X83695D02*
D03*
D116*
X60623Y109885D02*
D03*
Y104373D02*
D03*
D117*
X44276Y128188D02*
D03*
Y135275D02*
D03*
Y142361D02*
D03*
D118*
X80841Y156534D02*
D03*
Y152991D02*
D03*
Y149448D02*
D03*
Y145905D02*
D03*
Y142361D02*
D03*
Y138818D02*
D03*
Y135275D02*
D03*
Y131731D02*
D03*
Y128188D02*
D03*
Y124645D02*
D03*
Y121101D02*
D03*
X36057D02*
D03*
Y124645D02*
D03*
Y128188D02*
D03*
Y131731D02*
D03*
Y135275D02*
D03*
Y138818D02*
D03*
Y142361D02*
D03*
Y145905D02*
D03*
Y149448D02*
D03*
Y152991D02*
D03*
Y156534D02*
D03*
D119*
X40732Y161210D02*
D03*
X44276D02*
D03*
X47819D02*
D03*
X51362D02*
D03*
X54906D02*
D03*
X58449D02*
D03*
X61992D02*
D03*
X65535D02*
D03*
X69079D02*
D03*
X72622D02*
D03*
X76165D02*
D03*
Y116426D02*
D03*
X72622D02*
D03*
X69079D02*
D03*
X65535D02*
D03*
X61992D02*
D03*
X58449D02*
D03*
X54906D02*
D03*
X51362D02*
D03*
X47819D02*
D03*
X44276D02*
D03*
X40732D02*
D03*
D120*
X103487Y159318D02*
D03*
X91676D02*
D03*
D121*
X473290Y203292D02*
D03*
Y199552D02*
D03*
X479071Y203292D02*
D03*
Y199552D02*
D03*
X495795Y274426D02*
D03*
Y278166D02*
D03*
D122*
X497414Y201236D02*
D03*
Y197889D02*
D03*
X523398Y201235D02*
D03*
Y197889D02*
D03*
X560200Y127327D02*
D03*
Y130673D02*
D03*
D123*
X485209Y180080D02*
D03*
X490721D02*
D03*
X496233D02*
D03*
X501745D02*
D03*
X507257D02*
D03*
X512768D02*
D03*
X518280Y130474D02*
D03*
X512768D02*
D03*
X507257D02*
D03*
X501745D02*
D03*
X496233D02*
D03*
X490721D02*
D03*
X485209D02*
D03*
D124*
X522808Y158033D02*
D03*
Y152521D02*
D03*
Y147009D02*
D03*
Y141498D02*
D03*
Y135986D02*
D03*
X480682D02*
D03*
Y141498D02*
D03*
Y147009D02*
D03*
Y152521D02*
D03*
Y158033D02*
D03*
Y163545D02*
D03*
Y169057D02*
D03*
Y174569D02*
D03*
D125*
X475760Y189923D02*
D03*
X480091D02*
D03*
X484422D02*
D03*
X488753D02*
D03*
X493083D02*
D03*
X497414D02*
D03*
X501745D02*
D03*
X506075D02*
D03*
X510406D02*
D03*
X514737D02*
D03*
X519068D02*
D03*
X523398D02*
D03*
X527729D02*
D03*
Y120632D02*
D03*
X523398D02*
D03*
X519068D02*
D03*
X514737D02*
D03*
X510406D02*
D03*
X506075D02*
D03*
X501745D02*
D03*
X497414D02*
D03*
X493083D02*
D03*
X488753D02*
D03*
X484422D02*
D03*
X480091D02*
D03*
X475760D02*
D03*
D126*
X532650Y179096D02*
D03*
Y174765D02*
D03*
Y170435D02*
D03*
Y166104D02*
D03*
Y161773D02*
D03*
Y157443D02*
D03*
Y153112D02*
D03*
Y148781D02*
D03*
Y144450D02*
D03*
Y140120D02*
D03*
Y135789D02*
D03*
Y131458D02*
D03*
X470839D02*
D03*
Y135789D02*
D03*
Y140120D02*
D03*
Y144450D02*
D03*
Y148781D02*
D03*
Y153112D02*
D03*
Y157443D02*
D03*
Y161773D02*
D03*
Y166104D02*
D03*
Y170435D02*
D03*
Y174765D02*
D03*
Y179096D02*
D03*
D127*
X513162Y155277D02*
D03*
X501745D02*
D03*
X513162Y141891D02*
D03*
X501745D02*
D03*
X490327D02*
D03*
Y155277D02*
D03*
X513162Y168663D02*
D03*
X501745D02*
D03*
D128*
X39132Y254246D02*
D03*
X41101D02*
D03*
X43069D02*
D03*
X45038D02*
D03*
X47006D02*
D03*
X48975D02*
D03*
X39132Y238892D02*
D03*
X41101D02*
D03*
X43069D02*
D03*
X45038D02*
D03*
X47006D02*
D03*
X48975D02*
D03*
D129*
X51731Y251490D02*
D03*
Y249522D02*
D03*
Y247553D02*
D03*
Y245585D02*
D03*
Y243616D02*
D03*
Y241648D02*
D03*
X36376Y251490D02*
D03*
Y249522D02*
D03*
Y247553D02*
D03*
Y245585D02*
D03*
Y243616D02*
D03*
Y241648D02*
D03*
D130*
X44053Y246569D02*
D03*
D131*
X59500Y355653D02*
D03*
X247731Y350653D02*
D03*
Y343566D02*
D03*
X247681Y357740D02*
D03*
X247681Y364826D02*
D03*
X124192Y363915D02*
D03*
Y350164D02*
D03*
Y357043D02*
D03*
D132*
X560140Y253481D02*
D03*
X562108Y248402D02*
D03*
X558171D02*
D03*
D133*
X160500Y320862D02*
D03*
Y326862D02*
D03*
X296500Y338500D02*
D03*
Y344500D02*
D03*
X329900Y338500D02*
D03*
Y344500D02*
D03*
X363088Y338500D02*
D03*
Y344500D02*
D03*
X396200Y338500D02*
D03*
Y344500D02*
D03*
X100556Y349544D02*
D03*
Y343544D02*
D03*
X116000Y398630D02*
D03*
Y392630D02*
D03*
X90608Y398630D02*
D03*
Y392630D02*
D03*
D134*
X579511Y368660D02*
D03*
Y361652D02*
D03*
X566617D02*
D03*
Y368660D02*
D03*
Y351267D02*
D03*
Y344259D02*
D03*
X579511D02*
D03*
Y351267D02*
D03*
Y299090D02*
D03*
Y292082D02*
D03*
X566617D02*
D03*
Y299090D02*
D03*
Y281697D02*
D03*
Y274689D02*
D03*
X579511D02*
D03*
Y281697D02*
D03*
Y333875D02*
D03*
Y326867D02*
D03*
X566617D02*
D03*
Y333875D02*
D03*
Y316482D02*
D03*
Y309474D02*
D03*
X579511D02*
D03*
Y316482D02*
D03*
D135*
X16437Y188470D02*
D03*
Y192407D02*
D03*
Y196344D02*
D03*
Y200281D02*
D03*
Y204218D02*
D03*
Y208155D02*
D03*
Y212092D02*
D03*
X8563Y213352D02*
D03*
Y209415D02*
D03*
Y205478D02*
D03*
Y201541D02*
D03*
Y197604D02*
D03*
Y193667D02*
D03*
Y189730D02*
D03*
D136*
X186187Y387689D02*
D03*
X157841Y389658D02*
D03*
X186187Y396351D02*
D03*
X157841Y411311D02*
D03*
D137*
X185400Y424500D02*
D03*
X158628Y424894D02*
D03*
D138*
X486000Y297487D02*
D03*
D139*
X489613Y299456D02*
D03*
Y297487D02*
D03*
Y295519D02*
D03*
X482388D02*
D03*
Y297487D02*
D03*
Y299456D02*
D03*
D140*
X333099Y71401D02*
D03*
D141*
X342686Y78291D02*
D03*
Y76322D02*
D03*
Y74354D02*
D03*
Y72385D02*
D03*
Y70417D02*
D03*
Y68448D02*
D03*
Y66480D02*
D03*
Y64511D02*
D03*
X323513D02*
D03*
Y66480D02*
D03*
Y68448D02*
D03*
Y70417D02*
D03*
Y72385D02*
D03*
Y74354D02*
D03*
Y76322D02*
D03*
Y78291D02*
D03*
D142*
X326209Y80987D02*
D03*
X328178D02*
D03*
X330146D02*
D03*
X332115D02*
D03*
X334083D02*
D03*
X336052D02*
D03*
X338020D02*
D03*
X339989D02*
D03*
Y61814D02*
D03*
X338020D02*
D03*
X336052D02*
D03*
X334083D02*
D03*
X332115D02*
D03*
X330146D02*
D03*
X328178D02*
D03*
X326209D02*
D03*
D143*
X503717Y33709D02*
D03*
X513717D02*
D03*
Y72291D02*
D03*
X503717D02*
D03*
D144*
X425402Y61047D02*
D03*
Y63016D02*
D03*
Y64984D02*
D03*
Y66953D02*
D03*
X413198D02*
D03*
Y64984D02*
D03*
Y63016D02*
D03*
Y61047D02*
D03*
D145*
X10421Y361285D02*
D03*
X25579D02*
D03*
Y355379D02*
D03*
X10421D02*
D03*
Y340477D02*
D03*
X25579D02*
D03*
Y346383D02*
D03*
X10421D02*
D03*
Y325877D02*
D03*
X25579D02*
D03*
Y331783D02*
D03*
X10421D02*
D03*
Y311177D02*
D03*
X25579D02*
D03*
Y317083D02*
D03*
X10421D02*
D03*
X10421Y281277D02*
D03*
X25579D02*
D03*
Y287183D02*
D03*
X10421D02*
D03*
X10421Y296480D02*
D03*
X25579D02*
D03*
Y302385D02*
D03*
X10421D02*
D03*
D146*
X98074Y397624D02*
D03*
Y386915D02*
D03*
X108200Y397624D02*
D03*
Y386915D02*
D03*
D147*
X89981Y348321D02*
D03*
X91556Y343794D02*
D03*
X88406D02*
D03*
D148*
X103056Y366174D02*
D03*
D149*
X22872Y248654D02*
D03*
Y251213D02*
D03*
Y244468D02*
D03*
Y241909D02*
D03*
D150*
X16150Y393717D02*
D03*
X10244D02*
D03*
X16152Y382144D02*
D03*
X10247D02*
D03*
Y376357D02*
D03*
X16152D02*
D03*
Y387930D02*
D03*
X10247D02*
D03*
D151*
X563500Y117464D02*
D03*
Y107621D02*
D03*
Y97779D02*
D03*
Y87936D02*
D03*
D152*
X546963Y102700D02*
D03*
X554837Y98960D02*
D03*
Y106440D02*
D03*
D153*
X565700Y133111D02*
D03*
Y126419D02*
D03*
D154*
X222538Y77433D02*
D03*
X235136D02*
D03*
X243798D02*
D03*
X252459D02*
D03*
Y49874D02*
D03*
X243798D02*
D03*
X235136D02*
D03*
X222538D02*
D03*
X38658D02*
D03*
X51257D02*
D03*
X59918D02*
D03*
X68579D02*
D03*
Y77433D02*
D03*
X59918D02*
D03*
X51257D02*
D03*
X38658D02*
D03*
X176568Y49874D02*
D03*
X189166D02*
D03*
X197828D02*
D03*
X206489D02*
D03*
Y77433D02*
D03*
X197828D02*
D03*
X189166D02*
D03*
X176568D02*
D03*
X130598Y49874D02*
D03*
X143197D02*
D03*
X151858D02*
D03*
X160519D02*
D03*
Y77433D02*
D03*
X151858D02*
D03*
X143197D02*
D03*
X130598D02*
D03*
X84628Y49874D02*
D03*
X97227D02*
D03*
X105888D02*
D03*
X114549D02*
D03*
Y77433D02*
D03*
X105888D02*
D03*
X97227D02*
D03*
X84628D02*
D03*
D155*
X367900Y31024D02*
D03*
Y8976D02*
D03*
X357900Y31024D02*
D03*
Y8976D02*
D03*
X347900Y31024D02*
D03*
Y8976D02*
D03*
X337900Y31024D02*
D03*
Y8976D02*
D03*
X327900Y31024D02*
D03*
Y8976D02*
D03*
X317900Y31024D02*
D03*
Y8976D02*
D03*
X307900Y31024D02*
D03*
Y8976D02*
D03*
X297900Y31024D02*
D03*
Y8976D02*
D03*
X287900Y31024D02*
D03*
Y8976D02*
D03*
X277900Y31024D02*
D03*
Y8976D02*
D03*
D156*
X272254Y52997D02*
D03*
X277254D02*
D03*
X282254D02*
D03*
X287254D02*
D03*
X292254D02*
D03*
X297254D02*
D03*
X302254D02*
D03*
X307254D02*
D03*
Y75635D02*
D03*
X302254D02*
D03*
X297254D02*
D03*
X292254D02*
D03*
X287254D02*
D03*
X282254D02*
D03*
X277254D02*
D03*
X272254D02*
D03*
D157*
X434917Y63990D02*
D03*
X439917D02*
D03*
X444917D02*
D03*
X449917D02*
D03*
X454917D02*
D03*
X459917D02*
D03*
X464917D02*
D03*
X469917D02*
D03*
Y45013D02*
D03*
X464917D02*
D03*
X459917D02*
D03*
X454917D02*
D03*
X449917D02*
D03*
X444917D02*
D03*
X439917D02*
D03*
X434917D02*
D03*
D158*
X5847Y240585D02*
D03*
Y250033D02*
D03*
D159*
Y230348D02*
D03*
Y260270D02*
D03*
D160*
X15886Y233104D02*
D03*
Y257514D02*
D03*
D161*
X16378Y240191D02*
D03*
Y250427D02*
D03*
Y242750D02*
D03*
Y247868D02*
D03*
Y245309D02*
D03*
D162*
X500716Y15788D02*
D03*
X484969D02*
D03*
X492842Y7914D02*
D03*
Y15788D02*
D03*
X500716Y7914D02*
D03*
D163*
X484969D02*
D03*
D164*
X142662Y251315D02*
D03*
X440300D02*
D03*
Y112850D02*
D03*
X142662D02*
D03*
D165*
X452891Y298921D02*
D03*
X130057D02*
D03*
X574512Y229795D02*
D03*
Y261291D02*
D03*
X536091Y396553D02*
D03*
X491211D02*
D03*
X12500Y216659D02*
D03*
Y185163D02*
D03*
X417218Y396553D02*
D03*
X462098D02*
D03*
X172014Y395563D02*
D03*
Y423122D02*
D03*
D166*
X256143Y399226D02*
D03*
X199057D02*
D03*
X196695Y418714D02*
D03*
X258506D02*
D03*
D167*
X564932Y191000D02*
D03*
X584932D02*
D03*
Y171000D02*
D03*
X564932D02*
D03*
X574932Y181000D02*
D03*
D168*
X131889Y420191D02*
D03*
X141739D02*
D03*
X525650Y10686D02*
D03*
X535500D02*
D03*
D169*
X388315Y36712D02*
D03*
Y10906D02*
D03*
D170*
X398158Y36712D02*
D03*
X408000D02*
D03*
X417843D02*
D03*
Y10906D02*
D03*
X408000D02*
D03*
X398158D02*
D03*
D171*
X491151Y371553D02*
D03*
X496151Y361553D02*
D03*
X501151Y371553D02*
D03*
X506151Y361553D02*
D03*
X511151Y371553D02*
D03*
X516151Y361553D02*
D03*
X521151Y371553D02*
D03*
X526151Y361553D02*
D03*
X531151Y371553D02*
D03*
X457158D02*
D03*
X452158Y361553D02*
D03*
X447158Y371553D02*
D03*
X442158Y361553D02*
D03*
X437158Y371553D02*
D03*
X432158Y361553D02*
D03*
X427158Y371553D02*
D03*
X422158Y361553D02*
D03*
X417158Y371553D02*
D03*
D172*
X529651Y416053D02*
D03*
X539651D02*
D03*
X497651D02*
D03*
X487651D02*
D03*
X413658D02*
D03*
X423658D02*
D03*
X465658D02*
D03*
X455658D02*
D03*
D173*
X483139Y384543D02*
D03*
X544163D02*
D03*
X470170D02*
D03*
X409146D02*
D03*
D174*
X536151Y361529D02*
D03*
X462158D02*
D03*
D175*
X3327Y191580D02*
D03*
X21673D02*
D03*
Y210242D02*
D03*
X3327D02*
D03*
D176*
X574803Y417323D02*
D03*
X15748D02*
D03*
X574803Y15748D02*
D03*
X15748D02*
D03*
D177*
X393819Y373626D02*
D03*
Y396421D02*
D03*
X338307D02*
D03*
Y373626D02*
D03*
D178*
X352284Y386500D02*
D03*
X362126D02*
D03*
X370000D02*
D03*
X379843D02*
D03*
X352284Y375870D02*
D03*
X362126D02*
D03*
X370000D02*
D03*
D179*
X379843D02*
D03*
D180*
X324000Y375138D02*
D03*
X272268D02*
D03*
Y397500D02*
D03*
X324000D02*
D03*
D181*
X313882Y371122D02*
D03*
X306008D02*
D03*
X298134D02*
D03*
X290260D02*
D03*
X282386D02*
D03*
X311913Y377028D02*
D03*
X302071D02*
D03*
X294197D02*
D03*
X284354D02*
D03*
X313882Y383721D02*
D03*
X306008D02*
D03*
X298134D02*
D03*
X290260D02*
D03*
X282386D02*
D03*
X284354Y389626D02*
D03*
X294197D02*
D03*
X302071D02*
D03*
X311913D02*
D03*
D182*
X62898Y385409D02*
D03*
D183*
Y421827D02*
D03*
D184*
X81795Y411000D02*
D03*
Y392299D02*
D03*
X44000Y411000D02*
D03*
Y392299D02*
D03*
D185*
X62898Y408638D02*
D03*
D186*
X98679Y420377D02*
D03*
D187*
X108522D02*
D03*
D188*
X580500Y109000D02*
D03*
Y142464D02*
D03*
Y53036D02*
D03*
Y86500D02*
D03*
D189*
X440500Y10500D02*
D03*
X450343D02*
D03*
D190*
X460185D02*
D03*
D191*
X46320Y31700D02*
D03*
X60100D02*
D03*
X73880D02*
D03*
X92290D02*
D03*
X106070D02*
D03*
X119849D02*
D03*
X184230D02*
D03*
X198010D02*
D03*
X211789D02*
D03*
X138260D02*
D03*
X152040D02*
D03*
X165819D02*
D03*
X230200D02*
D03*
X243980D02*
D03*
X257759D02*
D03*
M02*
