M48
;Layer_Color=9474304
;FILE_FORMAT=2:5
INCH,LZ
;TYPE=PLATED
T1F00S00C0.01181
T3F00S00C0.02756
T4F00S00C0.03150
T6F00S00C0.03543
T7F00S00C0.03600
T8F00S00C0.03937
T9F00S00C0.04724
T10F00S00C0.05118
T11F00S00C0.05512
T12F00S00C0.05906
T13F00S00C0.06299
T14F00S00C0.06417
T15F00S00C0.09055
T16F00S00C0.09843
T17F00S00C0.12992
T18F00S00C0.15748
;TYPE=NON_PLATED
T19F00S00C0.02756
T20F00S00C0.02953
T21F00S00C0.03937
T22F00S00C0.04331
T23F00S00C0.05512
T24F00S00C0.06299
T25F00S00C0.06378
T26F00S00C0.12795
%
T01
X0015748Y0005873
X02779Y0002988
X02879
X02979
X03079
X0318006Y0002988
X03279
X0338
X03479Y0002988
X03579
X03679
X0574803Y0005873
X056788Y0008765
X0564929Y0015748
X0567821Y0022672
X0574803Y0025623
X0581727Y0022731
X0584678Y0015748
X0581786Y0008824
X0580145Y0041224
X0543453Y0041225
X0537081Y00608
X0544302Y0092406
Y0097189
Y01027
X0537081Y011674
X05381Y01431
X0536281Y0153111
X05602Y0132645
X05657Y0136166
X0580145Y014837
Y0097189
Y0092405
X0526676Y0078236
X05241Y00734
X0521563Y0070584
X0526652
X05267Y00614
X05137Y0066645
X05036Y00665
X0501545Y005985
X0507932Y0057696
X05129Y00485
X050385Y00405
X0494928Y005391
X0489928Y0069246
X0484929Y0069242
X0479929
X0492431Y0075037
X0488753Y0097905
X0488777Y0106689
X04931Y01039
X0497438Y0106689
X0501769
X05061Y0106689
X0510406Y0106688
Y0117577
X0506087Y0117564
X0507279Y0124697
X0512769
X05185Y012522
X0521626Y012572
X0524185Y0127409
X0526744Y012572
Y0133499
X0512768Y0133339
X0507257
X0501745
X0496233
X0490721
X0490723Y0124697
X0496257
X0501774
X0481494Y0130157
X047576Y0115868
X0467784Y0148781
X04617
X0464019Y0160525
X04503Y00853
X0456132Y0077378
X04585Y0073313
X0434917Y0069073
X04399Y00593
X04322Y00511
X04214Y0059141
X04167Y0063016
X0405208Y0061118
Y0049365
X040799
X0413187Y0050427
X0393042
X038829
X0379772Y0043962
X03828Y0065611
X0385719
X0388637
X0391556
X0394475
Y00694
X0391556
X0388637
X0385719
X03828
X0374582Y0081634
X0372878Y0019494
X0375573Y001804
X03729Y00121
X038644Y0021529
X0393113Y0026491
X0396791Y0018543
X0404048Y0024453
X0410288Y0021529
X0416961Y0026491
X0428385Y0024479
X0430585Y0018604
X0439949Y0031806
X0459949
X04552Y00264
X0450342Y0021647
X0460185
X04698Y003
X0479177Y0025563
X0484553Y0025526
X0489962Y00256
X0495339Y0025563
X0507Y0012154
X052565Y0021547
X05179Y0080001
X0527729Y011025
X0421795Y0102902
X0371274Y0081634
X0368125
X0364818
X0359431Y0081834
X0356124
X0352974
X0349667
X0339002Y0083212
X0339Y0087345
X0334998Y0087343
X0327315
X0323272
X0323283Y0095023
X0327336Y0097904
X0335011Y0095023
X0339011Y0097904
X0349667Y0095023
X0319023Y0080307
X03172Y0077602
X0318953Y0074354
X03172Y0071401
X0318953Y0068448
X0323513Y0055457
Y005215
Y0049
Y0045693
X0310969Y0045593
X03079Y0036535
X0317784Y0036651
X032794Y0036535
X0337909
X0348054
X03579
X036789
X0370183Y001804
X0360573Y0018763
X03579Y0017269
X0355227Y0018763
X0353219Y0022219
X0345673Y001804
X0343Y0019534
X0340327Y001804
X0330573Y0018763
X03279Y0017269
X0325227Y0018763
X0322946Y0022219
X0315573Y001804
X0310227
X0303173Y0018863
X0297827
X02959Y00223
X0297819Y0036535
X02879
X02779
X0277254Y0056052
X0272254
X0282254
X0287254
X0292254
X0307254
X030344Y0082688
X0295878Y00821
X0292254Y007869
X0287254
X0282254
X0277254
X0272254
X0222538Y0081855
Y0054296
X0342766Y0055457
X0342856Y005215
Y0049
X0342886Y0045663
X03554Y0045593
X0176568Y0054296
Y0081855
X0130598
Y0054296
X0084628
Y0081855
X0084861Y0094216
X0076889Y01075
X0069064Y010407
X0064875Y0104067
X0060623Y0101712
X0061992Y0119841
X0069472Y0123479
X0077426Y0124645
Y0121101
X0093039Y012719
Y0131127
Y0135063
Y0139
Y0142936
Y0146873
X0101709Y0146871
Y0142934
Y0135061
Y0131124
Y0127188
X0127354Y0127693
X0130362Y01305
X0068372Y0136436
X0077426Y0149448
X00842Y01594
X0047811Y01565
Y0152156
X0046641Y0147441
X0039472Y0149448
Y0156534
X0031643Y0131731
Y0128188
Y0124645
Y0121101
X00407Y01203
X0047838Y0121991
X0051132Y0126208
X0054981
X0054333Y0132736
X0058449Y0119841
X0046903Y0110278
Y0104963
X0046405Y0099671
X004175Y0101818
X0042003Y0096692
X003676Y0095819
X003274
X0027493
X0022204
Y0102659
X0027493
X003274
X0036593Y0102766
X0041649Y0107285
Y0112
X0016064Y0104981
Y0093367
X0038658Y0081855
Y0054296
X0022672Y0022731
X0015748Y0025623
X0008765Y0022672
X0005873Y0015748
X0008824Y0008765
X0022731Y0008824
X0025623Y0015748
X0040732Y0165624
X0047819
X00476Y01782
X0041072Y01806
Y0183788
X00512Y0184788
X0054313Y0192303
X0055001Y0202442
X0049967Y0209355
X0046178
X004239
X0038601
X0038615Y0213243
X0042404
X0046193
X0049967
X0052516Y0218056
Y0221261
X0055721
Y0218056
Y0224466
X0052516
X0047006Y0227494
X0042901Y0227444
X0038949
X0037699Y0238108
X0041Y0243538
X0044205
X004741
Y02491
X0044205
X0041
X0030781Y0249522
X0028298Y024527
X002595Y0242223
X0025636Y0238108
X0012237Y02402
Y0250426
X0013397Y0267882
X0016839Y0265043
X0006695Y027015
Y0281245
X0006695Y0296448
Y0311145
X0028155Y0311178
X0042358
X0037062Y0302385
X0042358Y029648
X0034771Y0289574
X0025579Y0293708
X003172Y0268136
X0033171Y0260992
X0036376
Y0257349
X0033171
X0029966
Y0260992
X0041281Y02658
Y0268704
Y0271658
X0041281Y0274612
X0044205Y02658
X0047159Y02658
X0053848Y02626
Y025858
X005564Y0253181
Y0249976
Y0246771
Y0243566
Y0240361
X0055261Y027015
X00526Y0276511
X00562Y02828
Y02871
X0029Y02231
X002291
X002645Y0207289
X00202Y02042
X0021673Y0199844
Y0196781
X0033027Y01978
Y0202259
X0034901Y0208655
X0040567Y0197928
Y0194866
X0033437Y0190168
X0012279Y018967
Y0193607
X0012107Y0201978
Y020504
X00121Y02094
X001213Y0213307
X0005302Y0195949
X0054904Y0172408
X0072622Y0174952
Y01649
X008273Y016744
Y0171778
X01273Y0182781
X0130362
X0139Y018745
Y0190712
X01056Y02301
X01064Y024
Y024595
Y02519
X0109735Y02764
X0112798
X0134483Y0277662
X0137231
X01372Y02907
X01403Y0300019
X0143973Y0301048
X0142851Y0304
X0142838Y0307424
X01508Y0307211
X0154353Y03065
X0158599Y0307211
X0162523Y0307224
X016646Y0307224
X0174334Y0307224
X0178271
X01835Y0306883
X0188114Y0307224
X019377Y0306831
X0200922Y0306885
X0209767Y0307306
X0213704Y0307224
X0211762Y0318078
X0207825
X020487Y0318986
X0194044Y0318078
X0190107
X018617
X0173614Y0318548
X0169175
X0164517Y0318078
X015732Y0318548
X0142338Y0318606
X0136958Y0317977
X0144578Y0297111
X0153856Y0300019
X01538Y02934
X0162509Y0300019
X016646Y0298101
X0169814Y029855
X0173247Y029522
Y029082
X0178369Y02974
X0182269
X0182517Y02941
X0184654Y0291351
X01911Y02924
X0190072Y02974
X0193974
X0197875Y02974
X0201777Y02974
X0205678
X020988
X0212733Y0290431
X0215301Y0292671
X0196985
X0186171Y02974
X0188156Y0267742
X01841
X0196269
X0197478Y0260788
X02009Y02584
X0208929Y02581
X0206648Y0262979
X02085Y0268519
X0212495Y0267742
X01779Y02532
Y02383
X0169425Y0278239
X0161639Y0276271
X0158Y0276426
X0149742Y0278281
X01418Y02667
X0078702Y0263267
X0074913
X0071124
X0067335
X0067349Y025938
X0063649
X0071138
X0074927
X0078716
X0078442Y028753
X0075524
X0072605
X0069686
X0066767
X0066768Y0291161
X0069686
X0072605
X0075524
X0078442
Y0294791
X0075524
X0072605
X0072605Y0304524
X0075524
X0078442
X0088912Y0303633
X0085959Y0312929
X0074705Y0315422
X0070017Y0315775
X0066229
X0066214Y0311888
X0070003
X0069989Y0308
X00662
X0060082Y0279791
Y0270768
X006365Y0233855
X0095588Y0295457
X0106689Y0304024
X0105739Y03088
Y0312929
X0217641Y0307224
X0221578
X0225515Y0307324
X02313Y0302662
X0231331Y0299592
X0231258Y0296531
X0231434Y0293474
X02321Y02902
X02389Y02901
X0244666Y029366
X0247728
X0254509Y0305201
X0257571
X0260667Y0303174
X0264353Y0305201
X0267415
X0268849Y0318078
X0263477Y0318965
X0260415
X0227755Y0318519
X0223572Y0318078
X0219635
X0224248Y0295274
X02344Y0304975
X02365Y02757
X02398Y02731
X02424Y02708
X025455Y027635
X02586Y02743
X0263324
X02518Y02574
X02698Y0241419
X02896Y02536
X03112Y0254738
X03217Y02534
X03309Y0261
X0328821Y02665
X03349Y02699
X0331933Y0273733
X0324926Y0276322
X0315083
X0317077Y0289575
X03207Y02904
X03235Y02937
X0326919Y0289575
X0330856
X0328438Y0301132
X0325376
X03322Y0304
X0334365Y0301835
X0342335Y0299562
X0344514Y0301714
X0343092Y03058
X034703
X0350092
X0352936Y03029
X0355998
X0359935
X0363175Y0299562
X0366283Y0293
X0370903Y0303774
Y0306837
X0351526Y0318177
X03161Y03186
X0310188Y0318078
X030625
X02978
X0304257Y0307424
X0308194Y0307224
X03006Y02927
X029177Y0291143
X02836Y0289881
X0280267Y0293167
X0277065Y0291335
X02749Y02935
X02896Y02771
X0293443
X03031Y0264
X0308194Y0236681
X0225533
Y02278
X0220608Y0267742
X0216551
X025857Y0196503
X03631Y01634
X03713Y02699
X0378518Y0263919
Y02479
X0381Y02348
X0378518Y02273
X03724Y0238
X03958Y0229719
X0395Y02169
X03895Y0209163
X0407981Y02273
X04058Y02618
X04012Y0268562
X03985Y02718
X0403666Y0276322
X0417445
X04151Y02734
X0427287Y0276822
X0433193
X0437142Y0276496
X0443048
X0435906Y0270281
X0429913
X0428285Y0292981
X0425192Y0292996
X0422778Y0295423
X0426177Y0298916
X0428994Y0297714
X0431678Y0295958
X0436106Y0297202
X0439269
X04414Y0294334
X044482Y0295337
X0446986Y0297502
X0447657Y0301935
X0449822Y03041
X0453223Y0309845
X0436172Y0307214
X0422682Y0306883
X0416454Y0306538
X0413222Y0306613
X0405547
X0396871Y0307313
X0396444Y0300811
X0392822Y0300295
X0386947Y0301809
X0381336Y0300295
X0381028Y0307224
X0379588Y0293082
X0376444Y0293
X0374163Y0289575
X0389899Y0293
X0394132Y0291857
X03985Y0294324
X0402695Y0294224
X0408505Y0295319
X0413318Y0297669
X0415211Y029266
X0418484Y0292549
X0419338Y0289575
X0415502Y0289538
X0405659Y0289576
X0419217Y0299834
X0404631Y0318484
X048505Y03097
X048227Y03025
X0482388Y029339
X0489613
X0492419Y0299487
X04989Y03097
X0508838Y0309719
X051677
X0524694Y0309032
X0526838Y0318462
X052165Y02751
X0516108
X0518349Y0268156
X0515996Y0262318
X0515904Y0258818
X05103Y02596
X0510436Y0255831
X0517484Y0251678
X0521854Y0252836
X0518549Y0242625
X0514223
X0516308Y0239317
X0517807Y0236024
X052593Y0222812
X0527704Y0207935
X0523304
X0518874Y0207719
X0513599Y0205768
X0504469Y0206056
X0496889Y0206066
X0493177Y0203759
X04888Y0203808
X0484375
X0479071Y0205126
X047329
X0465435Y0206172
Y0202471
X0462531Y0209163
X0469205Y02115
X0451746Y0206172
Y0202471
X0454586Y0189622
X0461392Y0194574
X0468276Y0189622
X0464528Y0185112
Y0181412
X0464062Y0176981
X0463681Y01691
X04669Y01712
X0475495Y0173033
Y01688
X0484Y01637
X0490721Y0183135
X0496233
X0497414Y019386
X0493114
X0506076Y0192978
X0510407
X0515139Y019386
X0519067
X0523398
X0527732Y0192974
X0512769Y0183135
X0480092Y0192978
X0475761
X0491Y02087
X04955Y02169
X0494924Y024244
X0487551Y0242014
X0479811
X04818Y02356
X0477637Y0235463
X0475769Y02635
X04706Y02756
X0489127Y0275843
X0499597Y0275081
X0508996Y0269926
X0495666Y0261619
X0498803Y0255946
X045508Y01665
X04072Y01747
X0536281Y0170434
Y0166104
X0539389Y0172138
X0539734Y0177392
X0536281Y0179096
X0546548Y0177392
Y0172138
X0553149
Y0179
X0558Y0182254
X055903Y0175921
X0564932Y0178071
Y0183805
X05662Y02106
X05628
X05328Y02067
X0534174Y0201429
X0538457Y0197216
X0553163Y0238937
X0550459Y0257241
Y0262304
X05441Y02751
X05402
X053615Y02857
X05281Y02981
X0528956Y0315607
X0532018
X05391Y03104
X05452Y03132
X0549595Y0311941
Y0308878
X0551926Y0306035
Y0302973
X0548397Y030013
Y0297067
X0555744Y029509
X0553083Y0281697
X0572343Y0295646
Y0301551
Y0307457
Y0313362
X0555644Y0313128
X0551926Y0314784
Y0317846
X0586475Y0309498
X0587075Y0292105
X0586475Y0274713
X05737Y0257241
X0564769Y0248422
X0535536Y0254571
X05314Y0319721
X0541396Y0323139
X054268Y0325919
X05452Y03282
X05452Y0331572
X0545103Y0334632
X0548736Y033683
X0551791Y0336612
X054962Y0333047
X05539Y0329
X0558164Y0328297
X0555164Y0323752
Y0320689
X0555541Y0341334
Y0345462
Y0349589
X0551671Y0354238
X0553273Y0367975
X0557146Y0380813
X0568036Y0384659
X0578273Y038095
Y0377179
X0584564Y03688
X0587075Y0361675
X0585028Y0351354
Y0347417
X0586475Y0344283
X0585028Y033894
Y0335016
Y0331669
X0586475Y032689
X0585028Y0323795
Y0320646
X0575391Y0347763
X0572489Y0348739
X0572271Y0352138
X0541687Y0347415
X0537163Y0343781
X0536148Y0350277
X05452Y0341449
X0531155Y0382484
X0547497Y041082
X056788Y041034
X0574803Y0407448
X0581786Y0410399
X0584678Y0417323
X0581727Y0424305
X0574803Y0427197
X0567821Y0424246
X0564929Y0417323
X0522497Y0410443
X0504997Y041072
X05087Y0415953
X0480497Y0410443
X0472797Y0410853
X0448306Y0410479
X0431004Y0410833
X0406306Y0410479
X0427162Y0382484
X0437162
X0447162
X0457162
X0478268Y0369362
X04911Y03665
X0490931Y0355456
X0499069Y0351238
Y0348176
X0503681Y0346387
X0507152Y0351487
X0510494Y0351428
X0513549Y0351226
X0511136Y0358884
X0523029Y0352934
X0527614Y0351684
Y0348622
Y0345334
X0517776Y0334263
X0513776
X0509658Y0334176
X0508754Y0319704
X0512584Y0319755
X0516351Y0319093
X0519961Y0319669
X0523692Y0319769
X0503095Y0319093
X0504164Y0322082
X0499386Y0323486
X0495425Y0323481
X0489055Y0319612
X0479771Y0320729
X0476182Y0323054
X0473701Y0320983
X0468479Y0322886
X0468583Y0326008
X0471Y03282
X0471082Y0331344
X0475Y0333
Y0339718
X0471Y0340749
Y0345993
X0476Y0344151
X0480196Y0348176
X0473347Y0358255
X0465446Y0352136
X0463063Y0343781
X0458854Y0340181
X0454728Y0345856
X0453414Y0348622
Y0351684
X0448615Y0352934
X0439166Y0351238
X0436104
X0433005Y0351734
X042948Y0346781
X0424869Y0348176
Y0351238
X0425625Y0355453
X0417783Y0352175
X0424218Y034177
X04431Y03419
X043765Y0358509
X0438215Y0319803
X0434668Y0319769
X0430526Y0319081
X0430145Y03222
X0425186Y0323676
X0421224Y0323581
X0417505Y032364
X0413806Y0322516
X0415036Y0319712
X0401941Y0321058
X039966Y0323426
X0391906Y0319506
X0388227Y0321
X0384955Y0323272
X038173Y0319506
X0379073Y03211
X0375862Y0323676
X03728
X0373131Y0319506
X0375861Y0340181
X0379806
X0379482Y0344514
X0379692Y0351564
X0374856Y0362224
X0399981Y0352688
X0400546Y03445
X0401999Y0340285
X0441864Y0319219
X0445661Y0319569
X0449492Y0319769
X0453223
X0457105Y03215
X0457788Y0325957
X0464972Y0323022
X0461481Y0319481
X0482711Y0324443
X0486212Y0328231
X0498518Y034149
X0501155Y0382484
X0511155
X0521155
X0367448Y04073
X0364386
X0357744Y0362124
X0347864Y0357954
X0346475Y0351994
Y0344514
X0333823Y03445
X0336Y036088
X03419Y03624
X0364669Y0350813
X0367731
X036724Y0344743
X03632Y03216
X0359935Y03191
X0356873
X0358699Y0322975
X0349151
X0346155Y03191
X0343092
X0332376
X0329313
X0313583Y0344571
Y035212
X029931Y0344441
X0279533Y0341232
X0281664Y03519
X0281464Y0359232
X0272679Y0359762
X0275375Y0362723
Y0365785
X0267862Y0363842
X02648
X0263065Y0361032
X0256014Y035774
X0258035Y03775
X0261098
X0263279Y0380359
X0255177Y0379681
X0250781Y03862
X02392Y03872
X02394Y04048
X0236065Y0403031
X02335Y04058
X02278Y0408
Y0411062
X0229541Y0401653
X0223636
X021773
X02453Y04006
X0245317Y0404344
X0231801Y0374376
X0228739
X02264Y03773
X02289Y03543
X02264Y0351455
X02316Y035143
X0234303Y0354582
X0234154Y0346719
X0239407
X0239227Y0343566
X0227902Y0340181
X0224
X0218754Y0351487
X0221268Y0354345
X021615
X0217189Y0329322
X02187Y0321843
X02425Y03236
X0250572Y0320019
X0253634
X02676Y03223
X0281603Y0319503
X02666Y03447
X0292821Y0398004
X0301609Y0399124
X0299394Y04088
X0296332
X0297625Y0420588
X0299807Y04304
X0302869
X0306161
X0294877
X0291815
X0288522
X0286Y04275
Y0424438
Y0421145
X0211739Y0401653
X02096Y03836
X0204267Y03802
X0204413Y0377413
X01909Y0378663
Y03756
Y0372538
Y0369474
X0196Y03696
Y0366537
Y0363474
Y0360411
X01775Y0357165
Y0354102
X01766Y03429
X0177734Y0328063
X0189202Y0327323
X01893Y03313
X0198464Y0326707
X0200655Y0328847
X0206681Y0327644
X0211491Y0327983
X0202936Y032136
X02054Y03373
X02071Y03408
X0213636Y0351487
X0163Y034932
X01544Y03637
X01419Y03711
X0141943Y0378515
X0124192Y03815
Y0370785
X01197Y03684
X01164Y0365215
X01146Y03608
X01085Y0362154
X0104752
X0101004
X0097255
Y0370193
X0101004
X0104752
X01085
X01056Y03815
X0116Y0389969
X0091343Y0387581
X0087947Y039263
X0082475Y0383465
X0076908Y0382494
X0072705
X0071521Y0370482
X0074439
X0077358
Y0366693
X0074439
X0071521
Y03571
X0074439
X0077358
Y0353311
X0074439
X0071521
X0081371Y0350221
X0090455Y0352226
Y0355944
X0090151Y0365265
X0087092Y0366421
X0090456Y0331528
X0093375
Y0327739
X0090456
X0086764Y0322894
X0082598Y0319149
X0078908Y032415
X0074705
X00964Y03246
X0099972Y0334579
X0103061
X010615
X0109735Y0321162
X0112798
X01334Y0328063
X013748
X0148496Y0330224
X0145615Y0342169
X0131281Y0343019
Y0346081
X0124192Y0350403
X0124555Y035668
X01414Y03565
X0164965Y0328063
X01661Y04018
X01758Y04023
X01783Y0405797
X0181282Y0410448
X0185487Y0411154
X0186687Y04087
X0185506Y0420366
X0174658Y0413227
X0163862Y0425
X0152139Y041661
X01578Y04075
X0157841Y0399789
X0152139Y0399618
X01432Y0408157
X01307
X0123428Y0410248
X0103739Y0410619
X0067444Y0399444
Y0395055
Y0390666
X0062267Y0395055
X0062089Y0399444
X0056734
X0056912Y0395055
X0056734Y0390666
X0051379
X0051557Y0395055
X0051379Y0399444
X00363Y03985
X0033245
X003019
X0027135
X00188Y04004
X0020378Y0392405
X0022759Y03886
X002514Y0384364
X0006003Y03858
Y0390655
X0006041Y03955
X0003003Y0400299
Y0405512
X0008825Y041034
X0015748Y0407448
X0022731Y0410399
X0025623Y0417323
X0022672Y0424305
X0015748Y0427197
X0008765Y0424246
X0005873Y0417323
X00037Y03639
X0003819Y0355347
Y0340445
X0006695Y0325845
X0028155Y0325877
X0042358
X0043764Y0336119
X0040709
X0037653
X0045175Y0347618
X0045189Y0351506
X0049578
X0049564Y0347618
X0053953
X0053967Y0351506
X0058356
X0058342Y0347618
X0056172Y0360051
X0054456Y0368962
Y0372017
X00347Y0364219
X0038Y0356199
T03
X0282386Y0371122
X0284354Y0377028
X0282386Y0383721
X0284354Y0389626
X0294197
X0302071
X0306008Y0383721
X0313882
X0311913Y0389626
Y0377028
X0313882Y0371122
X0306008
X0298134
X029026
X0294197Y0377028
X0302071
X0298134Y0383721
X029026
T04
X0379843Y037587
Y03865
X037
X0362126
X0352284
Y037587
X0362126
X037
T06
X0536151Y0361529
X0531151Y0371553
X0521151
X0511151
X0501151
X0491151
X0496151Y0361553
X0506151
X0516151
X0526151
X0462158Y0361529
X0452158Y0361553
X0442158
X0432158
X0422158
X0427158Y0371553
X0437158
X0447158
X0457158
X0417158
X0108522Y0420377
X0098678
T07
X0484969Y0007914
X0484969Y0015788
X0492843
X0500717
Y0007914
X0492843
T08
X05355Y0010686
X052565
X0460185Y00105
X0450343
X04405
X0417843Y0010906
X0408
X0398159
X0388315
Y0036712
X0398159
X0408
X0417843
X0141739Y0420191
X0131889
T09
X0529651Y0416053
X0539651
X0497651
X0487651
X0465658
X0455658
X0423658
X0413658
T10
X0256143Y0399226
X0258506Y0418714
X0196695
X0199057Y0399226
T11
X0574932Y0181
X0062898Y0385409
T12
X0564932Y0171
Y0191
X0584932
Y0171
T13
X02302Y00317
X024398
X0257759
X0211789
X019801
X018423
X0165819
X015204
X013826
X0119849
X010607
X009229
X007388
X00601
X004632
T14
X0544163Y0384543
X0483139
X047017
X0409146
T15
X0272268Y0375138
Y03975
X0324
Y0375138
T16
X0393819Y0373626
Y0396421
X0338307
Y0373626
T17
X04403Y011285
X0142662
Y0251315
X04403
T18
X0574803Y0015748
X0015748
X0574803Y0417323
X0015748
T19
X00125Y0185163
Y0216659
T20
X05805Y0053036
Y00865
Y0109
Y0142464
T21
X0574512Y0229795
Y0261291
T22
X0130057Y0298921
T23
X0172014Y0395563
Y0423122
T24
X0062898Y0421827
T25
X0452891Y0298921
T26
X0536091Y0396553
X0491211
X0462098
X0417218
M30
