G04*
G04 #@! TF.GenerationSoftware,Altium Limited,Altium Designer,23.4.1 (23)*
G04*
G04 Layer_Color=128*
%FSLAX25Y25*%
%MOIN*%
G70*
G04*
G04 #@! TF.SameCoordinates,6A7C3DE4-8593-4091-87D5-6454EB1C75A9*
G04*
G04*
G04 #@! TF.FilePolarity,Positive*
G04*
G01*
G75*
%ADD14C,0.00500*%
D14*
X498917Y15788D02*
X502517D01*
X500717Y13988D02*
Y17588D01*
X483169Y7914D02*
X486768D01*
X484969Y6114D02*
Y9714D01*
X483169Y15788D02*
X486768D01*
X484969Y13988D02*
Y17588D01*
X491043Y7914D02*
X494643D01*
X492843Y6114D02*
Y9714D01*
X491043Y15788D02*
X494643D01*
X492843Y13988D02*
Y17588D01*
X498917Y7914D02*
X502517D01*
X500717Y6114D02*
Y9714D01*
X136166Y251315D02*
X149158D01*
X142662Y244819D02*
Y257811D01*
X433804Y251315D02*
X446796D01*
X440300Y244819D02*
Y257811D01*
X433804Y112850D02*
X446796D01*
X440300Y106354D02*
Y119346D01*
X136166Y112850D02*
X149158D01*
X142662Y106354D02*
Y119346D01*
X449702Y298921D02*
X456080D01*
X452891Y295732D02*
Y302110D01*
X127891Y298921D02*
X132222D01*
X130057Y296756D02*
Y301086D01*
X253584Y399226D02*
X258702D01*
X256143Y396667D02*
Y401785D01*
X196498Y399226D02*
X201616D01*
X199057Y396667D02*
Y401785D01*
X194135Y418714D02*
X199254D01*
X196695Y416155D02*
Y421273D01*
X255946Y418714D02*
X261065D01*
X258506Y416155D02*
Y421273D01*
X561980Y191000D02*
X567885D01*
X564932Y188047D02*
Y193953D01*
X581980Y191000D02*
X587885D01*
X584932Y188047D02*
Y193953D01*
X581980Y171000D02*
X587885D01*
X584932Y168047D02*
Y173953D01*
X561980Y171000D02*
X567885D01*
X564932Y168047D02*
Y173953D01*
X572176Y181000D02*
X577688D01*
X574932Y178244D02*
Y183756D01*
X129921Y420191D02*
X133858D01*
X131889Y418222D02*
Y422159D01*
X139771Y420191D02*
X143708D01*
X141739Y418222D02*
Y422159D01*
X572544Y229795D02*
X576481D01*
X574512Y227827D02*
Y231764D01*
X572544Y261291D02*
X576481D01*
X574512Y259323D02*
Y263260D01*
X386347Y36712D02*
X390283D01*
X388315Y34744D02*
Y38681D01*
X396190Y36712D02*
X400127D01*
X398159Y34744D02*
Y38681D01*
X406032Y36712D02*
X409969D01*
X408000Y34744D02*
Y38681D01*
X415875Y36712D02*
X419812D01*
X417843Y34744D02*
Y38681D01*
X489380Y371553D02*
X492923D01*
X491151Y369781D02*
Y373324D01*
X494380Y361553D02*
X497923D01*
X496151Y359781D02*
Y363324D01*
X527289Y416053D02*
X532013D01*
X529651Y413690D02*
Y418415D01*
X537289Y416053D02*
X542013D01*
X539651Y413690D02*
Y418415D01*
X495289Y416053D02*
X500013D01*
X497651Y413690D02*
Y418415D01*
X485289Y416053D02*
X490013D01*
X487651Y413690D02*
Y418415D01*
X479931Y384543D02*
X486348D01*
X483139Y381334D02*
Y387751D01*
X540954Y384543D02*
X547372D01*
X544163Y381334D02*
Y387751D01*
X499379Y371553D02*
X502923D01*
X501151Y369781D02*
Y373324D01*
X504380Y361553D02*
X507923D01*
X506151Y359781D02*
Y363324D01*
X509379Y371553D02*
X512923D01*
X511151Y369781D02*
Y373324D01*
X514380Y361553D02*
X517923D01*
X516151Y359781D02*
Y363324D01*
X519380Y371553D02*
X522923D01*
X521151Y369781D02*
Y373324D01*
X524379Y361553D02*
X527923D01*
X526151Y359781D02*
Y363324D01*
X529380Y371553D02*
X532923D01*
X531151Y369781D02*
Y373324D01*
X534379Y361529D02*
X537923D01*
X536151Y359757D02*
Y363300D01*
X529694Y396553D02*
X542489D01*
X536091Y390155D02*
Y402950D01*
X484814Y396553D02*
X497609D01*
X491211Y390155D02*
Y402950D01*
X2047Y191580D02*
X4606D01*
X3327Y190301D02*
Y192860D01*
X20394Y191580D02*
X22953D01*
X21673Y190301D02*
Y192860D01*
X20394Y210242D02*
X22953D01*
X21673Y208962D02*
Y211521D01*
X2047Y210242D02*
X4606D01*
X3327Y208962D02*
Y211521D01*
X11122Y216659D02*
X13878D01*
X12500Y215281D02*
Y218037D01*
X11122Y185163D02*
X13878D01*
X12500Y183785D02*
Y186541D01*
X566929Y417323D02*
X582677D01*
X574803Y409449D02*
Y425197D01*
X388898Y373626D02*
X398740D01*
X393819Y368705D02*
Y378547D01*
X388898Y396421D02*
X398740D01*
X393819Y391500D02*
Y401342D01*
X333386Y396421D02*
X343229D01*
X338307Y391500D02*
Y401342D01*
X333386Y373626D02*
X343229D01*
X338307Y368705D02*
Y378547D01*
X350709Y386500D02*
X353858D01*
X352284Y384925D02*
Y388075D01*
X360551Y386500D02*
X363701D01*
X362126Y384925D02*
Y388075D01*
X368425Y386500D02*
X371575D01*
X370000Y384925D02*
Y388075D01*
X378268Y386500D02*
X381417D01*
X379843Y384925D02*
Y388075D01*
X350709Y375870D02*
X353858D01*
X352284Y374295D02*
Y377445D01*
X360551Y375870D02*
X363701D01*
X362126Y374295D02*
Y377445D01*
X368425Y375870D02*
X371575D01*
X370000Y374295D02*
Y377445D01*
X378268Y375870D02*
X381417D01*
X379843Y374295D02*
Y377445D01*
X410821Y396553D02*
X423616D01*
X417218Y390155D02*
Y402950D01*
X455701Y396553D02*
X468496D01*
X462098Y390155D02*
Y402950D01*
X460387Y361529D02*
X463930D01*
X462158Y359757D02*
Y363300D01*
X455386Y371553D02*
X458930D01*
X457158Y369781D02*
Y373324D01*
X450386Y361553D02*
X453930D01*
X452158Y359781D02*
Y363324D01*
X445387Y371553D02*
X448930D01*
X447158Y369781D02*
Y373324D01*
X440386Y361553D02*
X443930D01*
X442158Y359781D02*
Y363324D01*
X435387Y371553D02*
X438930D01*
X437158Y369781D02*
Y373324D01*
X430386Y361553D02*
X433930D01*
X432158Y359781D02*
Y363324D01*
X425386Y371553D02*
X428930D01*
X427158Y369781D02*
Y373324D01*
X466961Y384543D02*
X473379D01*
X470170Y381334D02*
Y387751D01*
X405938Y384543D02*
X412355D01*
X409146Y381334D02*
Y387751D01*
X411296Y416053D02*
X416020D01*
X413658Y413690D02*
Y418415D01*
X421296Y416053D02*
X426020D01*
X423658Y413690D02*
Y418415D01*
X463296Y416053D02*
X468020D01*
X465658Y413690D02*
Y418415D01*
X453296Y416053D02*
X458020D01*
X455658Y413690D02*
Y418415D01*
X420387Y361553D02*
X423930D01*
X422158Y359781D02*
Y363324D01*
X415386Y371553D02*
X418930D01*
X417158Y369781D02*
Y373324D01*
X169258Y395563D02*
X174770D01*
X172014Y392807D02*
Y398319D01*
X169258Y423122D02*
X174770D01*
X172014Y420366D02*
Y425878D01*
X319472Y375138D02*
X328528D01*
X324000Y370610D02*
Y379665D01*
X267740Y375138D02*
X276795D01*
X272268Y370610D02*
Y379665D01*
X267740Y397500D02*
X276795D01*
X272268Y392972D02*
Y402028D01*
X319472Y397500D02*
X328528D01*
X324000Y392972D02*
Y402028D01*
X312504Y371122D02*
X315260D01*
X313882Y369744D02*
Y372500D01*
X304630Y371122D02*
X307386D01*
X306008Y369744D02*
Y372500D01*
X296756Y371122D02*
X299512D01*
X298134Y369744D02*
Y372500D01*
X288882Y371122D02*
X291638D01*
X290260Y369744D02*
Y372500D01*
X281008Y371122D02*
X283764D01*
X282386Y369744D02*
Y372500D01*
X310535Y377028D02*
X313291D01*
X311913Y375650D02*
Y378406D01*
X300693Y377028D02*
X303449D01*
X302071Y375650D02*
Y378406D01*
X292819Y377028D02*
X295575D01*
X294197Y375650D02*
Y378406D01*
X282976Y377028D02*
X285732D01*
X284354Y375650D02*
Y378406D01*
X312504Y383721D02*
X315260D01*
X313882Y382343D02*
Y385099D01*
X304630Y383721D02*
X307386D01*
X306008Y382343D02*
Y385099D01*
X296756Y383721D02*
X299512D01*
X298134Y382343D02*
Y385099D01*
X288882Y383721D02*
X291638D01*
X290260Y382343D02*
Y385099D01*
X281008Y383721D02*
X283764D01*
X282386Y382343D02*
Y385099D01*
X282976Y389626D02*
X285732D01*
X284354Y388248D02*
Y391004D01*
X292819Y389626D02*
X295575D01*
X294197Y388248D02*
Y391004D01*
X300693Y389626D02*
X303449D01*
X302071Y388248D02*
Y391004D01*
X310535Y389626D02*
X313291D01*
X311913Y388248D02*
Y391004D01*
X415875Y10906D02*
X419812D01*
X417843Y8938D02*
Y12875D01*
X406032Y10906D02*
X409969D01*
X408000Y8938D02*
Y12875D01*
X396190Y10906D02*
X400127D01*
X398159Y8938D02*
Y12875D01*
X386347Y10906D02*
X390283D01*
X388315Y8938D02*
Y12875D01*
X523681Y10686D02*
X527619D01*
X525650Y8718D02*
Y12655D01*
X533532Y10686D02*
X537468D01*
X535500Y8718D02*
Y12655D01*
X7874Y417323D02*
X23622D01*
X15748Y409449D02*
Y425197D01*
X60142Y385409D02*
X65654D01*
X62898Y382653D02*
Y388165D01*
X59748Y421827D02*
X66047D01*
X62898Y418677D02*
Y424976D01*
X80181Y411000D02*
X83410D01*
X81795Y409386D02*
Y412614D01*
X80181Y392299D02*
X83410D01*
X81795Y390685D02*
Y393913D01*
X42386Y411000D02*
X45614D01*
X44000Y409386D02*
Y412614D01*
X42386Y392299D02*
X45614D01*
X44000Y390685D02*
Y393913D01*
X61283Y408638D02*
X64512D01*
X62898Y407024D02*
Y410252D01*
X96907Y420377D02*
X100450D01*
X98678Y418605D02*
Y422148D01*
X106750Y420377D02*
X110293D01*
X108522Y418605D02*
Y422148D01*
X579024Y109000D02*
X581976D01*
X580500Y107524D02*
Y110476D01*
X579024Y142464D02*
X581976D01*
X580500Y140988D02*
Y143941D01*
X438531Y10500D02*
X442469D01*
X440500Y8531D02*
Y12468D01*
X448374Y10500D02*
X452311D01*
X450343Y8531D02*
Y12468D01*
X458216Y10500D02*
X462153D01*
X460185Y8531D02*
Y12468D01*
X579024Y53036D02*
X581976D01*
X580500Y51559D02*
Y54512D01*
X579024Y86500D02*
X581976D01*
X580500Y85024D02*
Y87976D01*
X43171Y31700D02*
X49470D01*
X46320Y28550D02*
Y34850D01*
X56950Y31700D02*
X63250D01*
X60100Y28550D02*
Y34850D01*
X70730Y31700D02*
X77029D01*
X73880Y28550D02*
Y34850D01*
X89141Y31700D02*
X95440D01*
X92290Y28550D02*
Y34850D01*
X102920Y31700D02*
X109220D01*
X106070Y28550D02*
Y34850D01*
X116700Y31700D02*
X122999D01*
X119849Y28550D02*
Y34850D01*
X181081Y31700D02*
X187380D01*
X184230Y28550D02*
Y34850D01*
X194860Y31700D02*
X201159D01*
X198010Y28550D02*
Y34850D01*
X208640Y31700D02*
X214939D01*
X211789Y28550D02*
Y34850D01*
X135111Y31700D02*
X141410D01*
X138260Y28550D02*
Y34850D01*
X148890Y31700D02*
X155189D01*
X152040Y28550D02*
Y34850D01*
X162670Y31700D02*
X168969D01*
X165819Y28550D02*
Y34850D01*
X227050Y31700D02*
X233350D01*
X230200Y28550D02*
Y34850D01*
X240830Y31700D02*
X247129D01*
X243980Y28550D02*
Y34850D01*
X254610Y31700D02*
X260909D01*
X257759Y28550D02*
Y34850D01*
X566929Y15748D02*
X582677D01*
X574803Y7874D02*
Y23622D01*
X7874Y15748D02*
X23622D01*
X15748Y7874D02*
Y23622D01*
X452632Y309845D02*
X453813D01*
X453223Y309254D02*
Y310435D01*
X372541Y319506D02*
X373722D01*
X373131Y318916D02*
Y320096D01*
X515405Y262318D02*
X516586D01*
X515996Y261728D02*
Y262909D01*
X378891Y344514D02*
X380072D01*
X379482Y343923D02*
Y345105D01*
X404617Y49365D02*
X405798D01*
X405208Y48774D02*
Y49955D01*
X527509Y298100D02*
X528690D01*
X528100Y297510D02*
Y298691D01*
X538510Y310400D02*
X539690D01*
X539100Y309809D02*
Y310991D01*
X506410Y12154D02*
X507590D01*
X507000Y11564D02*
Y12745D01*
X491841Y75037D02*
X493022D01*
X492431Y74447D02*
Y75628D01*
X503259Y40500D02*
X504440D01*
X503850Y39909D02*
Y41091D01*
X489372Y25600D02*
X490553D01*
X489962Y25009D02*
Y26190D01*
X494748Y25563D02*
X495929D01*
X495339Y24972D02*
Y26153D01*
X478586Y25563D02*
X479768D01*
X479177Y24972D02*
Y26153D01*
X483963Y25526D02*
X485144D01*
X484553Y24935D02*
Y26116D01*
X494338Y53910D02*
X495519D01*
X494928Y53320D02*
Y54501D01*
X517309Y80001D02*
X518491D01*
X517900Y79411D02*
Y80592D01*
X489337Y69246D02*
X490518D01*
X489928Y68656D02*
Y69837D01*
X479339Y69242D02*
X480520D01*
X479929Y68651D02*
Y69832D01*
X484339Y69242D02*
X485520D01*
X484929Y68651D02*
Y69832D01*
X327350Y36535D02*
X328531D01*
X327940Y35945D02*
Y37126D01*
X552572Y238937D02*
X553754D01*
X553163Y238347D02*
Y239528D01*
X525340Y222812D02*
X526521D01*
X525930Y222222D02*
Y223403D01*
X330310Y261000D02*
X331490D01*
X330900Y260409D02*
Y261591D01*
X279676Y293167D02*
X280857D01*
X280267Y292577D02*
Y293758D01*
X257979Y196503D02*
X259160D01*
X258570Y195913D02*
Y197094D01*
X165870Y298101D02*
X167051D01*
X166460Y297511D02*
Y298692D01*
X510545Y358884D02*
X511727D01*
X511136Y358293D02*
Y359474D01*
X448024Y352934D02*
X449205D01*
X448615Y352344D02*
Y353525D01*
X24550Y384364D02*
X25731D01*
X25140Y383773D02*
Y384954D01*
X24988Y293708D02*
X26169D01*
X25579Y293118D02*
Y294299D01*
X280873Y359232D02*
X282054D01*
X281464Y358642D02*
Y359823D01*
X445071Y319569D02*
X446252D01*
X445661Y318979D02*
Y320160D01*
X441274Y319219D02*
X442455D01*
X441864Y318628D02*
Y319809D01*
X203822Y377413D02*
X205003D01*
X204413Y376822D02*
Y378004D01*
X349077Y95023D02*
X350258D01*
X349667Y94433D02*
Y95614D01*
X334420Y95023D02*
X335601D01*
X335011Y94433D02*
Y95614D01*
X477046Y235463D02*
X478227D01*
X477637Y234873D02*
Y236054D01*
X367534Y81634D02*
X368715D01*
X368125Y81043D02*
Y82225D01*
X316609Y71401D02*
X317791D01*
X317200Y70810D02*
Y71991D01*
X318362Y68448D02*
X319543D01*
X318953Y67857D02*
Y69039D01*
X286664Y78690D02*
X287845D01*
X287254Y78099D02*
Y79280D01*
X291664Y78690D02*
X292845D01*
X292254Y78099D02*
Y79280D01*
X295287Y82100D02*
X296468D01*
X295878Y81510D02*
Y82691D01*
X286664Y56052D02*
X287845D01*
X287254Y55462D02*
Y56643D01*
X47247Y121991D02*
X48428D01*
X47838Y121400D02*
Y122581D01*
X40109Y120300D02*
X41291D01*
X40700Y119709D02*
Y120891D01*
X55049Y253181D02*
X56230D01*
X55640Y252590D02*
Y253772D01*
X55049Y249976D02*
X56230D01*
X55640Y249385D02*
Y250566D01*
X256981Y305201D02*
X258162D01*
X257571Y304611D02*
Y305792D01*
X253918Y305201D02*
X255100D01*
X254509Y304611D02*
Y305792D01*
X417894Y292549D02*
X419075D01*
X418484Y291959D02*
Y293140D01*
X414621Y292660D02*
X415802D01*
X415211Y292070D02*
Y293251D01*
X418747Y289575D02*
X419929D01*
X419338Y288985D02*
Y290166D01*
X414911Y289538D02*
X416092D01*
X415502Y288947D02*
Y290128D01*
X227312Y340181D02*
X228493D01*
X227902Y339591D02*
Y340772D01*
X227165Y318519D02*
X228346D01*
X227755Y317928D02*
Y319109D01*
X141352Y378515D02*
X142533D01*
X141943Y377925D02*
Y379106D01*
X172656Y290820D02*
X173837D01*
X173247Y290230D02*
Y291411D01*
X193179Y306831D02*
X194360D01*
X193770Y306241D02*
Y307422D01*
X233809Y304975D02*
X234990D01*
X234400Y304385D02*
Y305566D01*
X412727Y297669D02*
X413908D01*
X413318Y297079D02*
Y298260D01*
X467888Y322886D02*
X469069D01*
X468479Y322295D02*
Y323476D01*
X467992Y326008D02*
X469173D01*
X468583Y325417D02*
Y326598D01*
X464382Y323022D02*
X465563D01*
X464972Y322432D02*
Y323613D01*
X475591Y323054D02*
X476772D01*
X476182Y322463D02*
Y323644D01*
X473110Y320983D02*
X474291D01*
X473701Y320392D02*
Y321573D01*
X527138Y110250D02*
X528320D01*
X527729Y109659D02*
Y110840D01*
X475170Y115868D02*
X476351D01*
X475760Y115278D02*
Y116459D01*
X15474Y93367D02*
X16655D01*
X16064Y92777D02*
Y93958D01*
X15474Y104981D02*
X16655D01*
X16064Y104391D02*
Y105572D01*
X11517Y205040D02*
X12698D01*
X12107Y204450D02*
Y205631D01*
X11517Y201978D02*
X12698D01*
X12107Y201388D02*
Y202569D01*
X244075Y293660D02*
X245256D01*
X244666Y293069D02*
Y294250D01*
X247138Y293660D02*
X248319D01*
X247728Y293069D02*
Y294250D01*
X295741Y408800D02*
X296922D01*
X296332Y408210D02*
Y409390D01*
X227209Y408000D02*
X228391D01*
X227800Y407409D02*
Y408591D01*
X176909Y354102D02*
X178091D01*
X177500Y353512D02*
Y354693D01*
X112207Y321162D02*
X113388D01*
X112798Y320571D02*
Y321753D01*
X112207Y276400D02*
X113388D01*
X112798Y275810D02*
Y276991D01*
X298803Y408800D02*
X299984D01*
X299394Y408210D02*
Y409390D01*
X227209Y411062D02*
X228391D01*
X227800Y410472D02*
Y411653D01*
X176909Y357165D02*
X178091D01*
X177500Y356574D02*
Y357755D01*
X109145Y321162D02*
X110326D01*
X109735Y320571D02*
Y321753D01*
X109145Y276400D02*
X110326D01*
X109735Y275810D02*
Y276991D01*
X138409Y187450D02*
X139591D01*
X139000Y186860D02*
Y188041D01*
X138409Y190712D02*
X139591D01*
X139000Y190122D02*
Y191303D01*
X32847Y190168D02*
X34028D01*
X33437Y189577D02*
Y190758D01*
X21083Y199844D02*
X22264D01*
X21673Y199253D02*
Y200434D01*
X21083Y196781D02*
X22264D01*
X21673Y196191D02*
Y197372D01*
X32436Y197800D02*
X33617D01*
X33027Y197210D02*
Y198391D01*
X11688Y193607D02*
X12869D01*
X12279Y193017D02*
Y194198D01*
X401409Y340285D02*
X402590D01*
X401999Y339694D02*
Y340875D01*
X367299Y36535D02*
X368480D01*
X367890Y35945D02*
Y37126D01*
X357309Y36535D02*
X358490D01*
X357900Y35945D02*
Y37126D01*
X36003Y102766D02*
X37184D01*
X36593Y102176D02*
Y103357D01*
X26902Y95819D02*
X28083D01*
X27493Y95229D02*
Y96410D01*
X21613Y95819D02*
X22794D01*
X22204Y95229D02*
Y96410D01*
X32149Y102659D02*
X33330D01*
X32740Y102069D02*
Y103250D01*
X41159Y101818D02*
X42340D01*
X41750Y101228D02*
Y102409D01*
X21613Y102659D02*
X22794D01*
X22204Y102069D02*
Y103250D01*
X26902Y102659D02*
X28083D01*
X27493Y102069D02*
Y103250D01*
X32149Y95819D02*
X33330D01*
X32740Y95229D02*
Y96410D01*
X41058Y112000D02*
X42239D01*
X41649Y111409D02*
Y112590D01*
X41058Y107285D02*
X42239D01*
X41649Y106694D02*
Y107875D01*
X36169Y95819D02*
X37351D01*
X36760Y95229D02*
Y96410D01*
X41412Y96692D02*
X42593D01*
X42003Y96102D02*
Y97283D01*
X45814Y99671D02*
X46995D01*
X46405Y99080D02*
Y100262D01*
X46312Y104963D02*
X47493D01*
X46903Y104372D02*
Y105553D01*
X46312Y110278D02*
X47493D01*
X46903Y109687D02*
Y110868D01*
X468614Y211500D02*
X469795D01*
X469205Y210910D02*
Y212091D01*
X316609Y77602D02*
X317791D01*
X317200Y77011D02*
Y78192D01*
X302849Y82688D02*
X304030D01*
X303440Y82098D02*
Y83279D01*
X297229Y36535D02*
X298410D01*
X297819Y35945D02*
Y37126D01*
X369592Y18040D02*
X370773D01*
X370183Y17450D02*
Y18631D01*
X372287Y19494D02*
X373468D01*
X372878Y18903D02*
Y20084D01*
X317194Y36651D02*
X318375D01*
X317784Y36061D02*
Y37242D01*
X307309Y36535D02*
X308490D01*
X307900Y35945D02*
Y37126D01*
X342265Y49000D02*
X343446D01*
X342856Y48410D02*
Y49591D01*
X337319Y36535D02*
X338500D01*
X337909Y35945D02*
Y37126D01*
X342296Y45663D02*
X343477D01*
X342886Y45072D02*
Y46253D01*
X342176Y55457D02*
X343357D01*
X342766Y54866D02*
Y56047D01*
X322922Y52150D02*
X324103D01*
X323513Y51559D02*
Y52740D01*
X322922Y55457D02*
X324103D01*
X323513Y54866D02*
Y56047D01*
X342265Y52150D02*
X343446D01*
X342856Y51559D02*
Y52740D01*
X322355Y22219D02*
X323536D01*
X322946Y21629D02*
Y22810D01*
X509815Y117577D02*
X510996D01*
X510406Y116986D02*
Y118167D01*
X492509Y103900D02*
X493690D01*
X493100Y103310D02*
Y104491D01*
X488186Y106689D02*
X489367D01*
X488777Y106098D02*
Y107280D01*
X490132Y124697D02*
X491314D01*
X490723Y124107D02*
Y125288D01*
X527023Y351684D02*
X528204D01*
X527614Y351094D02*
Y352275D01*
X527023Y348622D02*
X528204D01*
X527614Y348031D02*
Y349213D01*
X512959Y351226D02*
X514140D01*
X513549Y350636D02*
Y351817D01*
X522438Y352934D02*
X523619D01*
X523029Y352344D02*
Y353525D01*
X424278Y351238D02*
X425459D01*
X424869Y350648D02*
Y351829D01*
X424278Y348176D02*
X425459D01*
X424869Y347586D02*
Y348767D01*
X435513Y351238D02*
X436694D01*
X436104Y350648D02*
Y351829D01*
X437059Y358509D02*
X438240D01*
X437650Y357919D02*
Y359100D01*
X377927Y263919D02*
X379108D01*
X378518Y263328D02*
Y264510D01*
X378997Y293082D02*
X380178D01*
X379588Y292491D02*
Y293672D01*
X463471Y176981D02*
X464652D01*
X464062Y176391D02*
Y177572D01*
X405068Y289576D02*
X406250D01*
X405659Y288985D02*
Y290166D01*
X440809Y294334D02*
X441991D01*
X441400Y293743D02*
Y294924D01*
X438678Y297202D02*
X439859D01*
X439269Y296611D02*
Y297793D01*
X503573Y322082D02*
X504754D01*
X504164Y321491D02*
Y322673D01*
X498478Y351238D02*
X499659D01*
X499069Y350648D02*
Y351829D01*
X498478Y348176D02*
X499659D01*
X499069Y347586D02*
Y348767D01*
X497927Y341490D02*
X499108D01*
X498518Y340899D02*
Y342080D01*
X343923Y301714D02*
X345104D01*
X344514Y301123D02*
Y302304D01*
X362584Y299562D02*
X363766D01*
X363175Y298972D02*
Y300153D01*
X341744Y299562D02*
X342925D01*
X342335Y298972D02*
Y300153D01*
X422187Y295423D02*
X423368D01*
X422778Y294832D02*
Y296013D01*
X422091Y306883D02*
X423272D01*
X422682Y306292D02*
Y307473D01*
X395209Y229719D02*
X396391D01*
X395800Y229128D02*
Y230309D01*
X407391Y227300D02*
X408572D01*
X407981Y226710D02*
Y227891D01*
X208338Y258100D02*
X209519D01*
X208929Y257509D02*
Y258691D01*
X428403Y297714D02*
X429584D01*
X428994Y297124D02*
Y298305D01*
X425587Y298916D02*
X426768D01*
X426177Y298326D02*
Y299507D01*
X370709Y269900D02*
X371890D01*
X371300Y269309D02*
Y270491D01*
X414509Y273400D02*
X415691D01*
X415100Y272810D02*
Y273991D01*
X207909Y268519D02*
X209090D01*
X208500Y267928D02*
Y269110D01*
X217051Y307224D02*
X218232D01*
X217641Y306633D02*
Y307814D01*
X249981Y320019D02*
X251163D01*
X250572Y319428D02*
Y320609D01*
X516893Y251678D02*
X518075D01*
X517484Y251088D02*
Y252269D01*
X515313Y258818D02*
X516494D01*
X515904Y258228D02*
Y259409D01*
X130691Y346081D02*
X131872D01*
X131281Y345491D02*
Y346672D01*
X130691Y343019D02*
X131872D01*
X131281Y342428D02*
Y343609D01*
X216598Y329322D02*
X217779D01*
X217189Y328732D02*
Y329913D01*
X211171Y318078D02*
X212352D01*
X211762Y317487D02*
Y318668D01*
X207234Y318078D02*
X208415D01*
X207825Y317487D02*
Y318668D01*
X446395Y297502D02*
X447576D01*
X446986Y296911D02*
Y298093D01*
X366858Y407300D02*
X368039D01*
X367448Y406709D02*
Y407891D01*
X444230Y295337D02*
X445411D01*
X444820Y294746D02*
Y295927D01*
X363796Y407300D02*
X364977D01*
X364386Y406709D02*
Y407891D01*
X437625Y319803D02*
X438806D01*
X438215Y319212D02*
Y320393D01*
X260076Y303174D02*
X261257D01*
X260667Y302583D02*
Y303764D01*
X470491Y331344D02*
X471672D01*
X471082Y330753D02*
Y331935D01*
X470409Y328200D02*
X471591D01*
X471000Y327609D02*
Y328791D01*
X511994Y319755D02*
X513175D01*
X512584Y319164D02*
Y320345D01*
X515760Y319093D02*
X516941D01*
X516351Y318503D02*
Y319684D01*
X508163Y319704D02*
X509345D01*
X508754Y319113D02*
Y320295D01*
X502505Y319093D02*
X503686D01*
X503095Y318503D02*
Y319684D01*
X498795Y323486D02*
X499976D01*
X499386Y322895D02*
Y324077D01*
X494834Y323481D02*
X496015D01*
X495425Y322890D02*
Y324072D01*
X470409Y340749D02*
X471591D01*
X471000Y340159D02*
Y341340D01*
X418627Y299834D02*
X419808D01*
X419217Y299243D02*
Y300425D01*
X401351Y321058D02*
X402532D01*
X401941Y320467D02*
Y321648D01*
X544610Y331572D02*
X545791D01*
X545200Y330981D02*
Y332162D01*
X424602Y292996D02*
X425783D01*
X425192Y292405D02*
Y293586D01*
X435581Y307214D02*
X436762D01*
X436172Y306624D02*
Y307805D01*
X210901Y327983D02*
X212082D01*
X211491Y327392D02*
Y328573D01*
X477678Y369362D02*
X478859D01*
X478268Y368771D02*
Y369952D01*
X432414Y351734D02*
X433595D01*
X433005Y351144D02*
Y352325D01*
X428890Y346781D02*
X430071D01*
X429480Y346191D02*
Y347372D01*
X438576Y351238D02*
X439757D01*
X439166Y350648D02*
Y351829D01*
X400609Y268562D02*
X401791D01*
X401200Y267972D02*
Y269153D01*
X262688Y380359D02*
X263869D01*
X263279Y379768D02*
Y380949D01*
X254586Y379681D02*
X255767D01*
X255177Y379090D02*
Y380272D01*
X305571Y430400D02*
X306752D01*
X306161Y429810D02*
Y430991D01*
X287932Y430400D02*
X289113D01*
X288522Y429810D02*
Y430991D01*
X285409Y421145D02*
X286591D01*
X286000Y420555D02*
Y421736D01*
X262474Y361032D02*
X263655D01*
X263065Y360442D02*
Y361623D01*
X558439Y175921D02*
X559620D01*
X559030Y175331D02*
Y176512D01*
X564342Y183805D02*
X565523D01*
X564932Y183214D02*
Y184395D01*
X557409Y182254D02*
X558591D01*
X558000Y181663D02*
Y182844D01*
X552558Y179000D02*
X553739D01*
X553149Y178409D02*
Y179591D01*
X545958Y177392D02*
X547139D01*
X546548Y176802D02*
Y177983D01*
X539143Y177392D02*
X540324D01*
X539734Y176802D02*
Y177983D01*
X538799Y172138D02*
X539980D01*
X539389Y171548D02*
Y172729D01*
X545958Y172138D02*
X547139D01*
X546548Y171548D02*
Y172729D01*
X552558Y172138D02*
X553739D01*
X553149Y171548D02*
Y172729D01*
X564342Y178071D02*
X565523D01*
X564932Y177480D02*
Y178661D01*
X105559Y334579D02*
X106740D01*
X106150Y333988D02*
Y335169D01*
X99381Y334579D02*
X100562D01*
X99972Y333988D02*
Y335169D01*
X102470Y334579D02*
X103651D01*
X103061Y333988D02*
Y335169D01*
X89865Y331528D02*
X91046D01*
X90456Y330937D02*
Y332118D01*
X92784Y331528D02*
X93965D01*
X93375Y330937D02*
Y332118D01*
X92784Y327739D02*
X93965D01*
X93375Y327148D02*
Y328329D01*
X89865Y327739D02*
X91046D01*
X90456Y327148D02*
Y328329D01*
X301019Y399124D02*
X302200D01*
X301609Y398534D02*
Y399715D01*
X292231Y398004D02*
X293412D01*
X292821Y397413D02*
Y398594D01*
X204809Y337300D02*
X205991D01*
X205400Y336709D02*
Y337891D01*
X241910Y323600D02*
X243091D01*
X242500Y323009D02*
Y324190D01*
X200064Y328847D02*
X201245D01*
X200655Y328257D02*
Y329438D01*
X197874Y326707D02*
X199055D01*
X198464Y326117D02*
Y327298D01*
X206090Y327644D02*
X207272D01*
X206681Y327054D02*
Y328235D01*
X202345Y321360D02*
X203526D01*
X202936Y320769D02*
Y321951D01*
X387636Y321000D02*
X388817D01*
X388227Y320409D02*
Y321590D01*
X399070Y323426D02*
X400251D01*
X399660Y322836D02*
Y324017D01*
X379101Y351564D02*
X380282D01*
X379692Y350973D02*
Y352154D01*
X366649Y344743D02*
X367830D01*
X367240Y344153D02*
Y345334D01*
X458263Y340181D02*
X459444D01*
X458854Y339591D02*
Y340772D01*
X223410Y340181D02*
X224590D01*
X224000Y339591D02*
Y340772D01*
X375270Y340181D02*
X376451D01*
X375861Y339591D02*
Y340772D01*
X379216Y340181D02*
X380397D01*
X379806Y339591D02*
Y340772D01*
X462473Y343781D02*
X463654D01*
X463063Y343191D02*
Y344372D01*
X281012Y319503D02*
X282193D01*
X281603Y318912D02*
Y320093D01*
X506561Y351487D02*
X507742D01*
X507152Y350896D02*
Y352077D01*
X509903Y351428D02*
X511085D01*
X510494Y350837D02*
Y352019D01*
X335409Y360880D02*
X336591D01*
X336000Y360289D02*
Y361470D01*
X421204Y102902D02*
X422385D01*
X421795Y102311D02*
Y103492D01*
X452823Y348622D02*
X454004D01*
X453414Y348031D02*
Y349213D01*
X452823Y351684D02*
X454004D01*
X453414Y351094D02*
Y352275D01*
X531427Y315607D02*
X532608D01*
X532018Y315017D02*
Y316198D01*
X528365Y315607D02*
X529546D01*
X528956Y315017D02*
Y316198D01*
X524104Y309032D02*
X525285D01*
X524694Y308441D02*
Y309622D01*
X547806Y300130D02*
X548987D01*
X548397Y299539D02*
Y300720D01*
X547806Y297067D02*
X548987D01*
X548397Y296477D02*
Y297658D01*
X370312Y303774D02*
X371493D01*
X370903Y303184D02*
Y304365D01*
X370312Y306837D02*
X371493D01*
X370903Y306246D02*
Y307427D01*
X386356Y301809D02*
X387537D01*
X386947Y301218D02*
Y302399D01*
X380745Y300295D02*
X381926D01*
X381336Y299704D02*
Y300885D01*
X554573Y320689D02*
X555755D01*
X555164Y320099D02*
Y321280D01*
X554573Y323752D02*
X555755D01*
X555164Y323161D02*
Y324342D01*
X345564Y319100D02*
X346745D01*
X346155Y318510D02*
Y319690D01*
X342502Y319100D02*
X343683D01*
X343092Y318510D02*
Y319690D01*
X508248Y309719D02*
X509429D01*
X508838Y309128D02*
Y310310D01*
X516180Y309719D02*
X517361D01*
X516770Y309128D02*
Y310310D01*
X557573Y328297D02*
X558754D01*
X558164Y327707D02*
Y328888D01*
X553309Y329000D02*
X554491D01*
X553900Y328410D02*
Y329591D01*
X436552Y276496D02*
X437733D01*
X437142Y275905D02*
Y277086D01*
X442457Y276496D02*
X443639D01*
X443048Y275905D02*
Y277086D01*
X551335Y306035D02*
X552517D01*
X551926Y305445D02*
Y306626D01*
X359344Y319100D02*
X360525D01*
X359935Y318510D02*
Y319690D01*
X551335Y302973D02*
X552517D01*
X551926Y302382D02*
Y303563D01*
X356282Y319100D02*
X357463D01*
X356873Y318510D02*
Y319690D01*
X346439Y305800D02*
X347621D01*
X347030Y305209D02*
Y306391D01*
X349502Y305800D02*
X350683D01*
X350092Y305209D02*
Y306391D01*
X551335Y317846D02*
X552517D01*
X551926Y317255D02*
Y318437D01*
X551335Y314784D02*
X552517D01*
X551926Y314193D02*
Y315374D01*
X549005Y308878D02*
X550186D01*
X549595Y308288D02*
Y309469D01*
X549005Y311941D02*
X550186D01*
X549595Y311350D02*
Y312531D01*
X352345Y302900D02*
X353526D01*
X352936Y302309D02*
Y303490D01*
X355407Y302900D02*
X356588D01*
X355998Y302309D02*
Y303490D01*
X544610Y313200D02*
X545791D01*
X545200Y312610D02*
Y313790D01*
X267272Y363842D02*
X268453D01*
X267862Y363251D02*
Y364433D01*
X264210Y363842D02*
X265390D01*
X264800Y363251D02*
Y364433D01*
X331610Y304000D02*
X332790D01*
X332200Y303410D02*
Y304591D01*
X333775Y301835D02*
X334956D01*
X334365Y301244D02*
Y302425D01*
X228148Y374376D02*
X229329D01*
X228739Y373786D02*
Y374967D01*
X231211Y374376D02*
X232392D01*
X231801Y373786D02*
Y374967D01*
X281073Y351900D02*
X282255D01*
X281664Y351309D02*
Y352491D01*
X328723Y319100D02*
X329904D01*
X329313Y318510D02*
Y319690D01*
X195409Y366537D02*
X196591D01*
X196000Y365946D02*
Y367127D01*
X331785Y319100D02*
X332966D01*
X332376Y318510D02*
Y319690D01*
X195409Y363474D02*
X196591D01*
X196000Y362884D02*
Y364065D01*
X225810Y377300D02*
X226991D01*
X226400Y376710D02*
Y377890D01*
X190309Y372538D02*
X191491D01*
X190900Y371947D02*
Y373128D01*
X190309Y375600D02*
X191491D01*
X190900Y375009D02*
Y376190D01*
X327848Y301132D02*
X329029D01*
X328438Y300542D02*
Y301723D01*
X324785Y301132D02*
X325967D01*
X325376Y300542D02*
Y301723D01*
X233712Y354582D02*
X234893D01*
X234303Y353992D02*
Y355173D01*
X233564Y346719D02*
X234745D01*
X234154Y346128D02*
Y347309D01*
X238817Y346719D02*
X239998D01*
X239407Y346128D02*
Y347309D01*
X338409Y87345D02*
X339591D01*
X339000Y86754D02*
Y87935D01*
X338411Y83212D02*
X339592D01*
X339002Y82622D02*
Y83803D01*
X508405Y269926D02*
X509586D01*
X508996Y269336D02*
Y270517D01*
X515517Y275100D02*
X516698D01*
X516108Y274510D02*
Y275691D01*
X526248Y318462D02*
X527429D01*
X526838Y317872D02*
Y319053D01*
X429322Y270281D02*
X430503D01*
X429913Y269690D02*
Y270872D01*
X291224Y430400D02*
X292406D01*
X291815Y429810D02*
Y430991D01*
X285409Y427500D02*
X286591D01*
X286000Y426909D02*
Y428090D01*
X253044Y320019D02*
X254225D01*
X253634Y319428D02*
Y320609D01*
X294287Y430400D02*
X295468D01*
X294877Y429810D02*
Y430991D01*
X285409Y424438D02*
X286591D01*
X286000Y423847D02*
Y425028D01*
X262887Y318965D02*
X264068D01*
X263477Y318374D02*
Y319555D01*
X259824Y318965D02*
X261005D01*
X260415Y318374D02*
Y319555D01*
X297035Y420588D02*
X298216D01*
X297625Y419998D02*
Y421179D01*
X176009Y342900D02*
X177191D01*
X176600Y342309D02*
Y343491D01*
X272088Y359762D02*
X273269D01*
X272679Y359171D02*
Y360352D01*
X454609Y26400D02*
X455791D01*
X455200Y25809D02*
Y26991D01*
X469209Y30000D02*
X470391D01*
X469800Y29409D02*
Y30591D01*
X521059Y275100D02*
X522240D01*
X521650Y274510D02*
Y275691D01*
X530810Y319721D02*
X531991D01*
X531400Y319131D02*
Y320312D01*
X427695Y292981D02*
X428876D01*
X428285Y292390D02*
Y293572D01*
X535559Y285700D02*
X536740D01*
X536150Y285109D02*
Y286291D01*
X266009Y344700D02*
X267191D01*
X266600Y344110D02*
Y345290D01*
X312992Y344571D02*
X314173D01*
X313583Y343981D02*
Y345162D01*
X298720Y344441D02*
X299901D01*
X299310Y343851D02*
Y345032D01*
X41767Y296480D02*
X42949D01*
X42358Y295889D02*
Y297070D01*
X41767Y325877D02*
X42949D01*
X42358Y325287D02*
Y326468D01*
X41767Y311178D02*
X42949D01*
X42358Y310588D02*
Y311769D01*
X27564Y311178D02*
X28746D01*
X28155Y310588D02*
Y311769D01*
X27564Y325877D02*
X28746D01*
X28155Y325287D02*
Y326468D01*
X31130Y268136D02*
X32311D01*
X31720Y267545D02*
Y268726D01*
X46568Y265800D02*
X47749D01*
X47159Y265210D02*
Y266391D01*
X43615Y265800D02*
X44796D01*
X44205Y265210D02*
Y266391D01*
X40690Y268704D02*
X41872D01*
X41281Y268114D02*
Y269295D01*
X40690Y271658D02*
X41872D01*
X41281Y271067D02*
Y272249D01*
X40690Y274612D02*
X41871D01*
X41281Y274021D02*
Y275202D01*
X46416Y227494D02*
X47597D01*
X47006Y226903D02*
Y228084D01*
X488209Y203808D02*
X489391D01*
X488800Y203218D02*
Y204399D01*
X492587Y203759D02*
X493768D01*
X493177Y203168D02*
Y204349D01*
X490410Y208700D02*
X491590D01*
X491000Y208109D02*
Y209291D01*
X483784Y203808D02*
X484965D01*
X484375Y203218D02*
Y204399D01*
X472700Y205126D02*
X473881D01*
X473290Y204536D02*
Y205717D01*
X461941Y209163D02*
X463122D01*
X462531Y208572D02*
Y209753D01*
X464845Y206172D02*
X466026D01*
X465435Y205581D02*
Y206762D01*
X481210Y235600D02*
X482390D01*
X481800Y235010D02*
Y236191D01*
X32436Y202259D02*
X33617D01*
X33027Y201668D02*
Y202849D01*
X25859Y207289D02*
X27040D01*
X26450Y206698D02*
Y207879D01*
X39976Y197928D02*
X41157D01*
X40567Y197337D02*
Y198518D01*
X39976Y194866D02*
X41157D01*
X40567Y194275D02*
Y195456D01*
X49377Y213243D02*
X50558D01*
X49967Y212652D02*
Y213833D01*
X55130Y218056D02*
X56311D01*
X55721Y217465D02*
Y218646D01*
X55130Y221261D02*
X56311D01*
X55721Y220670D02*
Y221851D01*
X51925Y221261D02*
X53106D01*
X52516Y220670D02*
Y221851D01*
X51925Y218056D02*
X53106D01*
X52516Y217465D02*
Y218646D01*
X55130Y224466D02*
X56311D01*
X55721Y223875D02*
Y225057D01*
X394409Y216900D02*
X395590D01*
X395000Y216309D02*
Y217491D01*
X29375Y257349D02*
X30556D01*
X29966Y256758D02*
Y257939D01*
X32580Y257349D02*
X33762D01*
X33171Y256758D02*
Y257939D01*
X35785Y257349D02*
X36966D01*
X36376Y256758D02*
Y257939D01*
X29375Y260992D02*
X30556D01*
X29966Y260402D02*
Y261583D01*
X32580Y260992D02*
X33762D01*
X33171Y260402D02*
Y261583D01*
X35785Y260992D02*
X36966D01*
X36376Y260402D02*
Y261583D01*
X334310Y269900D02*
X335490D01*
X334900Y269309D02*
Y270491D01*
X49377Y209355D02*
X50558D01*
X49967Y208765D02*
Y209946D01*
X45588Y209355D02*
X46769D01*
X46178Y208765D02*
Y209946D01*
X41813Y213243D02*
X42994D01*
X42404Y212652D02*
Y213833D01*
X41799Y209355D02*
X42980D01*
X42390Y208765D02*
Y209946D01*
X38024Y213243D02*
X39205D01*
X38615Y212652D02*
Y213833D01*
X38010Y209355D02*
X39191D01*
X38601Y208765D02*
Y209946D01*
X45602Y213243D02*
X46783D01*
X46193Y212652D02*
Y213833D01*
X66745Y263267D02*
X67926D01*
X67335Y262677D02*
Y263858D01*
X70534Y263267D02*
X71715D01*
X71124Y262677D02*
Y263858D01*
X78126Y259380D02*
X79307D01*
X78716Y258789D02*
Y259970D01*
X78111Y263267D02*
X79292D01*
X78702Y262677D02*
Y263858D01*
X74337Y259380D02*
X75518D01*
X74927Y258789D02*
Y259970D01*
X74322Y263267D02*
X75503D01*
X74913Y262677D02*
Y263858D01*
X70548Y259380D02*
X71729D01*
X71138Y258789D02*
Y259970D01*
X145025Y342169D02*
X146206D01*
X145615Y341579D02*
Y342760D01*
X123601Y370785D02*
X124782D01*
X124192Y370195D02*
Y371376D01*
X119109Y368400D02*
X120291D01*
X119700Y367810D02*
Y368990D01*
X114009Y360800D02*
X115190D01*
X114600Y360209D02*
Y361391D01*
X65638Y315775D02*
X66819D01*
X66229Y315185D02*
Y316366D01*
X69427Y315775D02*
X70608D01*
X70017Y315185D02*
Y316366D01*
X69413Y311888D02*
X70594D01*
X70003Y311297D02*
Y312478D01*
X65624Y311888D02*
X66805D01*
X66214Y311297D02*
Y312478D01*
X69398Y308000D02*
X70579D01*
X69989Y307410D02*
Y308591D01*
X65610Y308000D02*
X66790D01*
X66200Y307410D02*
Y308591D01*
X55582Y360051D02*
X56763D01*
X56172Y359460D02*
Y360642D01*
X57766Y351506D02*
X58947D01*
X58356Y350915D02*
Y352096D01*
X57751Y347618D02*
X58932D01*
X58342Y347028D02*
Y348209D01*
X22169Y388600D02*
X23350D01*
X22759Y388010D02*
Y389191D01*
X34109Y364219D02*
X35291D01*
X34700Y363629D02*
Y364810D01*
X2412Y405512D02*
X3593D01*
X3003Y404921D02*
Y406102D01*
X5450Y395500D02*
X6631D01*
X6041Y394910D02*
Y396091D01*
X2412Y400299D02*
X3593D01*
X3003Y399708D02*
Y400889D01*
X19787Y392405D02*
X20968D01*
X20378Y391815D02*
Y392996D01*
X18210Y400400D02*
X19390D01*
X18800Y399810D02*
Y400990D01*
X141748Y318606D02*
X142929D01*
X142338Y318016D02*
Y319197D01*
X132809Y328063D02*
X133991D01*
X133400Y327472D02*
Y328654D01*
X123601Y381500D02*
X124782D01*
X124192Y380909D02*
Y382091D01*
X404956Y306613D02*
X406137D01*
X405547Y306023D02*
Y307204D01*
X190309Y378663D02*
X191491D01*
X190900Y378073D02*
Y379254D01*
X257445Y377500D02*
X258626D01*
X258035Y376909D02*
Y378091D01*
X299216Y430400D02*
X300397D01*
X299807Y429810D02*
Y430991D01*
X260507Y377500D02*
X261688D01*
X261098Y376909D02*
Y378091D01*
X302278Y430400D02*
X303459D01*
X302869Y429810D02*
Y430991D01*
X274309Y293500D02*
X275490D01*
X274900Y292910D02*
Y294091D01*
X276475Y291335D02*
X277656D01*
X277065Y290744D02*
Y291925D01*
X274785Y365785D02*
X275966D01*
X275375Y365195D02*
Y366376D01*
X274785Y362723D02*
X275966D01*
X275375Y362133D02*
Y363314D01*
X190309Y369474D02*
X191491D01*
X190900Y368884D02*
Y370065D01*
X105148Y308800D02*
X106329D01*
X105739Y308209D02*
Y309391D01*
X106098Y304024D02*
X107279D01*
X106689Y303433D02*
Y304614D01*
X232909Y405800D02*
X234090D01*
X233500Y405209D02*
Y406391D01*
X447066Y301935D02*
X448247D01*
X447657Y301344D02*
Y302525D01*
X449231Y304100D02*
X450412D01*
X449822Y303509D02*
Y304691D01*
X367141Y350813D02*
X368322D01*
X367731Y350223D02*
Y351404D01*
X364078Y350813D02*
X365259D01*
X364669Y350223D02*
Y351404D01*
X123601Y350403D02*
X124782D01*
X124192Y349813D02*
Y350994D01*
X105009Y230100D02*
X106191D01*
X105600Y229509D02*
Y230691D01*
X195409Y369600D02*
X196591D01*
X196000Y369009D02*
Y370191D01*
X238636Y343566D02*
X239817D01*
X239227Y342976D02*
Y344157D01*
X278942Y341232D02*
X280124D01*
X279533Y340642D02*
Y341823D01*
X315510Y318600D02*
X316690D01*
X316100Y318009D02*
Y319191D01*
X255423Y357740D02*
X256604D01*
X256014Y357149D02*
Y358330D01*
X195409Y360411D02*
X196591D01*
X196000Y359821D02*
Y361002D01*
X225809Y351455D02*
X226991D01*
X226400Y350865D02*
Y352046D01*
X206509Y340800D02*
X207691D01*
X207100Y340210D02*
Y341390D01*
X333232Y344500D02*
X334413D01*
X333823Y343910D02*
Y345091D01*
X211148Y401653D02*
X212329D01*
X211739Y401062D02*
Y402244D01*
X180691Y410448D02*
X181872D01*
X181282Y409857D02*
Y411038D01*
X404617Y61118D02*
X405798D01*
X405208Y60527D02*
Y61708D01*
X390966Y69400D02*
X392146D01*
X391556Y68809D02*
Y69990D01*
X393884Y69400D02*
X395065D01*
X394475Y68809D02*
Y69990D01*
X388047Y69400D02*
X389228D01*
X388637Y68809D02*
Y69990D01*
X393884Y65611D02*
X395065D01*
X394475Y65021D02*
Y66202D01*
X390966Y65611D02*
X392146D01*
X391556Y65021D02*
Y66202D01*
X385128Y69400D02*
X386309D01*
X385719Y68809D02*
Y69990D01*
X382209Y69400D02*
X383390D01*
X382800Y68809D02*
Y69990D01*
X388047Y65611D02*
X389228D01*
X388637Y65021D02*
Y66202D01*
X382209Y65611D02*
X383390D01*
X382800Y65021D02*
Y66202D01*
X385128Y65611D02*
X386309D01*
X385719Y65021D02*
Y66202D01*
X429995Y18604D02*
X431176D01*
X430585Y18013D02*
Y19194D01*
X78317Y324150D02*
X79498D01*
X78908Y323559D02*
Y324741D01*
X74114Y324150D02*
X75296D01*
X74705Y323559D02*
Y324741D01*
X44585Y347618D02*
X45766D01*
X45175Y347028D02*
Y348209D01*
X48974Y347618D02*
X50155D01*
X49564Y347028D02*
Y348209D01*
X53362Y347618D02*
X54543D01*
X53953Y347028D02*
Y348209D01*
X44599Y351506D02*
X45780D01*
X45189Y350915D02*
Y352096D01*
X48988Y351506D02*
X50169D01*
X49578Y350915D02*
Y352096D01*
X53377Y351506D02*
X54558D01*
X53967Y350915D02*
Y352096D01*
X50788Y390666D02*
X51969D01*
X51379Y390076D02*
Y391257D01*
X56143Y390666D02*
X57324D01*
X56734Y390076D02*
Y391257D01*
X66854Y390666D02*
X68035D01*
X67444Y390076D02*
Y391257D01*
X50966Y395055D02*
X52147D01*
X51557Y394465D02*
Y395646D01*
X56321Y395055D02*
X57502D01*
X56912Y394465D02*
Y395646D01*
X66854Y395055D02*
X68035D01*
X67444Y394465D02*
Y395646D01*
X61676Y395055D02*
X62857D01*
X62267Y394465D02*
Y395646D01*
X61498Y399444D02*
X62680D01*
X62089Y398853D02*
Y400035D01*
X66854Y399444D02*
X68035D01*
X67444Y398853D02*
Y400035D01*
X56143Y399444D02*
X57324D01*
X56734Y398853D02*
Y400035D01*
X50788Y399444D02*
X51969D01*
X51379Y398853D02*
Y400035D01*
X357153Y362124D02*
X358334D01*
X357744Y361533D02*
Y362714D01*
X374266Y362224D02*
X375447D01*
X374856Y361633D02*
Y362814D01*
X358109Y322975D02*
X359290D01*
X358699Y322385D02*
Y323566D01*
X425034Y355453D02*
X426215D01*
X425625Y354862D02*
Y356043D01*
X161919Y300019D02*
X163100D01*
X162509Y299429D02*
Y300610D01*
X177309Y253200D02*
X178491D01*
X177900Y252609D02*
Y253790D01*
X177309Y238300D02*
X178491D01*
X177900Y237709D02*
Y238891D01*
X157409Y276426D02*
X158591D01*
X158000Y275836D02*
Y277017D01*
X69096Y287530D02*
X70277D01*
X69686Y286940D02*
Y288121D01*
X66177Y287530D02*
X67358D01*
X66767Y286940D02*
Y288121D01*
X69096Y291161D02*
X70277D01*
X69686Y290570D02*
Y291751D01*
X66177Y291161D02*
X67358D01*
X66768Y290570D02*
Y291751D01*
X77852Y287530D02*
X79033D01*
X78442Y286940D02*
Y288121D01*
X74933Y287530D02*
X76114D01*
X75524Y286940D02*
Y288121D01*
X72014Y287530D02*
X73195D01*
X72605Y286940D02*
Y288121D01*
X77852Y291161D02*
X79033D01*
X78442Y290570D02*
Y291751D01*
X74933Y291161D02*
X76114D01*
X75524Y290570D02*
Y291751D01*
X72014Y291161D02*
X73195D01*
X72605Y290570D02*
Y291751D01*
X429936Y319081D02*
X431117D01*
X430526Y318491D02*
Y319672D01*
X429555Y322200D02*
X430736D01*
X430145Y321609D02*
Y322791D01*
X217140Y401653D02*
X218321D01*
X217730Y401062D02*
Y402244D01*
X223045Y401653D02*
X224226D01*
X223636Y401062D02*
Y402244D01*
X228951Y401653D02*
X230132D01*
X229541Y401062D02*
Y402244D01*
X136609Y290700D02*
X137791D01*
X137200Y290109D02*
Y291290D01*
X139710Y300019D02*
X140891D01*
X140300Y299429D02*
Y300610D01*
X503010Y66500D02*
X504190D01*
X503600Y65909D02*
Y67090D01*
X107910Y362154D02*
X109091D01*
X108500Y361564D02*
Y362745D01*
X474409Y339718D02*
X475591D01*
X475000Y339127D02*
Y340309D01*
X475410Y344151D02*
X476590D01*
X476000Y343560D02*
Y344741D01*
X442510Y341900D02*
X443690D01*
X443100Y341309D02*
Y342491D01*
X571898Y348739D02*
X573079D01*
X572489Y348149D02*
Y349330D01*
X494334Y242440D02*
X495515D01*
X494924Y241850D02*
Y243031D01*
X517217Y236024D02*
X518398D01*
X517807Y235434D02*
Y236615D01*
X515717Y239317D02*
X516898D01*
X516308Y238727D02*
Y239908D01*
X584438Y331669D02*
X585619D01*
X585028Y331079D02*
Y332260D01*
X585885Y326890D02*
X587066D01*
X586475Y326300D02*
Y327481D01*
X585885Y309498D02*
X587066D01*
X586475Y308907D02*
Y310088D01*
X4711Y195949D02*
X5892D01*
X5302Y195359D02*
Y196540D01*
X123964Y356680D02*
X125145D01*
X124555Y356090D02*
Y357271D01*
X161049Y276271D02*
X162230D01*
X161639Y275681D02*
Y276862D01*
X224943Y227800D02*
X226124D01*
X225533Y227209D02*
Y228391D01*
X509709Y259600D02*
X510890D01*
X510300Y259010D02*
Y260191D01*
X495075Y261619D02*
X496256D01*
X495666Y261029D02*
Y262210D01*
X162409Y349320D02*
X163591D01*
X163000Y348729D02*
Y349911D01*
X153809Y363700D02*
X154991D01*
X154400Y363109D02*
Y364290D01*
X214711Y292671D02*
X215892D01*
X215301Y292080D02*
Y293261D01*
X212143Y290431D02*
X213324D01*
X212733Y289841D02*
Y291022D01*
X175209Y402300D02*
X176391D01*
X175800Y401710D02*
Y402890D01*
X177709Y405797D02*
X178891D01*
X178300Y405206D02*
Y406387D01*
X345885Y351994D02*
X347066D01*
X346475Y351404D02*
Y352585D01*
X267009Y322300D02*
X268191D01*
X267600Y321709D02*
Y322890D01*
X268258Y318078D02*
X269440D01*
X268849Y317487D02*
Y318668D01*
X200309Y258400D02*
X201491D01*
X200900Y257809D02*
Y258991D01*
X206057Y262979D02*
X207238D01*
X206648Y262389D02*
Y263570D01*
X253959Y276350D02*
X255140D01*
X254550Y275760D02*
Y276940D01*
X320110Y290400D02*
X321290D01*
X320700Y289809D02*
Y290990D01*
X316486Y289575D02*
X317667D01*
X317077Y288985D02*
Y290166D01*
X322909Y293700D02*
X324091D01*
X323500Y293109D02*
Y294290D01*
X435516Y297202D02*
X436697D01*
X436106Y296611D02*
Y297793D01*
X201186Y297400D02*
X202367D01*
X201777Y296810D02*
Y297991D01*
X209289Y297400D02*
X210470D01*
X209880Y296810D02*
Y297991D01*
X297210Y318078D02*
X298391D01*
X297800Y317487D02*
Y318668D01*
X479181Y320729D02*
X480362D01*
X479771Y320138D02*
Y321319D01*
X449710Y85300D02*
X450890D01*
X450300Y84710D02*
Y85891D01*
X362509Y163400D02*
X363690D01*
X363100Y162809D02*
Y163991D01*
X362610Y321600D02*
X363790D01*
X363200Y321009D02*
Y322190D01*
X392231Y300295D02*
X393412D01*
X392822Y299704D02*
Y300885D01*
X481680Y302500D02*
X482861D01*
X482270Y301909D02*
Y303091D01*
X140809Y356500D02*
X141991D01*
X141400Y355909D02*
Y357090D01*
X136889Y328063D02*
X138070D01*
X137480Y327472D02*
Y328654D01*
X147906Y330224D02*
X149087D01*
X148496Y329634D02*
Y330815D01*
X479605Y348176D02*
X480786D01*
X480196Y347586D02*
Y348767D01*
X381139Y319506D02*
X382320D01*
X381730Y318916D02*
Y320096D01*
X460891Y319481D02*
X462072D01*
X461481Y318891D02*
Y320072D01*
X269210Y241419D02*
X270391D01*
X269800Y240828D02*
Y242009D01*
X407914Y295319D02*
X409095D01*
X408505Y294728D02*
Y295910D01*
X359344Y302900D02*
X360525D01*
X359935Y302309D02*
Y303490D01*
X342502Y305800D02*
X343683D01*
X343092Y305209D02*
Y306391D01*
X479220Y242014D02*
X480402D01*
X479811Y241423D02*
Y242604D01*
X310610Y254738D02*
X311790D01*
X311200Y254147D02*
Y255328D01*
X435315Y270281D02*
X436496D01*
X435906Y269690D02*
Y270872D01*
X475178Y263500D02*
X476359D01*
X475769Y262910D02*
Y264090D01*
X263762Y305201D02*
X264944D01*
X264353Y304611D02*
Y305792D01*
X266825Y305201D02*
X268006D01*
X267415Y304611D02*
Y305792D01*
X291179Y291143D02*
X292360D01*
X291770Y290553D02*
Y291734D01*
X289009Y277100D02*
X290191D01*
X289600Y276509D02*
Y277691D01*
X292852Y277100D02*
X294033D01*
X293443Y276509D02*
Y277691D01*
X230709Y302662D02*
X231891D01*
X231300Y302072D02*
Y303253D01*
X230741Y299592D02*
X231922D01*
X231331Y299002D02*
Y300183D01*
X230667Y296531D02*
X231849D01*
X231258Y295941D02*
Y297122D01*
X141309Y371100D02*
X142491D01*
X141900Y370510D02*
Y371691D01*
X380410Y234800D02*
X381591D01*
X381000Y234209D02*
Y235390D01*
X377927Y247900D02*
X379108D01*
X378518Y247309D02*
Y248491D01*
X371810Y238000D02*
X372990D01*
X372400Y237409D02*
Y238591D01*
X224943Y236681D02*
X226124D01*
X225533Y236090D02*
Y237272D01*
X307604Y236681D02*
X308785D01*
X308194Y236090D02*
Y237272D01*
X377927Y227300D02*
X379108D01*
X378518Y226710D02*
Y227891D01*
X300009Y292700D02*
X301190D01*
X300600Y292109D02*
Y293290D01*
X168834Y278239D02*
X170015D01*
X169425Y277649D02*
Y278830D01*
X189482Y297400D02*
X190663D01*
X190072Y296810D02*
Y297991D01*
X196395Y292671D02*
X197576D01*
X196985Y292080D02*
Y293261D01*
X193383Y297400D02*
X194564D01*
X193974Y296810D02*
Y297991D01*
X509846Y255831D02*
X511027D01*
X510436Y255241D02*
Y256421D01*
X498212Y255946D02*
X499393D01*
X498803Y255355D02*
Y256536D01*
X521263Y252836D02*
X522444D01*
X521854Y252245D02*
Y253427D01*
X251209Y257400D02*
X252391D01*
X251800Y256809D02*
Y257991D01*
X562210Y210600D02*
X563390D01*
X562800Y210010D02*
Y211191D01*
X565610Y210600D02*
X566790D01*
X566200Y210010D02*
Y211191D01*
X543509Y275100D02*
X544691D01*
X544100Y274510D02*
Y275691D01*
X539609Y275100D02*
X540791D01*
X540200Y274510D02*
Y275691D01*
X508110Y415953D02*
X509291D01*
X508700Y415362D02*
Y416543D01*
X430413Y410833D02*
X431594D01*
X431004Y410242D02*
Y411423D01*
X395853Y300811D02*
X397035D01*
X396444Y300220D02*
Y301401D01*
X397909Y294324D02*
X399091D01*
X398500Y293733D02*
Y294914D01*
X402104Y294224D02*
X403285D01*
X402695Y293633D02*
Y294814D01*
X396281Y307313D02*
X397462D01*
X396871Y306722D02*
Y307903D01*
X393541Y291857D02*
X394722D01*
X394132Y291266D02*
Y292447D01*
X389308Y293000D02*
X390489D01*
X389899Y292409D02*
Y293591D01*
X391315Y319506D02*
X392496D01*
X391906Y318916D02*
Y320096D01*
X500564Y382484D02*
X501745D01*
X501155Y381893D02*
Y383074D01*
X540806Y323139D02*
X541987D01*
X541396Y322548D02*
Y323729D01*
X544610Y341449D02*
X545791D01*
X545200Y340859D02*
Y342040D01*
X482121Y324443D02*
X483302D01*
X482711Y323853D02*
Y325034D01*
X484460Y309700D02*
X485641D01*
X485050Y309109D02*
Y310291D01*
X341309Y362400D02*
X342491D01*
X341900Y361809D02*
Y362990D01*
X283009Y289881D02*
X284190D01*
X283600Y289290D02*
Y290471D01*
X375853Y293000D02*
X377034D01*
X376444Y292409D02*
Y293591D01*
X378482Y321100D02*
X379663D01*
X379073Y320510D02*
Y321691D01*
X434078Y319769D02*
X435259D01*
X434668Y319179D02*
Y320360D01*
X517186Y334263D02*
X518367D01*
X517776Y333673D02*
Y334854D01*
X513186Y334263D02*
X514367D01*
X513776Y333673D02*
Y334854D01*
X509068Y334176D02*
X510249D01*
X509658Y333586D02*
Y334767D01*
X209010Y383600D02*
X210191D01*
X209600Y383010D02*
Y384191D01*
X481798Y293390D02*
X482979D01*
X482388Y292799D02*
Y293980D01*
X489022Y293390D02*
X490203D01*
X489613Y292799D02*
Y293980D01*
X470010Y275600D02*
X471191D01*
X470600Y275009D02*
Y276190D01*
X499007Y275081D02*
X500188D01*
X499597Y274490D02*
Y275672D01*
X474409Y333000D02*
X475591D01*
X475000Y332410D02*
Y333591D01*
X143383Y301048D02*
X144564D01*
X143973Y300458D02*
Y301639D01*
X143988Y297111D02*
X145169D01*
X144578Y296520D02*
Y297702D01*
X141209Y266700D02*
X142391D01*
X141800Y266109D02*
Y267290D01*
X136640Y277662D02*
X137821D01*
X137231Y277071D02*
Y278252D01*
X133892Y277662D02*
X135073D01*
X134483Y277071D02*
Y278252D01*
X142260Y304000D02*
X143441D01*
X142851Y303410D02*
Y304591D01*
X153762Y306500D02*
X154943D01*
X154353Y305909D02*
Y307091D01*
X153209Y293400D02*
X154391D01*
X153800Y292810D02*
Y293990D01*
X153266Y300019D02*
X154447D01*
X153856Y299429D02*
Y300610D01*
X156729Y318548D02*
X157910D01*
X157320Y317958D02*
Y319139D01*
X188709Y331300D02*
X189891D01*
X189300Y330710D02*
Y331891D01*
X188612Y327323D02*
X189793D01*
X189202Y326732D02*
Y327914D01*
X177143Y328063D02*
X178324D01*
X177734Y327472D02*
Y328654D01*
X490341Y355456D02*
X491522D01*
X490931Y354866D02*
Y356047D01*
X490510Y366500D02*
X491690D01*
X491100Y365910D02*
Y367091D01*
X535557Y350277D02*
X536738D01*
X536148Y349686D02*
Y350867D01*
X541096Y347415D02*
X542277D01*
X541687Y346824D02*
Y348005D01*
X584438Y351354D02*
X585619D01*
X585028Y350764D02*
Y351945D01*
X542090Y325919D02*
X543271D01*
X542680Y325328D02*
Y326509D01*
X498310Y309700D02*
X499490D01*
X498900Y309109D02*
Y310291D01*
X262734Y274300D02*
X263915D01*
X263324Y273710D02*
Y274891D01*
X241809Y270800D02*
X242990D01*
X242400Y270210D02*
Y271391D01*
X239209Y273100D02*
X240390D01*
X239800Y272510D02*
Y273691D01*
X302509Y264000D02*
X303691D01*
X303100Y263409D02*
Y264591D01*
X230843Y293474D02*
X232024D01*
X231434Y292883D02*
Y294065D01*
X235910Y275700D02*
X237090D01*
X236500Y275110D02*
Y276290D01*
X397909Y271800D02*
X399091D01*
X398500Y271210D02*
Y272391D01*
X555053Y313128D02*
X556235D01*
X555644Y312537D02*
Y313718D01*
X544512Y334632D02*
X545693D01*
X545103Y334042D02*
Y335223D01*
X548146Y336830D02*
X549327D01*
X548736Y336240D02*
Y337421D01*
X405209Y261800D02*
X406390D01*
X405800Y261210D02*
Y262390D01*
X412631Y306613D02*
X413812D01*
X413222Y306023D02*
Y307204D01*
X404040Y318484D02*
X405222D01*
X404631Y317893D02*
Y319074D01*
X415864Y306538D02*
X417045D01*
X416454Y305947D02*
Y307128D01*
X513632Y242625D02*
X514813D01*
X514223Y242035D02*
Y243216D01*
X549868Y262304D02*
X551050D01*
X550459Y261714D02*
Y262895D01*
X577682Y380950D02*
X578863D01*
X578273Y380360D02*
Y381541D01*
X405715Y410479D02*
X406896D01*
X406306Y409889D02*
Y411070D01*
X447715Y410479D02*
X448897D01*
X448306Y409889D02*
Y411070D01*
X472206Y410853D02*
X473387D01*
X472797Y410263D02*
Y411444D01*
X479906Y410443D02*
X481087D01*
X480497Y409853D02*
Y411034D01*
X504406Y410720D02*
X505587D01*
X504997Y410130D02*
Y411311D01*
X521906Y410443D02*
X523087D01*
X522497Y409853D02*
Y411034D01*
X546906Y410820D02*
X548087D01*
X547497Y410230D02*
Y411411D01*
X510564Y382484D02*
X511745D01*
X511155Y381893D02*
Y383074D01*
X520564Y382484D02*
X521745D01*
X521155Y381893D02*
Y383074D01*
X530564Y382484D02*
X531745D01*
X531155Y381893D02*
Y383074D01*
X456571Y382484D02*
X457752D01*
X457162Y381893D02*
Y383074D01*
X446571Y382484D02*
X447752D01*
X447162Y381893D02*
Y383074D01*
X436571Y382484D02*
X437752D01*
X437162Y381893D02*
Y383074D01*
X426571Y382484D02*
X427752D01*
X427162Y381893D02*
Y383074D01*
X464855Y352136D02*
X466036D01*
X465446Y351545D02*
Y352726D01*
X470409Y345993D02*
X471591D01*
X471000Y345403D02*
Y346584D01*
X238610Y387200D02*
X239791D01*
X239200Y386610D02*
Y387790D01*
X203676Y380200D02*
X204857D01*
X204267Y379609D02*
Y380790D01*
X527113Y207935D02*
X528294D01*
X527704Y207344D02*
Y208525D01*
X486960Y242014D02*
X488141D01*
X487551Y241423D02*
Y242604D01*
X289009Y253600D02*
X290191D01*
X289600Y253010D02*
Y254190D01*
X321110Y253400D02*
X322290D01*
X321700Y252810D02*
Y253991D01*
X494909Y216900D02*
X496091D01*
X495500Y216309D02*
Y217491D01*
X573109Y257241D02*
X574291D01*
X573700Y256651D02*
Y257832D01*
X552492Y281697D02*
X553673D01*
X553083Y281106D02*
Y282288D01*
X549029Y333047D02*
X550211D01*
X549620Y332457D02*
Y333638D01*
X365692Y293000D02*
X366873D01*
X366283Y292409D02*
Y293591D01*
X523102Y319769D02*
X524283D01*
X523692Y319179D02*
Y320360D01*
X488536Y275843D02*
X489717D01*
X489127Y275253D02*
Y276434D01*
X488465Y319612D02*
X489646D01*
X489055Y319022D02*
Y320203D01*
X485621Y328231D02*
X486802D01*
X486212Y327641D02*
Y328822D01*
X423627Y341770D02*
X424808D01*
X424218Y341179D02*
Y342360D01*
X413216Y322516D02*
X414397D01*
X413806Y321926D02*
Y323107D01*
X414446Y319712D02*
X415627D01*
X415036Y319122D02*
Y320303D01*
X519371Y319669D02*
X520552D01*
X519961Y319078D02*
Y320260D01*
X554950Y341334D02*
X556131D01*
X555541Y340743D02*
Y341925D01*
X554950Y345462D02*
X556131D01*
X555541Y344871D02*
Y346052D01*
X350935Y318177D02*
X352116D01*
X351526Y317587D02*
Y318768D01*
X584438Y320646D02*
X585619D01*
X585028Y320055D02*
Y321236D01*
X584438Y323795D02*
X585619D01*
X585028Y323205D02*
Y324386D01*
X584438Y335016D02*
X585619D01*
X585028Y334425D02*
Y335606D01*
X584438Y347417D02*
X585619D01*
X585028Y346827D02*
Y348008D01*
X574801Y347763D02*
X575982D01*
X575391Y347172D02*
Y348354D01*
X571680Y352138D02*
X572861D01*
X572271Y351548D02*
Y352729D01*
X585885Y344283D02*
X587066D01*
X586475Y343692D02*
Y344873D01*
X454138Y345856D02*
X455319D01*
X454728Y345266D02*
Y346447D01*
X527023Y345334D02*
X528204D01*
X527614Y344743D02*
Y345924D01*
X503090Y346387D02*
X504271D01*
X503681Y345797D02*
Y346978D01*
X330265Y289575D02*
X331446D01*
X330856Y288985D02*
Y290166D01*
X326328Y289575D02*
X327509D01*
X326919Y288985D02*
Y290166D01*
X373572Y289575D02*
X374753D01*
X374163Y288985D02*
Y290166D01*
X223658Y295274D02*
X224839D01*
X224248Y294684D02*
Y295865D01*
X184064Y291351D02*
X185245D01*
X184654Y290761D02*
Y291942D01*
X169223Y298550D02*
X170404D01*
X169814Y297959D02*
Y299141D01*
X190509Y292400D02*
X191691D01*
X191100Y291810D02*
Y292990D01*
X181927Y294100D02*
X183108D01*
X182517Y293510D02*
Y294690D01*
X182910Y306883D02*
X184091D01*
X183500Y306292D02*
Y307473D01*
X431087Y295958D02*
X432268D01*
X431678Y295367D02*
Y296549D01*
X416915Y323640D02*
X418096D01*
X417505Y323050D02*
Y324231D01*
X420634Y323581D02*
X421815D01*
X421224Y322990D02*
Y324172D01*
X424595Y323676D02*
X425776D01*
X425186Y323085D02*
Y324267D01*
X375272Y323676D02*
X376453D01*
X375862Y323085D02*
Y324267D01*
X372210Y323676D02*
X373391D01*
X372800Y323085D02*
Y324267D01*
X457198Y325957D02*
X458379D01*
X457788Y325366D02*
Y326548D01*
X384365Y323272D02*
X385546D01*
X384955Y322682D02*
Y323863D01*
X417193Y352175D02*
X418374D01*
X417783Y351584D02*
Y352765D01*
X348560Y322975D02*
X349741D01*
X349151Y322385D02*
Y323566D01*
X472757Y358255D02*
X473938D01*
X473347Y357665D02*
Y358846D01*
X399390Y352688D02*
X400571D01*
X399981Y352098D02*
Y353279D01*
X331343Y273733D02*
X332524D01*
X331933Y273143D02*
Y274324D01*
X328231Y266500D02*
X329412D01*
X328821Y265910D02*
Y267091D01*
X238310Y290100D02*
X239491D01*
X238900Y289510D02*
Y290690D01*
X204279Y318986D02*
X205461D01*
X204870Y318396D02*
Y319577D01*
X200331Y306885D02*
X201512D01*
X200922Y306295D02*
Y307476D01*
X456514Y321500D02*
X457695D01*
X457105Y320910D02*
Y322091D01*
X250191Y386200D02*
X251372D01*
X250781Y385610D02*
Y386791D01*
X452632Y319769D02*
X453813D01*
X453223Y319179D02*
Y320360D01*
X215560Y354345D02*
X216741D01*
X216150Y353755D02*
Y354936D01*
X213046Y351487D02*
X214227D01*
X213636Y350896D02*
Y352077D01*
X218164Y351487D02*
X219345D01*
X218754Y350896D02*
Y352077D01*
X220678Y354345D02*
X221859D01*
X221268Y353755D02*
Y354936D01*
X228309Y354300D02*
X229490D01*
X228900Y353710D02*
Y354891D01*
X231009Y351430D02*
X232190D01*
X231600Y350839D02*
Y352020D01*
X235474Y403031D02*
X236655D01*
X236065Y402441D02*
Y403622D01*
X238809Y404800D02*
X239990D01*
X239400Y404210D02*
Y405391D01*
X244726Y404344D02*
X245907D01*
X245317Y403754D02*
Y404935D01*
X244709Y400600D02*
X245890D01*
X245300Y400009D02*
Y401191D01*
X448901Y319769D02*
X450082D01*
X449492Y319179D02*
Y320360D01*
X195679Y267742D02*
X196860D01*
X196269Y267151D02*
Y268332D01*
X187566Y267742D02*
X188747D01*
X188156Y267151D02*
Y268332D01*
X183509Y267742D02*
X184690D01*
X184100Y267151D02*
Y268332D01*
X211904Y267742D02*
X213085D01*
X212495Y267151D02*
Y268332D01*
X215961Y267742D02*
X217142D01*
X216551Y267151D02*
Y268332D01*
X220017Y267742D02*
X221198D01*
X220608Y267151D02*
Y268332D01*
X185580Y297400D02*
X186761D01*
X186171Y296810D02*
Y297991D01*
X177779Y297400D02*
X178960D01*
X178369Y296810D02*
Y297991D01*
X181679Y297400D02*
X182860D01*
X182269Y296810D02*
Y297991D01*
X231509Y290200D02*
X232691D01*
X232100Y289610D02*
Y290791D01*
X388909Y209163D02*
X390090D01*
X389500Y208572D02*
Y209753D01*
X532209Y206700D02*
X533391D01*
X532800Y206109D02*
Y207291D01*
X454490Y166500D02*
X455671D01*
X455080Y165910D02*
Y167091D01*
X258009Y274300D02*
X259191D01*
X258600Y273710D02*
Y274891D01*
X173023Y318548D02*
X174204D01*
X173614Y317958D02*
Y319139D01*
X165509Y401800D02*
X166691D01*
X166100Y401209D02*
Y402391D01*
X474904Y173033D02*
X476085D01*
X475495Y172443D02*
Y173624D01*
X474904Y168800D02*
X476085D01*
X475495Y168210D02*
Y169391D01*
X483409Y163700D02*
X484590D01*
X484000Y163110D02*
Y164291D01*
X455541Y77378D02*
X456722D01*
X456132Y76788D02*
Y77969D01*
X457909Y73313D02*
X459091D01*
X458500Y72723D02*
Y73904D01*
X406609Y174700D02*
X407791D01*
X407200Y174109D02*
Y175291D01*
X47009Y178200D02*
X48191D01*
X47600Y177610D02*
Y178791D01*
X129772Y182781D02*
X130953D01*
X130362Y182191D02*
Y183372D01*
X126709Y182781D02*
X127891D01*
X127300Y182191D02*
Y183372D01*
X72032Y174952D02*
X73213D01*
X72622Y174361D02*
Y175542D01*
X40482Y180600D02*
X41663D01*
X41072Y180009D02*
Y181191D01*
X40482Y183788D02*
X41663D01*
X41072Y183198D02*
Y184379D01*
X149151Y278281D02*
X150332D01*
X149742Y277691D02*
Y278872D01*
X51925Y224466D02*
X53106D01*
X52516Y223875D02*
Y225057D01*
X40409Y243538D02*
X41590D01*
X41000Y242948D02*
Y244129D01*
X43615Y243538D02*
X44796D01*
X44205Y242948D02*
Y244129D01*
X46820Y243538D02*
X48001D01*
X47410Y242948D02*
Y244129D01*
X129772Y130500D02*
X130953D01*
X130362Y129910D02*
Y131091D01*
X544610Y328200D02*
X545791D01*
X545200Y327609D02*
Y328791D01*
X536573Y343781D02*
X537754D01*
X537163Y343191D02*
Y344372D01*
X95809Y324600D02*
X96991D01*
X96400Y324009D02*
Y325191D01*
X59492Y270768D02*
X60673D01*
X60082Y270178D02*
Y271359D01*
X172656Y295220D02*
X173837D01*
X173247Y294630D02*
Y295811D01*
X205087Y297400D02*
X206269D01*
X205678Y296810D02*
Y297991D01*
X197285Y297400D02*
X198466D01*
X197875Y296809D02*
Y297990D01*
X164374Y328063D02*
X165556D01*
X164965Y327472D02*
Y328654D01*
X86173Y322894D02*
X87354D01*
X86764Y322304D02*
Y323485D01*
X168584Y318548D02*
X169765D01*
X169175Y317958D02*
Y319139D01*
X83609Y159400D02*
X84790D01*
X84200Y158809D02*
Y159991D01*
X53257Y262600D02*
X54438D01*
X53848Y262010D02*
Y263191D01*
X126763Y127693D02*
X127944D01*
X127354Y127102D02*
Y128283D01*
X326745Y97904D02*
X327926D01*
X327336Y97314D02*
Y98495D01*
X338420Y97904D02*
X339601D01*
X339011Y97314D02*
Y98495D01*
X196887Y260788D02*
X198068D01*
X197478Y260198D02*
Y261379D01*
X186096Y408700D02*
X187277D01*
X186687Y408110D02*
Y409291D01*
X53866Y372017D02*
X55047D01*
X54456Y371426D02*
Y372607D01*
X80780Y350221D02*
X81962D01*
X81371Y349631D02*
Y350812D01*
X105009Y381500D02*
X106191D01*
X105600Y380909D02*
Y382091D01*
X104161Y362154D02*
X105342D01*
X104752Y361564D02*
Y362745D01*
X115809Y365215D02*
X116990D01*
X116400Y364625D02*
Y365806D01*
X89560Y365265D02*
X90741D01*
X90151Y364675D02*
Y365856D01*
X89865Y352226D02*
X91046D01*
X90455Y351636D02*
Y352817D01*
X89865Y355944D02*
X91046D01*
X90455Y355353D02*
Y356534D01*
X73849Y353311D02*
X75030D01*
X74439Y352720D02*
Y353902D01*
X70930Y353311D02*
X72111D01*
X71521Y352720D02*
Y353902D01*
X76767Y353311D02*
X77948D01*
X77358Y352720D02*
Y353902D01*
X76767Y370482D02*
X77948D01*
X77358Y369892D02*
Y371073D01*
X70930Y370482D02*
X72111D01*
X71521Y369892D02*
Y371073D01*
X73849Y370482D02*
X75030D01*
X74439Y369892D02*
Y371073D01*
X76317Y382494D02*
X77499D01*
X76908Y381903D02*
Y383084D01*
X81884Y383465D02*
X83065D01*
X82475Y382875D02*
Y384056D01*
X96664Y362154D02*
X97846D01*
X97255Y361564D02*
Y362745D01*
X100413Y362154D02*
X101594D01*
X101004Y361564D02*
Y362745D01*
X107910Y370193D02*
X109091D01*
X108500Y369603D02*
Y370784D01*
X104161Y370193D02*
X105342D01*
X104752Y369603D02*
Y370784D01*
X100413Y370193D02*
X101594D01*
X101004Y369603D02*
Y370784D01*
X96664Y370193D02*
X97846D01*
X97255Y369603D02*
Y370784D01*
X73849Y366693D02*
X75030D01*
X74439Y366103D02*
Y367284D01*
X70930Y366693D02*
X72111D01*
X71521Y366103D02*
Y367284D01*
X76767Y366693D02*
X77948D01*
X77358Y366103D02*
Y367284D01*
X90752Y387581D02*
X91933D01*
X91343Y386991D02*
Y388172D01*
X218109Y321843D02*
X219290D01*
X218700Y321252D02*
Y322434D01*
X34181Y289574D02*
X35362D01*
X34771Y288983D02*
Y290164D01*
X88321Y303633D02*
X89502D01*
X88912Y303043D02*
Y304224D01*
X74933Y304524D02*
X76114D01*
X75524Y303933D02*
Y305114D01*
X55609Y282800D02*
X56791D01*
X56200Y282209D02*
Y283391D01*
X94998Y295457D02*
X96179D01*
X95588Y294867D02*
Y296048D01*
X105809Y251900D02*
X106991D01*
X106400Y251309D02*
Y252491D01*
X105809Y245950D02*
X106991D01*
X106400Y245359D02*
Y246541D01*
X72114Y382494D02*
X73295D01*
X72705Y381903D02*
Y383084D01*
X70930Y357100D02*
X72111D01*
X71521Y356509D02*
Y357691D01*
X76767Y357100D02*
X77948D01*
X77358Y356509D02*
Y357691D01*
X73849Y357100D02*
X75030D01*
X74439Y356509D02*
Y357691D01*
X86501Y366421D02*
X87682D01*
X87092Y365831D02*
Y367012D01*
X53866Y368962D02*
X55047D01*
X54456Y368371D02*
Y369552D01*
X105809Y240000D02*
X106991D01*
X106400Y239409D02*
Y240591D01*
X42311Y227444D02*
X43492D01*
X42901Y226854D02*
Y228035D01*
X38359Y227444D02*
X39540D01*
X38949Y226854D02*
Y228035D01*
X28409Y223100D02*
X29590D01*
X29000Y222510D02*
Y223691D01*
X74114Y315422D02*
X75296D01*
X74705Y314831D02*
Y316013D01*
X3109Y363900D02*
X4290D01*
X3700Y363310D02*
Y364491D01*
X34310Y208655D02*
X35491D01*
X34901Y208065D02*
Y209246D01*
X189516Y318078D02*
X190698D01*
X190107Y317487D02*
Y318668D01*
X37109Y238108D02*
X38290D01*
X37699Y237518D02*
Y238699D01*
X312992Y352120D02*
X314173D01*
X313583Y351530D02*
Y352711D01*
X399955Y344500D02*
X401136D01*
X400546Y343910D02*
Y345091D01*
X345885Y344514D02*
X347066D01*
X346475Y343923D02*
Y345105D01*
X157209Y407500D02*
X158390D01*
X157800Y406910D02*
Y408091D01*
X151549Y399618D02*
X152730D01*
X152139Y399028D02*
Y400209D01*
X184897Y411154D02*
X186078D01*
X185487Y410564D02*
Y411745D01*
X174067Y413227D02*
X175248D01*
X174658Y412637D02*
Y413818D01*
X157250Y399789D02*
X158431D01*
X157841Y399199D02*
Y400380D01*
X163271Y425000D02*
X164452D01*
X163862Y424409D02*
Y425591D01*
X184915Y420366D02*
X186097D01*
X185506Y419776D02*
Y420957D01*
X347274Y357954D02*
X348455D01*
X347864Y357364D02*
Y358545D01*
X151549Y416610D02*
X152730D01*
X152139Y416019D02*
Y417200D01*
X142609Y408157D02*
X143790D01*
X143200Y407567D02*
Y408748D01*
X130109Y408157D02*
X131290D01*
X130700Y407567D02*
Y408748D01*
X122837Y410248D02*
X124018D01*
X123428Y409658D02*
Y410839D01*
X584438Y338940D02*
X585619D01*
X585028Y338350D02*
Y339531D01*
X103148Y410619D02*
X104329D01*
X103739Y410028D02*
Y411209D01*
X72014Y304524D02*
X73195D01*
X72605Y303933D02*
Y305114D01*
X26544Y398500D02*
X27725D01*
X27135Y397909D02*
Y399091D01*
X29599Y398500D02*
X30780D01*
X30190Y397909D02*
Y399091D01*
X35709Y398500D02*
X36891D01*
X36300Y397909D02*
Y399091D01*
X32654Y398500D02*
X33836D01*
X33245Y397909D02*
Y399091D01*
X50609Y184788D02*
X51790D01*
X51200Y184198D02*
Y185379D01*
X72014Y294791D02*
X73195D01*
X72605Y294200D02*
Y295381D01*
X74933Y294791D02*
X76114D01*
X75524Y294200D02*
Y295381D01*
X77852Y294791D02*
X79033D01*
X78442Y294200D02*
Y295381D01*
X77852Y304524D02*
X79033D01*
X78442Y303933D02*
Y305114D01*
X37063Y336119D02*
X38244D01*
X37653Y335528D02*
Y336710D01*
X40118Y336119D02*
X41299D01*
X40709Y335528D02*
Y336710D01*
X43173Y336119D02*
X44354D01*
X43764Y335528D02*
Y336710D01*
X53257Y258580D02*
X54438D01*
X53848Y257990D02*
Y259171D01*
X46820Y249100D02*
X48001D01*
X47410Y248510D02*
Y249691D01*
X66759Y259380D02*
X67940D01*
X67349Y258789D02*
Y259970D01*
X55609Y287100D02*
X56791D01*
X56200Y286509D02*
Y287691D01*
X82007Y319149D02*
X83188D01*
X82598Y318559D02*
Y319740D01*
X105148Y312929D02*
X106329D01*
X105739Y312338D02*
Y313519D01*
X85368Y312929D02*
X86550D01*
X85959Y312338D02*
Y313519D01*
X43615Y249100D02*
X44796D01*
X44205Y248510D02*
Y249691D01*
X40409Y249100D02*
X41590D01*
X41000Y248510D02*
Y249691D01*
X25359Y242223D02*
X26540D01*
X25950Y241632D02*
Y242813D01*
X37409Y356199D02*
X38590D01*
X38000Y355609D02*
Y356790D01*
X40690Y265800D02*
X41872D01*
X41281Y265210D02*
Y266391D01*
X63059Y233855D02*
X64240D01*
X63650Y233264D02*
Y234445D01*
X63059Y259380D02*
X64240D01*
X63649Y258789D02*
Y259970D01*
X46050Y147441D02*
X47231D01*
X46641Y146850D02*
Y148031D01*
X36471Y302385D02*
X37653D01*
X37062Y301795D02*
Y302976D01*
X22319Y223100D02*
X23500D01*
X22910Y222510D02*
Y223691D01*
X55049Y240361D02*
X56230D01*
X55640Y239770D02*
Y240951D01*
X55049Y243566D02*
X56230D01*
X55640Y242975D02*
Y244156D01*
X55049Y246771D02*
X56230D01*
X55640Y246180D02*
Y247361D01*
X54671Y270150D02*
X55852D01*
X55261Y269560D02*
Y270741D01*
X16248Y265043D02*
X17429D01*
X16839Y264452D02*
Y265633D01*
X59492Y279791D02*
X60673D01*
X60082Y279201D02*
Y280382D01*
X52009Y276511D02*
X53190D01*
X52600Y275921D02*
Y277102D01*
X6104Y270150D02*
X7285D01*
X6695Y269559D02*
Y270740D01*
X5412Y390655D02*
X6593D01*
X6003Y390065D02*
Y391246D01*
X5412Y385800D02*
X6593D01*
X6003Y385209D02*
Y386391D01*
X3228Y340445D02*
X4409D01*
X3819Y339854D02*
Y341035D01*
X3228Y355347D02*
X4409D01*
X3819Y354757D02*
Y355938D01*
X6104Y325845D02*
X7285D01*
X6695Y325254D02*
Y326435D01*
X6104Y311145D02*
X7285D01*
X6695Y310554D02*
Y311735D01*
X6104Y296448D02*
X7285D01*
X6695Y295857D02*
Y297038D01*
X6104Y281245D02*
X7285D01*
X6695Y280655D02*
Y281836D01*
X30190Y249522D02*
X31371D01*
X30781Y248932D02*
Y250113D01*
X27708Y245270D02*
X28889D01*
X28298Y244679D02*
Y245860D01*
X11646Y240200D02*
X12827D01*
X12237Y239610D02*
Y240791D01*
X11646Y250426D02*
X12827D01*
X12237Y249835D02*
Y251016D01*
X25045Y238108D02*
X26226D01*
X25636Y237518D02*
Y238699D01*
X11539Y213307D02*
X12720D01*
X12130Y212717D02*
Y213898D01*
X11509Y209400D02*
X12690D01*
X12100Y208809D02*
Y209991D01*
X11688Y189670D02*
X12869D01*
X12279Y189079D02*
Y190261D01*
X19609Y204200D02*
X20790D01*
X20200Y203609D02*
Y204791D01*
X412596Y50427D02*
X413777D01*
X413187Y49837D02*
Y51018D01*
X322682Y87343D02*
X323863D01*
X323272Y86753D02*
Y87934D01*
X334408Y87343D02*
X335589D01*
X334998Y86753D02*
Y87934D01*
X12806Y267882D02*
X13987D01*
X13397Y267292D02*
Y268473D01*
X491829Y299487D02*
X493010D01*
X492419Y298897D02*
Y300078D01*
X556556Y380813D02*
X557737D01*
X557146Y380222D02*
Y381403D01*
X551200Y336612D02*
X552381D01*
X551791Y336022D02*
Y337203D01*
X551080Y354238D02*
X552261D01*
X551671Y353647D02*
Y354829D01*
X554950Y349589D02*
X556131D01*
X555541Y348999D02*
Y350180D01*
X552682Y367975D02*
X553863D01*
X553273Y367385D02*
Y368566D01*
X555153Y295090D02*
X556334D01*
X555744Y294499D02*
Y295681D01*
X571753Y301551D02*
X572934D01*
X572343Y300961D02*
Y302142D01*
X583973Y368800D02*
X585154D01*
X584564Y368210D02*
Y369391D01*
X586485Y361675D02*
X587666D01*
X587075Y361085D02*
Y362266D01*
X586485Y292105D02*
X587666D01*
X587075Y291515D02*
Y292696D01*
X585885Y274713D02*
X587066D01*
X586475Y274122D02*
Y275303D01*
X567445Y384659D02*
X568626D01*
X568036Y384069D02*
Y385250D01*
X577682Y377179D02*
X578863D01*
X578273Y376589D02*
Y377770D01*
X571753Y295646D02*
X572934D01*
X572343Y295055D02*
Y296236D01*
X571753Y313362D02*
X572934D01*
X572343Y312772D02*
Y313953D01*
X571753Y307457D02*
X572934D01*
X572343Y306866D02*
Y308047D01*
X535691Y153111D02*
X536872D01*
X536281Y152521D02*
Y153702D01*
X535691Y166104D02*
X536872D01*
X536281Y165513D02*
Y166694D01*
X535691Y170434D02*
X536872D01*
X536281Y169844D02*
Y171025D01*
X535691Y179096D02*
X536872D01*
X536281Y178505D02*
Y179686D01*
X536491Y60800D02*
X537672D01*
X537081Y60210D02*
Y61391D01*
X536491Y116740D02*
X537672D01*
X537081Y116150D02*
Y117331D01*
X431609Y51100D02*
X432791D01*
X432200Y50510D02*
Y51691D01*
X512309Y48500D02*
X513490D01*
X512900Y47910D02*
Y49091D01*
X537509Y143100D02*
X538691D01*
X538100Y142509D02*
Y143691D01*
X543711Y97189D02*
X544892D01*
X544302Y96599D02*
Y97780D01*
X543711Y92406D02*
X544892D01*
X544302Y91815D02*
Y92996D01*
X543711Y102700D02*
X544892D01*
X544302Y102110D02*
Y103291D01*
X564179Y248422D02*
X565360D01*
X564769Y247831D02*
Y249012D01*
X559610Y132645D02*
X560791D01*
X560200Y132055D02*
Y133236D01*
X549868Y257241D02*
X551050D01*
X550459Y256651D02*
Y257832D01*
X463428Y160525D02*
X464609D01*
X464019Y159934D02*
Y161116D01*
X518283Y207719D02*
X519464D01*
X518874Y207128D02*
Y208309D01*
X522713Y207935D02*
X523894D01*
X523304Y207344D02*
Y208525D01*
X496299Y206066D02*
X497480D01*
X496889Y205476D02*
Y206657D01*
X503879Y206056D02*
X505060D01*
X504469Y205466D02*
Y206647D01*
X464845Y202471D02*
X466026D01*
X465435Y201881D02*
Y203062D01*
X533584Y201429D02*
X534765D01*
X534174Y200838D02*
Y202020D01*
X522808Y193860D02*
X523989D01*
X523398Y193269D02*
Y194450D01*
X513009Y205768D02*
X514190D01*
X513599Y205177D02*
Y206359D01*
X495643Y183135D02*
X496824D01*
X496233Y182545D02*
Y183726D01*
X490131Y183135D02*
X491312D01*
X490721Y182545D02*
Y183726D01*
X466309Y171200D02*
X467490D01*
X466900Y170609D02*
Y171791D01*
X463091Y169100D02*
X464272D01*
X463681Y168509D02*
Y169691D01*
X461109Y148781D02*
X462290D01*
X461700Y148191D02*
Y149372D01*
X451155Y206172D02*
X452337D01*
X451746Y205581D02*
Y206762D01*
X451155Y202471D02*
X452337D01*
X451746Y201881D02*
Y203062D01*
X460801Y194574D02*
X461982D01*
X461392Y193984D02*
Y195165D01*
X527141Y192974D02*
X528322D01*
X527732Y192384D02*
Y193565D01*
X537866Y197216D02*
X539047D01*
X538457Y196625D02*
Y197807D01*
X463938Y181412D02*
X465119D01*
X464528Y180822D02*
Y182003D01*
X463938Y185112D02*
X465119D01*
X464528Y184522D02*
Y185703D01*
X492523Y193860D02*
X493705D01*
X493114Y193269D02*
Y194450D01*
X480904Y130157D02*
X482085D01*
X481494Y129566D02*
Y130747D01*
X420809Y59141D02*
X421990D01*
X421400Y58551D02*
Y59732D01*
X500954Y59850D02*
X502136D01*
X501545Y59259D02*
Y60440D01*
X439309Y59300D02*
X440490D01*
X439900Y58710D02*
Y59891D01*
X416109Y63016D02*
X417290D01*
X416700Y62425D02*
Y63606D01*
X434327Y69073D02*
X435508D01*
X434917Y68482D02*
Y69663D01*
X439359Y31806D02*
X440540D01*
X439949Y31215D02*
Y32396D01*
X459359Y31806D02*
X460540D01*
X459949Y31215D02*
Y32396D01*
X327309Y2988D02*
X328490D01*
X327900Y2397D02*
Y3579D01*
X322692Y95023D02*
X323873D01*
X323283Y94433D02*
Y95614D01*
X387699Y50427D02*
X388880D01*
X388290Y49837D02*
Y51018D01*
X326724Y87343D02*
X327906D01*
X327315Y86753D02*
Y87934D01*
X392522Y26491D02*
X393704D01*
X393113Y25900D02*
Y27081D01*
X271664Y56052D02*
X272845D01*
X272254Y55462D02*
Y56643D01*
X276664Y56052D02*
X277845D01*
X277254Y55462D02*
Y56643D01*
X281664Y56052D02*
X282845D01*
X282254Y55462D02*
Y56643D01*
X291664Y56052D02*
X292845D01*
X292254Y55462D02*
Y56643D01*
X416371Y26491D02*
X417552D01*
X416961Y25900D02*
Y27081D01*
X396200Y18543D02*
X397381D01*
X396791Y17953D02*
Y19134D01*
X221948Y54296D02*
X223129D01*
X222538Y53705D02*
Y54886D01*
X175977Y54296D02*
X177158D01*
X176568Y53705D02*
Y54886D01*
X130008Y54296D02*
X131189D01*
X130598Y53705D02*
Y54886D01*
X84038Y54296D02*
X85219D01*
X84628Y53705D02*
Y54886D01*
X38068Y54296D02*
X39249D01*
X38658Y53705D02*
Y54886D01*
X427794Y24479D02*
X428975D01*
X428385Y23888D02*
Y25069D01*
X385849Y21529D02*
X387031D01*
X386440Y20938D02*
Y22119D01*
X409698Y21529D02*
X410879D01*
X410288Y20938D02*
Y22119D01*
X403457Y24453D02*
X404638D01*
X404048Y23862D02*
Y25043D01*
X392451Y50427D02*
X393632D01*
X393042Y49837D02*
Y51018D01*
X407399Y49365D02*
X408580D01*
X407990Y48774D02*
Y49955D01*
X379181Y43962D02*
X380362D01*
X379772Y43371D02*
Y44552D01*
X372309Y12100D02*
X373491D01*
X372900Y11509D02*
Y12691D01*
X310378Y45593D02*
X311559D01*
X310969Y45002D02*
Y46183D01*
X354809Y45593D02*
X355991D01*
X355400Y45002D02*
Y46184D01*
X352629Y22219D02*
X353810D01*
X353219Y21629D02*
Y22810D01*
X339736Y18040D02*
X340917D01*
X340327Y17450D02*
Y18631D01*
X295309Y22300D02*
X296491D01*
X295900Y21710D02*
Y22891D01*
X302583Y18863D02*
X303764D01*
X303173Y18272D02*
Y19453D01*
X347464Y36535D02*
X348645D01*
X348054Y35945D02*
Y37126D01*
X322922Y45693D02*
X324103D01*
X323513Y45102D02*
Y46283D01*
X322922Y49000D02*
X324103D01*
X323513Y48410D02*
Y49591D01*
X374983Y18040D02*
X376164D01*
X375573Y17450D02*
Y18631D01*
X342409Y19534D02*
X343590D01*
X343000Y18944D02*
Y20125D01*
X345083Y18040D02*
X346264D01*
X345673Y17450D02*
Y18631D01*
X314983Y18040D02*
X316164D01*
X315573Y17450D02*
Y18631D01*
X309636Y18040D02*
X310818D01*
X310227Y17450D02*
Y18631D01*
X324636Y18763D02*
X325817D01*
X325227Y18172D02*
Y19353D01*
X327309Y17269D02*
X328490D01*
X327900Y16679D02*
Y17860D01*
X329983Y18763D02*
X331164D01*
X330573Y18172D02*
Y19353D01*
X364227Y81634D02*
X365408D01*
X364818Y81043D02*
Y82225D01*
X370684Y81634D02*
X371865D01*
X371274Y81043D02*
Y82225D01*
X358841Y81834D02*
X360022D01*
X359431Y81243D02*
Y82425D01*
X355533Y81834D02*
X356715D01*
X356124Y81243D02*
Y82425D01*
X352384Y81834D02*
X353565D01*
X352974Y81243D02*
Y82425D01*
X373991Y81634D02*
X375172D01*
X374582Y81043D02*
Y82225D01*
X349077Y81834D02*
X350258D01*
X349667Y81243D02*
Y82425D01*
X297236Y18863D02*
X298417D01*
X297827Y18272D02*
Y19453D01*
X354636Y18763D02*
X355817D01*
X355227Y18172D02*
Y19354D01*
X359983Y18763D02*
X361164D01*
X360573Y18172D02*
Y19354D01*
X357309Y17269D02*
X358490D01*
X357900Y16679D02*
Y17860D01*
X317416Y2988D02*
X318597D01*
X318006Y2397D02*
Y3579D01*
X337410Y2988D02*
X338591D01*
X338000Y2397D02*
Y3579D01*
X318362Y74354D02*
X319543D01*
X318953Y73763D02*
Y74944D01*
X318433Y80307D02*
X319614D01*
X319023Y79717D02*
Y80898D01*
X38068Y81855D02*
X39249D01*
X38658Y81264D02*
Y82445D01*
X84038Y81855D02*
X85219D01*
X84628Y81264D02*
Y82445D01*
X130008Y81855D02*
X131189D01*
X130598Y81264D02*
Y82445D01*
X175977Y81855D02*
X177158D01*
X176568Y81264D02*
Y82445D01*
X221948Y81855D02*
X223129D01*
X222538Y81264D02*
Y82445D01*
X281664Y78690D02*
X282845D01*
X282254Y78099D02*
Y79280D01*
X276664Y78690D02*
X277845D01*
X277254Y78099D02*
Y79280D01*
X271664Y78690D02*
X272845D01*
X272254Y78099D02*
Y79280D01*
X306664Y56052D02*
X307845D01*
X307254Y55462D02*
Y56643D01*
X517759Y268156D02*
X518940D01*
X518349Y267565D02*
Y268746D01*
X517959Y242625D02*
X519140D01*
X518549Y242035D02*
Y243216D01*
X534946Y254571D02*
X536127D01*
X535536Y253980D02*
Y255161D01*
X507342Y57696D02*
X508523D01*
X507932Y57105D02*
Y58286D01*
X449752Y21647D02*
X450933D01*
X450342Y21057D02*
Y22238D01*
X459594Y21647D02*
X460775D01*
X460185Y21057D02*
Y22238D01*
X525059Y21547D02*
X526240D01*
X525650Y20956D02*
Y22138D01*
X513109Y66645D02*
X514290D01*
X513700Y66054D02*
Y67236D01*
X526109Y61400D02*
X527290D01*
X526700Y60809D02*
Y61991D01*
X565110Y136166D02*
X566291D01*
X565700Y135576D02*
Y136757D01*
X542863Y41225D02*
X544044D01*
X543453Y40634D02*
Y41815D01*
X579555Y41224D02*
X580736D01*
X580145Y40634D02*
Y41815D01*
X579555Y92405D02*
X580736D01*
X580145Y91815D02*
Y92996D01*
X579555Y97189D02*
X580736D01*
X580145Y96598D02*
Y97779D01*
X579555Y148370D02*
X580736D01*
X580145Y147779D02*
Y148960D01*
X453996Y189622D02*
X455177D01*
X454586Y189032D02*
Y190213D01*
X467685Y189622D02*
X468866D01*
X468276Y189032D02*
Y190213D01*
X478480Y205126D02*
X479661D01*
X479071Y204536D02*
Y205717D01*
X475170Y192978D02*
X476351D01*
X475761Y192387D02*
Y193568D01*
X479501Y192978D02*
X480682D01*
X480092Y192387D02*
Y193568D01*
X496823Y193860D02*
X498004D01*
X497414Y193269D02*
Y194450D01*
X514548Y193860D02*
X515729D01*
X515139Y193269D02*
Y194450D01*
X518477Y193860D02*
X519658D01*
X519067Y193269D02*
Y194450D01*
X505485Y192978D02*
X506666D01*
X506076Y192387D02*
Y193568D01*
X509816Y192978D02*
X510997D01*
X510407Y192387D02*
Y193568D01*
X512178Y183135D02*
X513359D01*
X512769Y182545D02*
Y183726D01*
X488162Y97905D02*
X489343D01*
X488753Y97315D02*
Y98496D01*
X467194Y148781D02*
X468375D01*
X467784Y148191D02*
Y149372D01*
X517909Y125220D02*
X519091D01*
X518500Y124630D02*
Y125811D01*
X526154Y125720D02*
X527335D01*
X526744Y125130D02*
Y126311D01*
X506688Y124697D02*
X507869D01*
X507279Y124107D02*
Y125288D01*
X505497Y117564D02*
X506678D01*
X506087Y116974D02*
Y118155D01*
X501184Y124697D02*
X502365D01*
X501774Y124107D02*
Y125288D01*
X496848Y106689D02*
X498029D01*
X497438Y106099D02*
Y107280D01*
X501179Y106689D02*
X502360D01*
X501769Y106099D02*
Y107280D01*
X509815Y106688D02*
X510996D01*
X510406Y106098D02*
Y107279D01*
X505509Y106689D02*
X506690D01*
X506100Y106098D02*
Y107279D01*
X512178Y124697D02*
X513359D01*
X512769Y124107D02*
Y125288D01*
X495666Y124697D02*
X496847D01*
X496257Y124107D02*
Y125288D01*
X526154Y133499D02*
X527335D01*
X526744Y132909D02*
Y134090D01*
X521036Y125720D02*
X522217D01*
X521626Y125130D02*
Y126311D01*
X523595Y127409D02*
X524776D01*
X524185Y126818D02*
Y127999D01*
X495642Y133339D02*
X496823D01*
X496233Y132749D02*
Y133930D01*
X512178Y133339D02*
X513359D01*
X512768Y132749D02*
Y133930D01*
X506666Y133339D02*
X507847D01*
X507257Y132749D02*
Y133930D01*
X501154Y133339D02*
X502335D01*
X501745Y132749D02*
Y133930D01*
X490130Y133339D02*
X491312D01*
X490721Y132749D02*
Y133930D01*
X526062Y70584D02*
X527243D01*
X526652Y69993D02*
Y71174D01*
X526086Y78236D02*
X527267D01*
X526676Y77646D02*
Y78827D01*
X523509Y73400D02*
X524690D01*
X524100Y72809D02*
Y73991D01*
X520973Y70584D02*
X522154D01*
X521563Y69993D02*
Y71174D01*
X287309Y36535D02*
X288491D01*
X287900Y35945D02*
Y37126D01*
X277309Y2988D02*
X278490D01*
X277900Y2398D02*
Y3579D01*
X287309Y2988D02*
X288491D01*
X287900Y2398D02*
Y3579D01*
X277309Y36535D02*
X278490D01*
X277900Y35945D02*
Y37126D01*
X297309Y2988D02*
X298491D01*
X297900Y2398D02*
Y3579D01*
X307309Y2988D02*
X308490D01*
X307900Y2398D02*
Y3579D01*
X347309Y2988D02*
X348491D01*
X347900Y2398D02*
Y3579D01*
X357309Y2988D02*
X358490D01*
X357900Y2398D02*
Y3579D01*
X367309Y2988D02*
X368491D01*
X367900Y2398D02*
Y3579D01*
X324336Y276322D02*
X325517D01*
X324926Y275731D02*
Y276912D01*
X314493Y276322D02*
X315674D01*
X315083Y275731D02*
Y276912D01*
X432603Y276822D02*
X433784D01*
X433193Y276231D02*
Y277412D01*
X426697Y276822D02*
X427878D01*
X427287Y276231D02*
Y277412D01*
X136367Y317977D02*
X137548D01*
X136958Y317387D02*
Y318568D01*
X165870Y307224D02*
X167051D01*
X166460Y306633D02*
Y307814D01*
X163926Y318078D02*
X165108D01*
X164517Y317487D02*
Y318668D01*
X403076Y276322D02*
X404257D01*
X403666Y275731D02*
Y276912D01*
X416855Y276322D02*
X418036D01*
X417445Y275731D02*
Y276912D01*
X307604Y307224D02*
X308785D01*
X308194Y306633D02*
Y307814D01*
X224925Y307324D02*
X226106D01*
X225515Y306733D02*
Y307914D01*
X222981Y318078D02*
X224163D01*
X223572Y317487D02*
Y318668D01*
X220988Y307224D02*
X222169D01*
X221578Y306633D02*
Y307814D01*
X219044Y318078D02*
X220226D01*
X219635Y317487D02*
Y318668D01*
X213114Y307224D02*
X214295D01*
X213704Y306633D02*
Y307814D01*
X209176Y307306D02*
X210357D01*
X209767Y306716D02*
Y307897D01*
X177681Y307224D02*
X178862D01*
X178271Y306633D02*
Y307814D01*
X185579Y318078D02*
X186760D01*
X186170Y317487D02*
Y318668D01*
X187524Y307224D02*
X188705D01*
X188114Y306633D02*
Y307814D01*
X193453Y318078D02*
X194634D01*
X194044Y317487D02*
Y318668D01*
X309597Y318078D02*
X310778D01*
X310188Y317487D02*
Y318668D01*
X305659Y318078D02*
X306840D01*
X306250Y317487D02*
Y318668D01*
X31052Y124645D02*
X32233D01*
X31643Y124054D02*
Y125235D01*
X31052Y121101D02*
X32233D01*
X31643Y120511D02*
Y121692D01*
X31052Y131731D02*
X32233D01*
X31643Y131141D02*
Y132322D01*
X31052Y128188D02*
X32233D01*
X31643Y127597D02*
Y128779D01*
X87356Y392630D02*
X88537D01*
X87947Y392040D02*
Y393221D01*
X380438Y307224D02*
X381619D01*
X381028Y306633D02*
Y307814D01*
X303667Y307424D02*
X304848D01*
X304257Y306833D02*
Y308014D01*
X173744Y307224D02*
X174925D01*
X174334Y306633D02*
Y307814D01*
X161933Y307224D02*
X163114D01*
X162523Y306633D02*
Y307814D01*
X142248Y307424D02*
X143429D01*
X142838Y306833D02*
Y308014D01*
X150209Y307211D02*
X151391D01*
X150800Y306621D02*
Y307802D01*
X158008Y307211D02*
X159189D01*
X158599Y306621D02*
Y307802D01*
X115409Y389969D02*
X116590D01*
X116000Y389378D02*
Y390559D01*
X53722Y192303D02*
X54903D01*
X54313Y191712D02*
Y192894D01*
X54411Y202442D02*
X55592D01*
X55001Y201852D02*
Y203033D01*
X67782Y136436D02*
X68963D01*
X68372Y135845D02*
Y137026D01*
X53743Y132736D02*
X54924D01*
X54333Y132145D02*
Y133326D01*
X68881Y123479D02*
X70062D01*
X69472Y122889D02*
Y124070D01*
X64285Y104067D02*
X65466D01*
X64875Y103477D02*
Y104658D01*
X68473Y104070D02*
X69654D01*
X69064Y103480D02*
Y104661D01*
X84270Y94216D02*
X85451D01*
X84861Y93625D02*
Y94806D01*
X60033Y101712D02*
X61214D01*
X60623Y101121D02*
Y102302D01*
X38881Y156534D02*
X40062D01*
X39472Y155944D02*
Y157125D01*
X38881Y149448D02*
X40062D01*
X39472Y148857D02*
Y150038D01*
X40142Y165624D02*
X41323D01*
X40732Y165033D02*
Y166215D01*
X47221Y152156D02*
X48402D01*
X47811Y151566D02*
Y152747D01*
X47221Y156500D02*
X48402D01*
X47811Y155910D02*
Y157091D01*
X50542Y126208D02*
X51723D01*
X51132Y125618D02*
Y126799D01*
X54391Y126208D02*
X55572D01*
X54981Y125618D02*
Y126799D01*
X57858Y119841D02*
X59039D01*
X58449Y119250D02*
Y120431D01*
X61402Y119841D02*
X62583D01*
X61992Y119250D02*
Y120431D01*
X72032Y164900D02*
X73213D01*
X72622Y164310D02*
Y165491D01*
X76298Y107500D02*
X77479D01*
X76889Y106910D02*
Y108091D01*
X76835Y121101D02*
X78017D01*
X77426Y120511D02*
Y121692D01*
X76835Y124645D02*
X78017D01*
X77426Y124054D02*
Y125235D01*
X76835Y149448D02*
X78017D01*
X77426Y148857D02*
Y150038D01*
X92448Y139000D02*
X93629D01*
X93039Y138409D02*
Y139590D01*
X92448Y146873D02*
X93629D01*
X93039Y146282D02*
Y147463D01*
X92448Y142936D02*
X93629D01*
X93039Y142346D02*
Y143527D01*
X92448Y135063D02*
X93629D01*
X93039Y134473D02*
Y135654D01*
X92448Y131127D02*
X93629D01*
X93039Y130536D02*
Y131717D01*
X92448Y127190D02*
X93629D01*
X93039Y126600D02*
Y127781D01*
X101118Y135061D02*
X102299D01*
X101709Y134470D02*
Y135651D01*
X101118Y146871D02*
X102299D01*
X101709Y146280D02*
Y147461D01*
X101118Y142934D02*
X102299D01*
X101709Y142343D02*
Y143525D01*
X101118Y131124D02*
X102299D01*
X101709Y130534D02*
Y131715D01*
X101118Y127188D02*
X102299D01*
X101709Y126597D02*
Y127778D01*
X47228Y165624D02*
X48410D01*
X47819Y165033D02*
Y166215D01*
X54313Y172408D02*
X55494D01*
X54904Y171818D02*
Y172999D01*
X82139Y167440D02*
X83320D01*
X82730Y166850D02*
Y168031D01*
X82139Y171778D02*
X83320D01*
X82730Y171187D02*
Y172368D01*
X581195Y410399D02*
X582376D01*
X581786Y409809D02*
Y410990D01*
X564338Y417323D02*
X565519D01*
X564929Y416732D02*
Y417913D01*
X584087Y417323D02*
X585268D01*
X584678Y416732D02*
Y417913D01*
X567230Y424246D02*
X568411D01*
X567821Y423656D02*
Y424837D01*
X581136Y424305D02*
X582317D01*
X581727Y423715D02*
Y424896D01*
X574213Y427197D02*
X575394D01*
X574803Y426607D02*
Y427788D01*
X574213Y407448D02*
X575394D01*
X574803Y406858D02*
Y408039D01*
X567289Y410340D02*
X568470D01*
X567880Y409750D02*
Y410931D01*
X5283Y417323D02*
X6464D01*
X5873Y416732D02*
Y417913D01*
X8175Y424246D02*
X9356D01*
X8765Y423656D02*
Y424837D01*
X8234Y410340D02*
X9415D01*
X8825Y409750D02*
Y410931D01*
X15157Y407448D02*
X16339D01*
X15748Y406858D02*
Y408039D01*
X15157Y427197D02*
X16339D01*
X15748Y426607D02*
Y427788D01*
X22081Y424305D02*
X23262D01*
X22672Y423715D02*
Y424896D01*
X22140Y410399D02*
X23321D01*
X22731Y409809D02*
Y410990D01*
X25032Y417323D02*
X26213D01*
X25623Y416732D02*
Y417913D01*
X25032Y15748D02*
X26213D01*
X25623Y15157D02*
Y16339D01*
X5283Y15748D02*
X6464D01*
X5873Y15157D02*
Y16339D01*
X15157Y5873D02*
X16339D01*
X15748Y5283D02*
Y6464D01*
X15157Y25623D02*
X16339D01*
X15748Y25032D02*
Y26213D01*
X22081Y22731D02*
X23262D01*
X22672Y22140D02*
Y23321D01*
X8175Y22672D02*
X9356D01*
X8765Y22081D02*
Y23262D01*
X8234Y8765D02*
X9415D01*
X8824Y8175D02*
Y9356D01*
X22140Y8824D02*
X23321D01*
X22731Y8234D02*
Y9415D01*
X584087Y15748D02*
X585268D01*
X584678Y15157D02*
Y16339D01*
X564338Y15748D02*
X565519D01*
X564929Y15157D02*
Y16339D01*
X574213Y5873D02*
X575394D01*
X574803Y5283D02*
Y6464D01*
X574213Y25623D02*
X575394D01*
X574803Y25032D02*
Y26213D01*
X581136Y22731D02*
X582317D01*
X581727Y22140D02*
Y23321D01*
X567230Y22672D02*
X568411D01*
X567821Y22081D02*
Y23262D01*
X567289Y8765D02*
X568470D01*
X567880Y8175D02*
Y9356D01*
X581195Y8824D02*
X582376D01*
X581786Y8234D02*
Y9415D01*
M02*
