G04*
G04 #@! TF.GenerationSoftware,Altium Limited,Altium Designer,23.4.1 (23)*
G04*
G04 Layer_Color=8388736*
%FSLAX25Y25*%
%MOIN*%
G70*
G04*
G04 #@! TF.SameCoordinates,6A7C3DE4-8593-4091-87D5-6454EB1C75A9*
G04*
G04*
G04 #@! TF.FilePolarity,Positive*
G04*
G01*
G75*
%ADD14C,0.00500*%
%ADD692C,0.00472*%
G36*
X500098Y304207D02*
X500101Y304193D01*
X500105Y304167D01*
X500109Y304133D01*
X500116Y304096D01*
X500120Y304056D01*
X500123Y303974D01*
Y303945D01*
X500120Y303915D01*
X500116Y303878D01*
X500112Y303834D01*
X500101Y303789D01*
X500090Y303749D01*
X500072Y303708D01*
X500068Y303704D01*
X500061Y303693D01*
X500049Y303678D01*
X500031Y303656D01*
X500012Y303638D01*
X499987Y303615D01*
X499961Y303593D01*
X499927Y303578D01*
X499924D01*
X499909Y303571D01*
X499883Y303567D01*
X499846Y303560D01*
X499798Y303553D01*
X499768Y303549D01*
X499735D01*
X499694Y303545D01*
X499653Y303541D01*
X499609D01*
X499557D01*
X498484D01*
Y303308D01*
X498240D01*
Y303541D01*
X497781D01*
X497593Y303856D01*
X498240D01*
Y304174D01*
X498484D01*
Y303856D01*
X499576D01*
X499583D01*
X499598D01*
X499620D01*
X499646Y303860D01*
X499705Y303863D01*
X499731Y303867D01*
X499750Y303871D01*
X499757Y303874D01*
X499772Y303886D01*
X499790Y303900D01*
X499809Y303926D01*
X499813Y303934D01*
X499820Y303952D01*
X499827Y303985D01*
X499831Y304033D01*
Y304070D01*
X499827Y304089D01*
Y304115D01*
X499824Y304145D01*
X499820Y304174D01*
X500098Y304215D01*
Y304207D01*
D02*
G37*
G36*
Y302716D02*
X499827D01*
X499831Y302713D01*
X499842Y302705D01*
X499857Y302694D01*
X499875Y302676D01*
X499898Y302653D01*
X499927Y302627D01*
X499953Y302598D01*
X499983Y302561D01*
X500012Y302520D01*
X500038Y302476D01*
X500064Y302428D01*
X500090Y302376D01*
X500109Y302317D01*
X500123Y302257D01*
X500135Y302191D01*
X500138Y302124D01*
Y302098D01*
X500135Y302065D01*
X500131Y302024D01*
X500123Y301976D01*
X500112Y301924D01*
X500098Y301873D01*
X500075Y301817D01*
X500072Y301810D01*
X500064Y301795D01*
X500049Y301769D01*
X500031Y301740D01*
X500009Y301702D01*
X499983Y301669D01*
X499953Y301636D01*
X499920Y301606D01*
X499916Y301603D01*
X499901Y301595D01*
X499883Y301584D01*
X499853Y301569D01*
X499820Y301551D01*
X499779Y301536D01*
X499735Y301521D01*
X499687Y301510D01*
X499683D01*
X499668Y301506D01*
X499646Y301503D01*
X499616D01*
X499572Y301499D01*
X499524Y301495D01*
X499461Y301492D01*
X499391D01*
X498240D01*
Y301806D01*
X499272D01*
X499276D01*
X499284D01*
X499295D01*
X499313D01*
X499354D01*
X499406Y301810D01*
X499461D01*
X499517Y301814D01*
X499565Y301817D01*
X499605Y301825D01*
X499609D01*
X499624Y301832D01*
X499646Y301839D01*
X499676Y301851D01*
X499705Y301869D01*
X499739Y301891D01*
X499768Y301917D01*
X499798Y301950D01*
X499801Y301954D01*
X499809Y301969D01*
X499820Y301987D01*
X499831Y302017D01*
X499846Y302050D01*
X499857Y302091D01*
X499864Y302135D01*
X499868Y302187D01*
Y302213D01*
X499864Y302239D01*
X499861Y302272D01*
X499850Y302313D01*
X499838Y302357D01*
X499820Y302406D01*
X499798Y302454D01*
X499794Y302461D01*
X499783Y302476D01*
X499768Y302498D01*
X499746Y302524D01*
X499716Y302554D01*
X499683Y302583D01*
X499646Y302609D01*
X499602Y302631D01*
X499594Y302635D01*
X499579Y302639D01*
X499550Y302646D01*
X499509Y302657D01*
X499457Y302668D01*
X499395Y302676D01*
X499321Y302679D01*
X499235Y302683D01*
X498240D01*
Y302997D01*
X500098D01*
Y302716D01*
D02*
G37*
G36*
X499232Y301125D02*
X499269Y301122D01*
X499306D01*
X499346Y301114D01*
X499439Y301103D01*
X499531Y301081D01*
X499624Y301055D01*
X499709Y301018D01*
X499713D01*
X499716Y301014D01*
X499727Y301007D01*
X499742Y300999D01*
X499779Y300974D01*
X499824Y300940D01*
X499875Y300896D01*
X499927Y300840D01*
X499979Y300778D01*
X500027Y300704D01*
Y300700D01*
X500031Y300696D01*
X500038Y300685D01*
X500046Y300666D01*
X500053Y300648D01*
X500061Y300626D01*
X500083Y300570D01*
X500101Y300507D01*
X500120Y300430D01*
X500135Y300348D01*
X500138Y300259D01*
Y300222D01*
X500135Y300193D01*
X500131Y300160D01*
X500123Y300123D01*
X500116Y300078D01*
X500109Y300034D01*
X500079Y299934D01*
X500057Y299878D01*
X500035Y299827D01*
X500005Y299775D01*
X499972Y299723D01*
X499935Y299675D01*
X499890Y299627D01*
X499887Y299623D01*
X499879Y299616D01*
X499864Y299605D01*
X499842Y299590D01*
X499816Y299571D01*
X499787Y299553D01*
X499750Y299531D01*
X499705Y299508D01*
X499657Y299486D01*
X499602Y299464D01*
X499543Y299446D01*
X499480Y299427D01*
X499409Y299412D01*
X499335Y299401D01*
X499254Y299394D01*
X499169Y299390D01*
X499161D01*
X499147D01*
X499121Y299394D01*
X499084D01*
X499043Y299397D01*
X498991Y299405D01*
X498939Y299412D01*
X498880Y299427D01*
X498821Y299442D01*
X498758Y299460D01*
X498692Y299482D01*
X498629Y299512D01*
X498569Y299542D01*
X498510Y299582D01*
X498455Y299623D01*
X498407Y299675D01*
X498403Y299679D01*
X498399Y299686D01*
X498388Y299701D01*
X498373Y299719D01*
X498358Y299742D01*
X498340Y299771D01*
X498321Y299801D01*
X498303Y299838D01*
X498284Y299878D01*
X498266Y299923D01*
X498233Y300023D01*
X498207Y300137D01*
X498203Y300197D01*
X498199Y300259D01*
Y300296D01*
X498203Y300322D01*
X498207Y300356D01*
X498214Y300393D01*
X498222Y300433D01*
X498229Y300482D01*
X498262Y300581D01*
X498281Y300633D01*
X498307Y300685D01*
X498333Y300737D01*
X498370Y300789D01*
X498407Y300837D01*
X498451Y300885D01*
X498455Y300888D01*
X498462Y300896D01*
X498477Y300907D01*
X498495Y300922D01*
X498521Y300940D01*
X498555Y300962D01*
X498592Y300985D01*
X498632Y301007D01*
X498677Y301029D01*
X498732Y301051D01*
X498788Y301074D01*
X498851Y301092D01*
X498917Y301107D01*
X498987Y301118D01*
X499061Y301125D01*
X499143Y301129D01*
X499147D01*
X499158D01*
X499176D01*
X499202D01*
X499232Y301125D01*
D02*
G37*
G36*
X500098Y299231D02*
X500101Y299216D01*
X500105Y299190D01*
X500109Y299157D01*
X500116Y299120D01*
X500120Y299079D01*
X500123Y298998D01*
Y298968D01*
X500120Y298939D01*
X500116Y298902D01*
X500112Y298857D01*
X500101Y298813D01*
X500090Y298772D01*
X500072Y298731D01*
X500068Y298728D01*
X500061Y298717D01*
X500049Y298702D01*
X500031Y298680D01*
X500012Y298661D01*
X499987Y298639D01*
X499961Y298617D01*
X499927Y298602D01*
X499924D01*
X499909Y298594D01*
X499883Y298591D01*
X499846Y298583D01*
X499798Y298576D01*
X499768Y298572D01*
X499735D01*
X499694Y298569D01*
X499653Y298565D01*
X499609D01*
X499557D01*
X498484D01*
Y298332D01*
X498240D01*
Y298565D01*
X497781D01*
X497593Y298879D01*
X498240D01*
Y299198D01*
X498484D01*
Y298879D01*
X499576D01*
X499583D01*
X499598D01*
X499620D01*
X499646Y298883D01*
X499705Y298887D01*
X499731Y298890D01*
X499750Y298894D01*
X499757Y298898D01*
X499772Y298909D01*
X499790Y298924D01*
X499809Y298950D01*
X499813Y298957D01*
X499820Y298976D01*
X499827Y299009D01*
X499831Y299057D01*
Y299094D01*
X499827Y299113D01*
Y299138D01*
X499824Y299168D01*
X499820Y299198D01*
X500098Y299238D01*
Y299231D01*
D02*
G37*
G36*
Y297740D02*
X499827D01*
X499831Y297736D01*
X499842Y297729D01*
X499857Y297718D01*
X499875Y297699D01*
X499898Y297677D01*
X499927Y297651D01*
X499953Y297621D01*
X499983Y297584D01*
X500012Y297544D01*
X500038Y297499D01*
X500064Y297451D01*
X500090Y297399D01*
X500109Y297340D01*
X500123Y297281D01*
X500135Y297214D01*
X500138Y297148D01*
Y297122D01*
X500135Y297089D01*
X500131Y297048D01*
X500123Y297000D01*
X500112Y296948D01*
X500098Y296896D01*
X500075Y296841D01*
X500072Y296833D01*
X500064Y296818D01*
X500049Y296793D01*
X500031Y296763D01*
X500009Y296726D01*
X499983Y296693D01*
X499953Y296659D01*
X499920Y296630D01*
X499916Y296626D01*
X499901Y296619D01*
X499883Y296608D01*
X499853Y296593D01*
X499820Y296574D01*
X499779Y296560D01*
X499735Y296545D01*
X499687Y296534D01*
X499683D01*
X499668Y296530D01*
X499646Y296526D01*
X499616D01*
X499572Y296522D01*
X499524Y296519D01*
X499461Y296515D01*
X499391D01*
X498240D01*
Y296830D01*
X499272D01*
X499276D01*
X499284D01*
X499295D01*
X499313D01*
X499354D01*
X499406Y296833D01*
X499461D01*
X499517Y296837D01*
X499565Y296841D01*
X499605Y296848D01*
X499609D01*
X499624Y296855D01*
X499646Y296863D01*
X499676Y296874D01*
X499705Y296892D01*
X499739Y296915D01*
X499768Y296941D01*
X499798Y296974D01*
X499801Y296978D01*
X499809Y296992D01*
X499820Y297011D01*
X499831Y297041D01*
X499846Y297074D01*
X499857Y297114D01*
X499864Y297159D01*
X499868Y297211D01*
Y297237D01*
X499864Y297263D01*
X499861Y297296D01*
X499850Y297337D01*
X499838Y297381D01*
X499820Y297429D01*
X499798Y297477D01*
X499794Y297484D01*
X499783Y297499D01*
X499768Y297521D01*
X499746Y297547D01*
X499716Y297577D01*
X499683Y297607D01*
X499646Y297633D01*
X499602Y297655D01*
X499594Y297658D01*
X499579Y297662D01*
X499550Y297670D01*
X499509Y297681D01*
X499457Y297692D01*
X499395Y297699D01*
X499321Y297703D01*
X499235Y297707D01*
X498240D01*
Y298021D01*
X500098D01*
Y297740D01*
D02*
G37*
G36*
X499306Y296141D02*
X499328Y296134D01*
X499358Y296123D01*
X499391Y296112D01*
X499432Y296097D01*
X499476Y296078D01*
X499524Y296056D01*
X499628Y296005D01*
X499731Y295938D01*
X499783Y295897D01*
X499835Y295856D01*
X499879Y295812D01*
X499924Y295760D01*
X499927Y295757D01*
X499935Y295749D01*
X499942Y295731D01*
X499957Y295712D01*
X499975Y295683D01*
X499994Y295653D01*
X500012Y295612D01*
X500031Y295572D01*
X500053Y295524D01*
X500072Y295472D01*
X500090Y295416D01*
X500109Y295357D01*
X500123Y295294D01*
X500131Y295228D01*
X500138Y295157D01*
X500142Y295083D01*
Y295042D01*
X500138Y295013D01*
Y294980D01*
X500135Y294939D01*
X500127Y294895D01*
X500120Y294843D01*
X500101Y294735D01*
X500072Y294624D01*
X500031Y294513D01*
X500005Y294462D01*
X499975Y294410D01*
X499972Y294406D01*
X499968Y294399D01*
X499957Y294384D01*
X499942Y294369D01*
X499927Y294347D01*
X499905Y294321D01*
X499879Y294291D01*
X499850Y294262D01*
X499816Y294232D01*
X499783Y294199D01*
X499698Y294132D01*
X499598Y294069D01*
X499487Y294014D01*
X499483D01*
X499472Y294006D01*
X499454Y294003D01*
X499432Y293992D01*
X499402Y293984D01*
X499365Y293973D01*
X499324Y293958D01*
X499280Y293947D01*
X499232Y293936D01*
X499176Y293921D01*
X499061Y293903D01*
X498932Y293888D01*
X498799Y293881D01*
X498795D01*
X498780D01*
X498758D01*
X498732Y293884D01*
X498695D01*
X498658Y293888D01*
X498610Y293892D01*
X498562Y293899D01*
X498455Y293918D01*
X498336Y293944D01*
X498218Y293981D01*
X498103Y294032D01*
X498100Y294036D01*
X498088Y294040D01*
X498074Y294047D01*
X498055Y294062D01*
X498029Y294077D01*
X498000Y294095D01*
X497933Y294143D01*
X497859Y294206D01*
X497785Y294280D01*
X497711Y294365D01*
X497648Y294465D01*
X497644Y294469D01*
X497641Y294480D01*
X497633Y294495D01*
X497622Y294513D01*
X497611Y294543D01*
X497600Y294573D01*
X497585Y294610D01*
X497570Y294650D01*
X497556Y294695D01*
X497541Y294743D01*
X497519Y294846D01*
X497500Y294965D01*
X497493Y295087D01*
Y295124D01*
X497496Y295150D01*
X497500Y295183D01*
X497504Y295224D01*
X497507Y295265D01*
X497519Y295313D01*
X497541Y295412D01*
X497574Y295524D01*
X497596Y295579D01*
X497622Y295631D01*
X497655Y295683D01*
X497689Y295734D01*
X497692Y295738D01*
X497696Y295745D01*
X497707Y295760D01*
X497726Y295779D01*
X497744Y295797D01*
X497770Y295823D01*
X497800Y295849D01*
X497829Y295879D01*
X497866Y295908D01*
X497911Y295938D01*
X497955Y295971D01*
X498003Y296001D01*
X498059Y296027D01*
X498114Y296056D01*
X498174Y296078D01*
X498240Y296101D01*
X498318Y295768D01*
X498314D01*
X498307Y295764D01*
X498292Y295757D01*
X498273Y295749D01*
X498251Y295742D01*
X498222Y295731D01*
X498162Y295701D01*
X498096Y295664D01*
X498029Y295620D01*
X497966Y295564D01*
X497911Y295505D01*
X497903Y295498D01*
X497889Y295475D01*
X497870Y295438D01*
X497844Y295390D01*
X497822Y295327D01*
X497800Y295257D01*
X497785Y295172D01*
X497781Y295079D01*
Y295050D01*
X497785Y295031D01*
Y295005D01*
X497789Y294976D01*
X497800Y294906D01*
X497815Y294828D01*
X497840Y294746D01*
X497878Y294661D01*
X497926Y294584D01*
Y294580D01*
X497933Y294576D01*
X497952Y294550D01*
X497981Y294517D01*
X498026Y294476D01*
X498081Y294428D01*
X498144Y294384D01*
X498222Y294343D01*
X498307Y294306D01*
X498310D01*
X498318Y294303D01*
X498329Y294299D01*
X498347Y294295D01*
X498370Y294288D01*
X498395Y294280D01*
X498458Y294269D01*
X498532Y294254D01*
X498614Y294240D01*
X498703Y294232D01*
X498799Y294229D01*
X498803D01*
X498814D01*
X498832D01*
X498854D01*
X498880Y294232D01*
X498913D01*
X498950Y294236D01*
X498991Y294240D01*
X499080Y294251D01*
X499176Y294269D01*
X499272Y294291D01*
X499369Y294321D01*
X499372D01*
X499380Y294325D01*
X499391Y294332D01*
X499409Y294339D01*
X499454Y294362D01*
X499506Y294395D01*
X499565Y294436D01*
X499628Y294488D01*
X499683Y294547D01*
X499735Y294617D01*
Y294621D01*
X499739Y294628D01*
X499746Y294639D01*
X499753Y294654D01*
X499761Y294672D01*
X499772Y294695D01*
X499794Y294746D01*
X499816Y294813D01*
X499835Y294887D01*
X499850Y294969D01*
X499853Y295054D01*
Y295079D01*
X499850Y295102D01*
Y295128D01*
X499846Y295153D01*
X499831Y295220D01*
X499813Y295298D01*
X499783Y295375D01*
X499742Y295457D01*
X499720Y295498D01*
X499690Y295535D01*
X499687Y295538D01*
X499683Y295542D01*
X499672Y295553D01*
X499661Y295568D01*
X499642Y295583D01*
X499620Y295601D01*
X499598Y295623D01*
X499568Y295642D01*
X499535Y295664D01*
X499498Y295690D01*
X499461Y295712D01*
X499417Y295734D01*
X499369Y295753D01*
X499317Y295771D01*
X499261Y295790D01*
X499202Y295805D01*
X499287Y296145D01*
X499291D01*
X499306Y296141D01*
D02*
G37*
G36*
X473734Y304285D02*
X473738Y304270D01*
X473741Y304244D01*
X473745Y304211D01*
X473752Y304174D01*
X473756Y304133D01*
X473760Y304052D01*
Y304022D01*
X473756Y303993D01*
X473752Y303956D01*
X473749Y303911D01*
X473738Y303867D01*
X473727Y303826D01*
X473708Y303785D01*
X473704Y303782D01*
X473697Y303770D01*
X473686Y303756D01*
X473667Y303733D01*
X473649Y303715D01*
X473623Y303693D01*
X473597Y303671D01*
X473564Y303656D01*
X473560D01*
X473545Y303648D01*
X473519Y303645D01*
X473482Y303637D01*
X473434Y303630D01*
X473405Y303626D01*
X473371D01*
X473331Y303623D01*
X473290Y303619D01*
X473245D01*
X473194D01*
X472121D01*
Y303386D01*
X471876D01*
Y303619D01*
X471418D01*
X471229Y303933D01*
X471876D01*
Y304252D01*
X472121D01*
Y303933D01*
X473212D01*
X473220D01*
X473234D01*
X473257D01*
X473282Y303937D01*
X473342Y303941D01*
X473368Y303944D01*
X473386Y303948D01*
X473393Y303952D01*
X473408Y303963D01*
X473427Y303978D01*
X473445Y304004D01*
X473449Y304011D01*
X473456Y304029D01*
X473464Y304063D01*
X473467Y304111D01*
Y304148D01*
X473464Y304166D01*
Y304192D01*
X473460Y304222D01*
X473456Y304252D01*
X473734Y304292D01*
Y304285D01*
D02*
G37*
G36*
Y302794D02*
X473464D01*
X473467Y302790D01*
X473479Y302783D01*
X473493Y302771D01*
X473512Y302753D01*
X473534Y302731D01*
X473564Y302705D01*
X473590Y302675D01*
X473619Y302638D01*
X473649Y302598D01*
X473675Y302553D01*
X473701Y302505D01*
X473727Y302453D01*
X473745Y302394D01*
X473760Y302335D01*
X473771Y302268D01*
X473775Y302202D01*
Y302176D01*
X473771Y302143D01*
X473767Y302102D01*
X473760Y302054D01*
X473749Y302002D01*
X473734Y301950D01*
X473712Y301895D01*
X473708Y301887D01*
X473701Y301872D01*
X473686Y301847D01*
X473667Y301817D01*
X473645Y301780D01*
X473619Y301747D01*
X473590Y301713D01*
X473556Y301684D01*
X473553Y301680D01*
X473538Y301673D01*
X473519Y301661D01*
X473490Y301647D01*
X473456Y301628D01*
X473416Y301613D01*
X473371Y301599D01*
X473323Y301588D01*
X473319D01*
X473305Y301584D01*
X473282Y301580D01*
X473253D01*
X473209Y301576D01*
X473160Y301573D01*
X473098Y301569D01*
X473027D01*
X471876D01*
Y301884D01*
X472909D01*
X472913D01*
X472920D01*
X472931D01*
X472950D01*
X472990D01*
X473042Y301887D01*
X473098D01*
X473153Y301891D01*
X473201Y301895D01*
X473242Y301902D01*
X473245D01*
X473260Y301909D01*
X473282Y301917D01*
X473312Y301928D01*
X473342Y301946D01*
X473375Y301969D01*
X473405Y301994D01*
X473434Y302028D01*
X473438Y302031D01*
X473445Y302046D01*
X473456Y302065D01*
X473467Y302094D01*
X473482Y302128D01*
X473493Y302168D01*
X473501Y302213D01*
X473504Y302265D01*
Y302291D01*
X473501Y302316D01*
X473497Y302350D01*
X473486Y302390D01*
X473475Y302435D01*
X473456Y302483D01*
X473434Y302531D01*
X473430Y302538D01*
X473419Y302553D01*
X473405Y302575D01*
X473382Y302601D01*
X473353Y302631D01*
X473319Y302660D01*
X473282Y302686D01*
X473238Y302709D01*
X473231Y302712D01*
X473216Y302716D01*
X473186Y302723D01*
X473146Y302734D01*
X473094Y302746D01*
X473031Y302753D01*
X472957Y302757D01*
X472872Y302760D01*
X471876D01*
Y303075D01*
X473734D01*
Y302794D01*
D02*
G37*
G36*
X472868Y301203D02*
X472905Y301199D01*
X472942D01*
X472983Y301192D01*
X473075Y301181D01*
X473168Y301158D01*
X473260Y301132D01*
X473345Y301095D01*
X473349D01*
X473353Y301092D01*
X473364Y301084D01*
X473379Y301077D01*
X473416Y301051D01*
X473460Y301018D01*
X473512Y300973D01*
X473564Y300918D01*
X473616Y300855D01*
X473664Y300781D01*
Y300777D01*
X473667Y300774D01*
X473675Y300762D01*
X473682Y300744D01*
X473690Y300725D01*
X473697Y300703D01*
X473719Y300648D01*
X473738Y300585D01*
X473756Y300507D01*
X473771Y300426D01*
X473775Y300337D01*
Y300300D01*
X473771Y300270D01*
X473767Y300237D01*
X473760Y300200D01*
X473752Y300156D01*
X473745Y300111D01*
X473715Y300011D01*
X473693Y299956D01*
X473671Y299904D01*
X473641Y299852D01*
X473608Y299800D01*
X473571Y299752D01*
X473527Y299704D01*
X473523Y299700D01*
X473516Y299693D01*
X473501Y299682D01*
X473479Y299667D01*
X473453Y299649D01*
X473423Y299630D01*
X473386Y299608D01*
X473342Y299586D01*
X473294Y299564D01*
X473238Y299541D01*
X473179Y299523D01*
X473116Y299504D01*
X473046Y299490D01*
X472972Y299479D01*
X472890Y299471D01*
X472805Y299467D01*
X472798D01*
X472783D01*
X472757Y299471D01*
X472720D01*
X472679Y299475D01*
X472628Y299482D01*
X472576Y299490D01*
X472517Y299504D01*
X472457Y299519D01*
X472395Y299538D01*
X472328Y299560D01*
X472265Y299589D01*
X472206Y299619D01*
X472147Y299660D01*
X472091Y299700D01*
X472043Y299752D01*
X472039Y299756D01*
X472036Y299763D01*
X472024Y299778D01*
X472010Y299797D01*
X471995Y299819D01*
X471976Y299849D01*
X471958Y299878D01*
X471939Y299915D01*
X471921Y299956D01*
X471902Y300000D01*
X471869Y300100D01*
X471843Y300215D01*
X471840Y300274D01*
X471836Y300337D01*
Y300374D01*
X471840Y300400D01*
X471843Y300433D01*
X471851Y300470D01*
X471858Y300511D01*
X471865Y300559D01*
X471899Y300659D01*
X471917Y300711D01*
X471943Y300762D01*
X471969Y300814D01*
X472006Y300866D01*
X472043Y300914D01*
X472087Y300962D01*
X472091Y300966D01*
X472098Y300973D01*
X472113Y300984D01*
X472132Y300999D01*
X472158Y301018D01*
X472191Y301040D01*
X472228Y301062D01*
X472269Y301084D01*
X472313Y301107D01*
X472369Y301129D01*
X472424Y301151D01*
X472487Y301169D01*
X472554Y301184D01*
X472624Y301195D01*
X472698Y301203D01*
X472779Y301206D01*
X472783D01*
X472794D01*
X472813D01*
X472838D01*
X472868Y301203D01*
D02*
G37*
G36*
X473734Y299308D02*
X473738Y299293D01*
X473741Y299268D01*
X473745Y299234D01*
X473752Y299197D01*
X473756Y299157D01*
X473760Y299075D01*
Y299046D01*
X473756Y299016D01*
X473752Y298979D01*
X473749Y298935D01*
X473738Y298890D01*
X473727Y298850D01*
X473708Y298809D01*
X473704Y298805D01*
X473697Y298794D01*
X473686Y298779D01*
X473667Y298757D01*
X473649Y298739D01*
X473623Y298716D01*
X473597Y298694D01*
X473564Y298679D01*
X473560D01*
X473545Y298672D01*
X473519Y298668D01*
X473482Y298661D01*
X473434Y298653D01*
X473405Y298650D01*
X473371D01*
X473331Y298646D01*
X473290Y298642D01*
X473245D01*
X473194D01*
X472121D01*
Y298409D01*
X471876D01*
Y298642D01*
X471418D01*
X471229Y298957D01*
X471876D01*
Y299275D01*
X472121D01*
Y298957D01*
X473212D01*
X473220D01*
X473234D01*
X473257D01*
X473282Y298960D01*
X473342Y298964D01*
X473368Y298968D01*
X473386Y298972D01*
X473393Y298975D01*
X473408Y298986D01*
X473427Y299001D01*
X473445Y299027D01*
X473449Y299035D01*
X473456Y299053D01*
X473464Y299086D01*
X473467Y299134D01*
Y299171D01*
X473464Y299190D01*
Y299216D01*
X473460Y299245D01*
X473456Y299275D01*
X473734Y299316D01*
Y299308D01*
D02*
G37*
G36*
Y297817D02*
X473464D01*
X473467Y297814D01*
X473479Y297806D01*
X473493Y297795D01*
X473512Y297777D01*
X473534Y297754D01*
X473564Y297728D01*
X473590Y297699D01*
X473619Y297662D01*
X473649Y297621D01*
X473675Y297577D01*
X473701Y297529D01*
X473727Y297477D01*
X473745Y297418D01*
X473760Y297358D01*
X473771Y297292D01*
X473775Y297225D01*
Y297199D01*
X473771Y297166D01*
X473767Y297125D01*
X473760Y297077D01*
X473749Y297025D01*
X473734Y296974D01*
X473712Y296918D01*
X473708Y296911D01*
X473701Y296896D01*
X473686Y296870D01*
X473667Y296840D01*
X473645Y296803D01*
X473619Y296770D01*
X473590Y296737D01*
X473556Y296707D01*
X473553Y296704D01*
X473538Y296696D01*
X473519Y296685D01*
X473490Y296670D01*
X473456Y296652D01*
X473416Y296637D01*
X473371Y296622D01*
X473323Y296611D01*
X473319D01*
X473305Y296607D01*
X473282Y296604D01*
X473253D01*
X473209Y296600D01*
X473160Y296596D01*
X473098Y296592D01*
X473027D01*
X471876D01*
Y296907D01*
X472909D01*
X472913D01*
X472920D01*
X472931D01*
X472950D01*
X472990D01*
X473042Y296911D01*
X473098D01*
X473153Y296914D01*
X473201Y296918D01*
X473242Y296925D01*
X473245D01*
X473260Y296933D01*
X473282Y296940D01*
X473312Y296951D01*
X473342Y296970D01*
X473375Y296992D01*
X473405Y297018D01*
X473434Y297051D01*
X473438Y297055D01*
X473445Y297070D01*
X473456Y297088D01*
X473467Y297118D01*
X473482Y297151D01*
X473493Y297192D01*
X473501Y297236D01*
X473504Y297288D01*
Y297314D01*
X473501Y297340D01*
X473497Y297373D01*
X473486Y297414D01*
X473475Y297458D01*
X473456Y297506D01*
X473434Y297554D01*
X473430Y297562D01*
X473419Y297577D01*
X473405Y297599D01*
X473382Y297625D01*
X473353Y297654D01*
X473319Y297684D01*
X473282Y297710D01*
X473238Y297732D01*
X473231Y297736D01*
X473216Y297740D01*
X473186Y297747D01*
X473146Y297758D01*
X473094Y297769D01*
X473031Y297777D01*
X472957Y297780D01*
X472872Y297784D01*
X471876D01*
Y298098D01*
X473734D01*
Y297817D01*
D02*
G37*
G36*
X472942Y296219D02*
X472964Y296211D01*
X472994Y296200D01*
X473027Y296189D01*
X473068Y296174D01*
X473112Y296156D01*
X473160Y296134D01*
X473264Y296082D01*
X473368Y296015D01*
X473419Y295975D01*
X473471Y295934D01*
X473516Y295889D01*
X473560Y295838D01*
X473564Y295834D01*
X473571Y295827D01*
X473579Y295808D01*
X473593Y295790D01*
X473612Y295760D01*
X473630Y295730D01*
X473649Y295690D01*
X473667Y295649D01*
X473690Y295601D01*
X473708Y295549D01*
X473727Y295494D01*
X473745Y295434D01*
X473760Y295372D01*
X473767Y295305D01*
X473775Y295235D01*
X473778Y295161D01*
Y295120D01*
X473775Y295090D01*
Y295057D01*
X473771Y295016D01*
X473764Y294972D01*
X473756Y294920D01*
X473738Y294813D01*
X473708Y294702D01*
X473667Y294591D01*
X473641Y294539D01*
X473612Y294487D01*
X473608Y294483D01*
X473604Y294476D01*
X473593Y294461D01*
X473579Y294446D01*
X473564Y294424D01*
X473541Y294398D01*
X473516Y294369D01*
X473486Y294339D01*
X473453Y294310D01*
X473419Y294276D01*
X473334Y294210D01*
X473234Y294147D01*
X473123Y294091D01*
X473120D01*
X473109Y294084D01*
X473090Y294080D01*
X473068Y294069D01*
X473038Y294062D01*
X473001Y294051D01*
X472961Y294036D01*
X472916Y294025D01*
X472868Y294014D01*
X472813Y293999D01*
X472698Y293980D01*
X472568Y293966D01*
X472435Y293958D01*
X472432D01*
X472417D01*
X472395D01*
X472369Y293962D01*
X472332D01*
X472295Y293966D01*
X472247Y293969D01*
X472198Y293977D01*
X472091Y293995D01*
X471973Y294021D01*
X471854Y294058D01*
X471740Y294110D01*
X471736Y294113D01*
X471725Y294117D01*
X471710Y294125D01*
X471692Y294139D01*
X471666Y294154D01*
X471636Y294173D01*
X471569Y294221D01*
X471495Y294284D01*
X471421Y294358D01*
X471347Y294443D01*
X471284Y294543D01*
X471281Y294546D01*
X471277Y294557D01*
X471270Y294572D01*
X471259Y294591D01*
X471247Y294620D01*
X471236Y294650D01*
X471222Y294687D01*
X471207Y294728D01*
X471192Y294772D01*
X471177Y294820D01*
X471155Y294924D01*
X471137Y295042D01*
X471129Y295164D01*
Y295201D01*
X471133Y295227D01*
X471137Y295261D01*
X471140Y295301D01*
X471144Y295342D01*
X471155Y295390D01*
X471177Y295490D01*
X471210Y295601D01*
X471233Y295656D01*
X471259Y295708D01*
X471292Y295760D01*
X471325Y295812D01*
X471329Y295815D01*
X471333Y295823D01*
X471344Y295838D01*
X471362Y295856D01*
X471381Y295875D01*
X471407Y295901D01*
X471436Y295926D01*
X471466Y295956D01*
X471503Y295986D01*
X471547Y296015D01*
X471592Y296049D01*
X471640Y296078D01*
X471695Y296104D01*
X471751Y296134D01*
X471810Y296156D01*
X471876Y296178D01*
X471954Y295845D01*
X471950D01*
X471943Y295841D01*
X471928Y295834D01*
X471910Y295827D01*
X471888Y295819D01*
X471858Y295808D01*
X471799Y295778D01*
X471732Y295742D01*
X471666Y295697D01*
X471603Y295642D01*
X471547Y295582D01*
X471540Y295575D01*
X471525Y295553D01*
X471507Y295516D01*
X471481Y295468D01*
X471458Y295405D01*
X471436Y295335D01*
X471421Y295249D01*
X471418Y295157D01*
Y295127D01*
X471421Y295109D01*
Y295083D01*
X471425Y295053D01*
X471436Y294983D01*
X471451Y294905D01*
X471477Y294824D01*
X471514Y294739D01*
X471562Y294661D01*
Y294657D01*
X471569Y294654D01*
X471588Y294628D01*
X471618Y294595D01*
X471662Y294554D01*
X471717Y294506D01*
X471780Y294461D01*
X471858Y294421D01*
X471943Y294384D01*
X471947D01*
X471954Y294380D01*
X471965Y294376D01*
X471984Y294373D01*
X472006Y294365D01*
X472032Y294358D01*
X472095Y294347D01*
X472169Y294332D01*
X472250Y294317D01*
X472339Y294310D01*
X472435Y294306D01*
X472439D01*
X472450D01*
X472469D01*
X472491D01*
X472517Y294310D01*
X472550D01*
X472587Y294313D01*
X472628Y294317D01*
X472716Y294328D01*
X472813Y294347D01*
X472909Y294369D01*
X473005Y294398D01*
X473009D01*
X473016Y294402D01*
X473027Y294409D01*
X473046Y294417D01*
X473090Y294439D01*
X473142Y294472D01*
X473201Y294513D01*
X473264Y294565D01*
X473319Y294624D01*
X473371Y294694D01*
Y294698D01*
X473375Y294706D01*
X473382Y294717D01*
X473390Y294731D01*
X473397Y294750D01*
X473408Y294772D01*
X473430Y294824D01*
X473453Y294890D01*
X473471Y294965D01*
X473486Y295046D01*
X473490Y295131D01*
Y295157D01*
X473486Y295179D01*
Y295205D01*
X473482Y295231D01*
X473467Y295298D01*
X473449Y295375D01*
X473419Y295453D01*
X473379Y295534D01*
X473356Y295575D01*
X473327Y295612D01*
X473323Y295616D01*
X473319Y295619D01*
X473308Y295631D01*
X473297Y295645D01*
X473279Y295660D01*
X473257Y295679D01*
X473234Y295701D01*
X473205Y295719D01*
X473172Y295742D01*
X473135Y295767D01*
X473098Y295790D01*
X473053Y295812D01*
X473005Y295830D01*
X472953Y295849D01*
X472898Y295867D01*
X472838Y295882D01*
X472924Y296222D01*
X472927D01*
X472942Y296219D01*
D02*
G37*
G36*
X481711Y288026D02*
X481744Y288022D01*
X481785Y288019D01*
X481826Y288015D01*
X481874Y288004D01*
X481974Y287982D01*
X482085Y287948D01*
X482140Y287926D01*
X482192Y287900D01*
X482244Y287867D01*
X482296Y287834D01*
X482299Y287830D01*
X482307Y287826D01*
X482322Y287815D01*
X482340Y287797D01*
X482359Y287778D01*
X482384Y287752D01*
X482410Y287723D01*
X482440Y287693D01*
X482470Y287656D01*
X482499Y287612D01*
X482532Y287567D01*
X482562Y287519D01*
X482588Y287464D01*
X482618Y287408D01*
X482640Y287349D01*
X482662Y287282D01*
X482329Y287205D01*
Y287209D01*
X482325Y287216D01*
X482318Y287231D01*
X482310Y287249D01*
X482303Y287271D01*
X482292Y287301D01*
X482262Y287360D01*
X482225Y287427D01*
X482181Y287493D01*
X482125Y287556D01*
X482066Y287612D01*
X482059Y287619D01*
X482037Y287634D01*
X482000Y287652D01*
X481952Y287678D01*
X481889Y287701D01*
X481818Y287723D01*
X481733Y287738D01*
X481641Y287741D01*
X481611D01*
X481593Y287738D01*
X481567D01*
X481537Y287734D01*
X481467Y287723D01*
X481389Y287708D01*
X481308Y287682D01*
X481223Y287645D01*
X481145Y287597D01*
X481141D01*
X481138Y287590D01*
X481112Y287571D01*
X481078Y287542D01*
X481038Y287497D01*
X480990Y287442D01*
X480945Y287379D01*
X480904Y287301D01*
X480867Y287216D01*
Y287212D01*
X480864Y287205D01*
X480860Y287194D01*
X480856Y287175D01*
X480849Y287153D01*
X480841Y287127D01*
X480830Y287064D01*
X480816Y286990D01*
X480801Y286909D01*
X480793Y286820D01*
X480790Y286724D01*
Y286720D01*
Y286709D01*
Y286690D01*
Y286668D01*
X480793Y286642D01*
Y286609D01*
X480797Y286572D01*
X480801Y286531D01*
X480812Y286443D01*
X480830Y286346D01*
X480853Y286250D01*
X480882Y286154D01*
Y286150D01*
X480886Y286143D01*
X480893Y286132D01*
X480901Y286113D01*
X480923Y286069D01*
X480956Y286017D01*
X480997Y285958D01*
X481049Y285895D01*
X481108Y285840D01*
X481178Y285788D01*
X481182D01*
X481189Y285784D01*
X481200Y285777D01*
X481215Y285769D01*
X481234Y285762D01*
X481256Y285751D01*
X481308Y285729D01*
X481374Y285706D01*
X481448Y285688D01*
X481530Y285673D01*
X481615Y285669D01*
X481641D01*
X481663Y285673D01*
X481689D01*
X481715Y285677D01*
X481781Y285691D01*
X481859Y285710D01*
X481937Y285740D01*
X482018Y285780D01*
X482059Y285803D01*
X482096Y285832D01*
X482099Y285836D01*
X482103Y285840D01*
X482114Y285851D01*
X482129Y285862D01*
X482144Y285880D01*
X482162Y285902D01*
X482185Y285925D01*
X482203Y285954D01*
X482225Y285987D01*
X482251Y286024D01*
X482273Y286062D01*
X482296Y286106D01*
X482314Y286154D01*
X482333Y286206D01*
X482351Y286261D01*
X482366Y286320D01*
X482706Y286235D01*
Y286232D01*
X482703Y286217D01*
X482695Y286195D01*
X482684Y286165D01*
X482673Y286132D01*
X482658Y286091D01*
X482640Y286047D01*
X482618Y285999D01*
X482566Y285895D01*
X482499Y285791D01*
X482458Y285740D01*
X482418Y285688D01*
X482373Y285643D01*
X482322Y285599D01*
X482318Y285595D01*
X482310Y285588D01*
X482292Y285580D01*
X482273Y285566D01*
X482244Y285547D01*
X482214Y285529D01*
X482173Y285510D01*
X482133Y285492D01*
X482085Y285470D01*
X482033Y285451D01*
X481977Y285433D01*
X481918Y285414D01*
X481855Y285399D01*
X481789Y285392D01*
X481718Y285384D01*
X481644Y285381D01*
X481604D01*
X481574Y285384D01*
X481541D01*
X481500Y285388D01*
X481456Y285396D01*
X481404Y285403D01*
X481297Y285421D01*
X481186Y285451D01*
X481075Y285492D01*
X481023Y285518D01*
X480971Y285547D01*
X480967Y285551D01*
X480960Y285555D01*
X480945Y285566D01*
X480930Y285580D01*
X480908Y285595D01*
X480882Y285617D01*
X480853Y285643D01*
X480823Y285673D01*
X480793Y285706D01*
X480760Y285740D01*
X480693Y285825D01*
X480631Y285925D01*
X480575Y286036D01*
Y286039D01*
X480568Y286050D01*
X480564Y286069D01*
X480553Y286091D01*
X480546Y286121D01*
X480534Y286158D01*
X480520Y286198D01*
X480509Y286243D01*
X480497Y286291D01*
X480483Y286346D01*
X480464Y286461D01*
X480449Y286591D01*
X480442Y286724D01*
Y286727D01*
Y286742D01*
Y286765D01*
X480446Y286790D01*
Y286827D01*
X480449Y286864D01*
X480453Y286912D01*
X480460Y286961D01*
X480479Y287068D01*
X480505Y287186D01*
X480542Y287305D01*
X480594Y287419D01*
X480597Y287423D01*
X480601Y287434D01*
X480608Y287449D01*
X480623Y287468D01*
X480638Y287493D01*
X480656Y287523D01*
X480705Y287590D01*
X480767Y287664D01*
X480841Y287738D01*
X480927Y287812D01*
X481027Y287875D01*
X481030Y287878D01*
X481041Y287882D01*
X481056Y287889D01*
X481075Y287900D01*
X481104Y287912D01*
X481134Y287923D01*
X481171Y287937D01*
X481212Y287952D01*
X481256Y287967D01*
X481304Y287982D01*
X481408Y288004D01*
X481526Y288022D01*
X481648Y288030D01*
X481685D01*
X481711Y288026D01*
D02*
G37*
G36*
X489559Y285425D02*
X489278D01*
Y285695D01*
X489274Y285691D01*
X489266Y285680D01*
X489255Y285666D01*
X489237Y285647D01*
X489215Y285625D01*
X489189Y285595D01*
X489159Y285569D01*
X489122Y285540D01*
X489081Y285510D01*
X489037Y285484D01*
X488989Y285458D01*
X488937Y285433D01*
X488878Y285414D01*
X488819Y285399D01*
X488752Y285388D01*
X488686Y285384D01*
X488660D01*
X488626Y285388D01*
X488586Y285392D01*
X488538Y285399D01*
X488486Y285410D01*
X488434Y285425D01*
X488378Y285447D01*
X488371Y285451D01*
X488356Y285458D01*
X488330Y285473D01*
X488301Y285492D01*
X488264Y285514D01*
X488230Y285540D01*
X488197Y285569D01*
X488167Y285603D01*
X488164Y285606D01*
X488156Y285621D01*
X488145Y285640D01*
X488131Y285669D01*
X488112Y285703D01*
X488097Y285743D01*
X488082Y285788D01*
X488071Y285836D01*
Y285840D01*
X488068Y285854D01*
X488064Y285876D01*
Y285906D01*
X488060Y285950D01*
X488057Y285999D01*
X488053Y286062D01*
Y286132D01*
Y287282D01*
X488367D01*
Y286250D01*
Y286246D01*
Y286239D01*
Y286228D01*
Y286210D01*
Y286169D01*
X488371Y286117D01*
Y286062D01*
X488375Y286006D01*
X488378Y285958D01*
X488386Y285917D01*
Y285913D01*
X488393Y285899D01*
X488401Y285876D01*
X488412Y285847D01*
X488430Y285817D01*
X488452Y285784D01*
X488478Y285754D01*
X488512Y285725D01*
X488515Y285721D01*
X488530Y285714D01*
X488549Y285703D01*
X488578Y285691D01*
X488612Y285677D01*
X488652Y285666D01*
X488697Y285658D01*
X488748Y285654D01*
X488774D01*
X488800Y285658D01*
X488834Y285662D01*
X488874Y285673D01*
X488919Y285684D01*
X488967Y285703D01*
X489015Y285725D01*
X489022Y285729D01*
X489037Y285740D01*
X489059Y285754D01*
X489085Y285777D01*
X489115Y285806D01*
X489144Y285840D01*
X489170Y285876D01*
X489192Y285921D01*
X489196Y285928D01*
X489200Y285943D01*
X489207Y285973D01*
X489218Y286013D01*
X489229Y286065D01*
X489237Y286128D01*
X489241Y286202D01*
X489244Y286287D01*
Y287282D01*
X489559D01*
Y285425D01*
D02*
G37*
G36*
X484582D02*
X484301D01*
Y285695D01*
X484297Y285691D01*
X484290Y285680D01*
X484279Y285666D01*
X484260Y285647D01*
X484238Y285625D01*
X484212Y285595D01*
X484183Y285569D01*
X484146Y285540D01*
X484105Y285510D01*
X484060Y285484D01*
X484012Y285458D01*
X483961Y285433D01*
X483901Y285414D01*
X483842Y285399D01*
X483776Y285388D01*
X483709Y285384D01*
X483683D01*
X483650Y285388D01*
X483609Y285392D01*
X483561Y285399D01*
X483509Y285410D01*
X483457Y285425D01*
X483402Y285447D01*
X483394Y285451D01*
X483380Y285458D01*
X483354Y285473D01*
X483324Y285492D01*
X483287Y285514D01*
X483254Y285540D01*
X483221Y285569D01*
X483191Y285603D01*
X483187Y285606D01*
X483180Y285621D01*
X483169Y285640D01*
X483154Y285669D01*
X483136Y285703D01*
X483121Y285743D01*
X483106Y285788D01*
X483095Y285836D01*
Y285840D01*
X483091Y285854D01*
X483087Y285876D01*
Y285906D01*
X483084Y285950D01*
X483080Y285999D01*
X483076Y286062D01*
Y286132D01*
Y287282D01*
X483391D01*
Y286250D01*
Y286246D01*
Y286239D01*
Y286228D01*
Y286210D01*
Y286169D01*
X483394Y286117D01*
Y286062D01*
X483398Y286006D01*
X483402Y285958D01*
X483409Y285917D01*
Y285913D01*
X483417Y285899D01*
X483424Y285876D01*
X483435Y285847D01*
X483454Y285817D01*
X483476Y285784D01*
X483502Y285754D01*
X483535Y285725D01*
X483539Y285721D01*
X483554Y285714D01*
X483572Y285703D01*
X483602Y285691D01*
X483635Y285677D01*
X483676Y285666D01*
X483720Y285658D01*
X483772Y285654D01*
X483798D01*
X483824Y285658D01*
X483857Y285662D01*
X483898Y285673D01*
X483942Y285684D01*
X483990Y285703D01*
X484038Y285725D01*
X484046Y285729D01*
X484060Y285740D01*
X484083Y285754D01*
X484109Y285777D01*
X484138Y285806D01*
X484168Y285840D01*
X484194Y285876D01*
X484216Y285921D01*
X484220Y285928D01*
X484223Y285943D01*
X484231Y285973D01*
X484242Y286013D01*
X484253Y286065D01*
X484260Y286128D01*
X484264Y286202D01*
X484268Y286287D01*
Y287282D01*
X484582D01*
Y285425D01*
D02*
G37*
G36*
X490417Y287282D02*
X490735D01*
Y287038D01*
X490417D01*
Y285947D01*
Y285939D01*
Y285925D01*
Y285902D01*
X490421Y285876D01*
X490424Y285817D01*
X490428Y285791D01*
X490432Y285773D01*
X490436Y285766D01*
X490447Y285751D01*
X490461Y285732D01*
X490487Y285714D01*
X490495Y285710D01*
X490513Y285703D01*
X490547Y285695D01*
X490595Y285691D01*
X490632D01*
X490650Y285695D01*
X490676D01*
X490706Y285699D01*
X490735Y285703D01*
X490776Y285425D01*
X490769D01*
X490754Y285421D01*
X490728Y285418D01*
X490695Y285414D01*
X490658Y285407D01*
X490617Y285403D01*
X490535Y285399D01*
X490506D01*
X490476Y285403D01*
X490439Y285407D01*
X490395Y285410D01*
X490350Y285421D01*
X490310Y285433D01*
X490269Y285451D01*
X490265Y285455D01*
X490254Y285462D01*
X490239Y285473D01*
X490217Y285492D01*
X490199Y285510D01*
X490177Y285536D01*
X490154Y285562D01*
X490140Y285595D01*
Y285599D01*
X490132Y285614D01*
X490129Y285640D01*
X490121Y285677D01*
X490114Y285725D01*
X490110Y285754D01*
Y285788D01*
X490106Y285828D01*
X490103Y285869D01*
Y285913D01*
Y285965D01*
Y287038D01*
X489869D01*
Y287282D01*
X490103D01*
Y287741D01*
X490417Y287930D01*
Y287282D01*
D02*
G37*
G36*
X485441D02*
X485759D01*
Y287038D01*
X485441D01*
Y285947D01*
Y285939D01*
Y285925D01*
Y285902D01*
X485444Y285876D01*
X485448Y285817D01*
X485452Y285791D01*
X485455Y285773D01*
X485459Y285766D01*
X485470Y285751D01*
X485485Y285732D01*
X485511Y285714D01*
X485518Y285710D01*
X485537Y285703D01*
X485570Y285695D01*
X485618Y285691D01*
X485655D01*
X485674Y285695D01*
X485700D01*
X485729Y285699D01*
X485759Y285703D01*
X485800Y285425D01*
X485792D01*
X485777Y285421D01*
X485751Y285418D01*
X485718Y285414D01*
X485681Y285407D01*
X485640Y285403D01*
X485559Y285399D01*
X485529D01*
X485500Y285403D01*
X485463Y285407D01*
X485418Y285410D01*
X485374Y285421D01*
X485333Y285433D01*
X485293Y285451D01*
X485289Y285455D01*
X485278Y285462D01*
X485263Y285473D01*
X485241Y285492D01*
X485222Y285510D01*
X485200Y285536D01*
X485178Y285562D01*
X485163Y285595D01*
Y285599D01*
X485156Y285614D01*
X485152Y285640D01*
X485145Y285677D01*
X485137Y285725D01*
X485134Y285754D01*
Y285788D01*
X485130Y285828D01*
X485126Y285869D01*
Y285913D01*
Y285965D01*
Y287038D01*
X484893D01*
Y287282D01*
X485126D01*
Y287741D01*
X485441Y287930D01*
Y287282D01*
D02*
G37*
G36*
X486884Y287319D02*
X486917Y287316D01*
X486954Y287308D01*
X486995Y287301D01*
X487043Y287294D01*
X487143Y287260D01*
X487194Y287242D01*
X487246Y287216D01*
X487298Y287190D01*
X487350Y287153D01*
X487398Y287116D01*
X487446Y287072D01*
X487450Y287068D01*
X487457Y287060D01*
X487468Y287046D01*
X487483Y287027D01*
X487501Y287001D01*
X487524Y286968D01*
X487546Y286931D01*
X487568Y286890D01*
X487590Y286846D01*
X487612Y286790D01*
X487635Y286735D01*
X487653Y286672D01*
X487668Y286605D01*
X487679Y286535D01*
X487686Y286461D01*
X487690Y286380D01*
Y286376D01*
Y286365D01*
Y286346D01*
Y286320D01*
X487686Y286291D01*
X487683Y286254D01*
Y286217D01*
X487675Y286176D01*
X487664Y286084D01*
X487642Y285991D01*
X487616Y285899D01*
X487579Y285814D01*
Y285810D01*
X487575Y285806D01*
X487568Y285795D01*
X487561Y285780D01*
X487535Y285743D01*
X487501Y285699D01*
X487457Y285647D01*
X487402Y285595D01*
X487339Y285543D01*
X487265Y285495D01*
X487261D01*
X487257Y285492D01*
X487246Y285484D01*
X487228Y285477D01*
X487209Y285470D01*
X487187Y285462D01*
X487132Y285440D01*
X487069Y285421D01*
X486991Y285403D01*
X486909Y285388D01*
X486821Y285384D01*
X486784D01*
X486754Y285388D01*
X486721Y285392D01*
X486684Y285399D01*
X486639Y285407D01*
X486595Y285414D01*
X486495Y285444D01*
X486440Y285466D01*
X486388Y285488D01*
X486336Y285518D01*
X486284Y285551D01*
X486236Y285588D01*
X486188Y285632D01*
X486184Y285636D01*
X486177Y285643D01*
X486166Y285658D01*
X486151Y285680D01*
X486132Y285706D01*
X486114Y285736D01*
X486092Y285773D01*
X486070Y285817D01*
X486047Y285865D01*
X486025Y285921D01*
X486007Y285980D01*
X485988Y286043D01*
X485973Y286113D01*
X485962Y286187D01*
X485955Y286269D01*
X485951Y286354D01*
Y286361D01*
Y286376D01*
X485955Y286402D01*
Y286439D01*
X485959Y286480D01*
X485966Y286531D01*
X485973Y286583D01*
X485988Y286642D01*
X486003Y286702D01*
X486022Y286765D01*
X486044Y286831D01*
X486073Y286894D01*
X486103Y286953D01*
X486144Y287012D01*
X486184Y287068D01*
X486236Y287116D01*
X486240Y287120D01*
X486247Y287123D01*
X486262Y287135D01*
X486280Y287149D01*
X486303Y287164D01*
X486332Y287183D01*
X486362Y287201D01*
X486399Y287220D01*
X486440Y287238D01*
X486484Y287257D01*
X486584Y287290D01*
X486699Y287316D01*
X486758Y287319D01*
X486821Y287323D01*
X486858D01*
X486884Y287319D01*
D02*
G37*
G36*
X481711Y312296D02*
X481744Y312292D01*
X481785Y312288D01*
X481826Y312285D01*
X481874Y312274D01*
X481974Y312251D01*
X482085Y312218D01*
X482140Y312196D01*
X482192Y312170D01*
X482244Y312137D01*
X482296Y312103D01*
X482299Y312100D01*
X482307Y312096D01*
X482322Y312085D01*
X482340Y312066D01*
X482359Y312048D01*
X482384Y312022D01*
X482410Y311992D01*
X482440Y311963D01*
X482470Y311926D01*
X482499Y311881D01*
X482532Y311837D01*
X482562Y311789D01*
X482588Y311733D01*
X482618Y311678D01*
X482640Y311619D01*
X482662Y311552D01*
X482329Y311474D01*
Y311478D01*
X482325Y311486D01*
X482318Y311500D01*
X482310Y311519D01*
X482303Y311541D01*
X482292Y311571D01*
X482262Y311630D01*
X482225Y311696D01*
X482181Y311763D01*
X482125Y311826D01*
X482066Y311881D01*
X482059Y311889D01*
X482037Y311904D01*
X482000Y311922D01*
X481952Y311948D01*
X481889Y311970D01*
X481818Y311992D01*
X481733Y312007D01*
X481641Y312011D01*
X481611D01*
X481593Y312007D01*
X481567D01*
X481537Y312003D01*
X481467Y311992D01*
X481389Y311978D01*
X481308Y311952D01*
X481223Y311915D01*
X481145Y311867D01*
X481141D01*
X481138Y311859D01*
X481112Y311841D01*
X481078Y311811D01*
X481038Y311767D01*
X480990Y311711D01*
X480945Y311648D01*
X480904Y311571D01*
X480867Y311486D01*
Y311482D01*
X480864Y311474D01*
X480860Y311463D01*
X480856Y311445D01*
X480849Y311423D01*
X480841Y311397D01*
X480830Y311334D01*
X480816Y311260D01*
X480801Y311178D01*
X480793Y311090D01*
X480790Y310993D01*
Y310990D01*
Y310979D01*
Y310960D01*
Y310938D01*
X480793Y310912D01*
Y310879D01*
X480797Y310842D01*
X480801Y310801D01*
X480812Y310712D01*
X480830Y310616D01*
X480853Y310520D01*
X480882Y310424D01*
Y310420D01*
X480886Y310413D01*
X480893Y310401D01*
X480901Y310383D01*
X480923Y310338D01*
X480956Y310287D01*
X480997Y310227D01*
X481049Y310165D01*
X481108Y310109D01*
X481178Y310057D01*
X481182D01*
X481189Y310054D01*
X481200Y310046D01*
X481215Y310039D01*
X481234Y310031D01*
X481256Y310020D01*
X481308Y309998D01*
X481374Y309976D01*
X481448Y309957D01*
X481530Y309943D01*
X481615Y309939D01*
X481641D01*
X481663Y309943D01*
X481689D01*
X481715Y309946D01*
X481781Y309961D01*
X481859Y309980D01*
X481937Y310009D01*
X482018Y310050D01*
X482059Y310072D01*
X482096Y310102D01*
X482099Y310105D01*
X482103Y310109D01*
X482114Y310120D01*
X482129Y310131D01*
X482144Y310150D01*
X482162Y310172D01*
X482185Y310194D01*
X482203Y310224D01*
X482225Y310257D01*
X482251Y310294D01*
X482273Y310331D01*
X482296Y310375D01*
X482314Y310424D01*
X482333Y310475D01*
X482351Y310531D01*
X482366Y310590D01*
X482706Y310505D01*
Y310501D01*
X482703Y310487D01*
X482695Y310464D01*
X482684Y310435D01*
X482673Y310401D01*
X482658Y310361D01*
X482640Y310316D01*
X482618Y310268D01*
X482566Y310165D01*
X482499Y310061D01*
X482458Y310009D01*
X482418Y309957D01*
X482373Y309913D01*
X482322Y309869D01*
X482318Y309865D01*
X482310Y309858D01*
X482292Y309850D01*
X482273Y309835D01*
X482244Y309817D01*
X482214Y309798D01*
X482173Y309780D01*
X482133Y309761D01*
X482085Y309739D01*
X482033Y309721D01*
X481977Y309702D01*
X481918Y309684D01*
X481855Y309669D01*
X481789Y309661D01*
X481718Y309654D01*
X481644Y309650D01*
X481604D01*
X481574Y309654D01*
X481541D01*
X481500Y309658D01*
X481456Y309665D01*
X481404Y309672D01*
X481297Y309691D01*
X481186Y309721D01*
X481075Y309761D01*
X481023Y309787D01*
X480971Y309817D01*
X480967Y309821D01*
X480960Y309824D01*
X480945Y309835D01*
X480930Y309850D01*
X480908Y309865D01*
X480882Y309887D01*
X480853Y309913D01*
X480823Y309943D01*
X480793Y309976D01*
X480760Y310009D01*
X480693Y310094D01*
X480631Y310194D01*
X480575Y310305D01*
Y310309D01*
X480568Y310320D01*
X480564Y310338D01*
X480553Y310361D01*
X480546Y310390D01*
X480534Y310427D01*
X480520Y310468D01*
X480509Y310512D01*
X480497Y310560D01*
X480483Y310616D01*
X480464Y310731D01*
X480449Y310860D01*
X480442Y310993D01*
Y310997D01*
Y311012D01*
Y311034D01*
X480446Y311060D01*
Y311097D01*
X480449Y311134D01*
X480453Y311182D01*
X480460Y311230D01*
X480479Y311337D01*
X480505Y311456D01*
X480542Y311574D01*
X480594Y311689D01*
X480597Y311693D01*
X480601Y311704D01*
X480608Y311719D01*
X480623Y311737D01*
X480638Y311763D01*
X480656Y311793D01*
X480705Y311859D01*
X480767Y311933D01*
X480841Y312007D01*
X480927Y312081D01*
X481027Y312144D01*
X481030Y312148D01*
X481041Y312152D01*
X481056Y312159D01*
X481075Y312170D01*
X481104Y312181D01*
X481134Y312192D01*
X481171Y312207D01*
X481212Y312222D01*
X481256Y312237D01*
X481304Y312251D01*
X481408Y312274D01*
X481526Y312292D01*
X481648Y312299D01*
X481685D01*
X481711Y312296D01*
D02*
G37*
G36*
X489559Y309695D02*
X489278D01*
Y309965D01*
X489274Y309961D01*
X489266Y309950D01*
X489255Y309935D01*
X489237Y309917D01*
X489215Y309894D01*
X489189Y309865D01*
X489159Y309839D01*
X489122Y309809D01*
X489081Y309780D01*
X489037Y309754D01*
X488989Y309728D01*
X488937Y309702D01*
X488878Y309684D01*
X488819Y309669D01*
X488752Y309658D01*
X488686Y309654D01*
X488660D01*
X488626Y309658D01*
X488586Y309661D01*
X488538Y309669D01*
X488486Y309680D01*
X488434Y309695D01*
X488378Y309717D01*
X488371Y309721D01*
X488356Y309728D01*
X488330Y309743D01*
X488301Y309761D01*
X488264Y309784D01*
X488230Y309809D01*
X488197Y309839D01*
X488167Y309872D01*
X488164Y309876D01*
X488156Y309891D01*
X488145Y309909D01*
X488131Y309939D01*
X488112Y309972D01*
X488097Y310013D01*
X488082Y310057D01*
X488071Y310105D01*
Y310109D01*
X488068Y310124D01*
X488064Y310146D01*
Y310176D01*
X488060Y310220D01*
X488057Y310268D01*
X488053Y310331D01*
Y310401D01*
Y311552D01*
X488367D01*
Y310520D01*
Y310516D01*
Y310509D01*
Y310498D01*
Y310479D01*
Y310438D01*
X488371Y310387D01*
Y310331D01*
X488375Y310276D01*
X488378Y310227D01*
X488386Y310187D01*
Y310183D01*
X488393Y310168D01*
X488401Y310146D01*
X488412Y310117D01*
X488430Y310087D01*
X488452Y310054D01*
X488478Y310024D01*
X488512Y309994D01*
X488515Y309991D01*
X488530Y309983D01*
X488549Y309972D01*
X488578Y309961D01*
X488612Y309946D01*
X488652Y309935D01*
X488697Y309928D01*
X488748Y309924D01*
X488774D01*
X488800Y309928D01*
X488834Y309931D01*
X488874Y309943D01*
X488919Y309954D01*
X488967Y309972D01*
X489015Y309994D01*
X489022Y309998D01*
X489037Y310009D01*
X489059Y310024D01*
X489085Y310046D01*
X489115Y310076D01*
X489144Y310109D01*
X489170Y310146D01*
X489192Y310191D01*
X489196Y310198D01*
X489200Y310213D01*
X489207Y310242D01*
X489218Y310283D01*
X489229Y310335D01*
X489237Y310398D01*
X489241Y310472D01*
X489244Y310557D01*
Y311552D01*
X489559D01*
Y309695D01*
D02*
G37*
G36*
X484582D02*
X484301D01*
Y309965D01*
X484297Y309961D01*
X484290Y309950D01*
X484279Y309935D01*
X484260Y309917D01*
X484238Y309894D01*
X484212Y309865D01*
X484183Y309839D01*
X484146Y309809D01*
X484105Y309780D01*
X484060Y309754D01*
X484012Y309728D01*
X483961Y309702D01*
X483901Y309684D01*
X483842Y309669D01*
X483776Y309658D01*
X483709Y309654D01*
X483683D01*
X483650Y309658D01*
X483609Y309661D01*
X483561Y309669D01*
X483509Y309680D01*
X483457Y309695D01*
X483402Y309717D01*
X483394Y309721D01*
X483380Y309728D01*
X483354Y309743D01*
X483324Y309761D01*
X483287Y309784D01*
X483254Y309809D01*
X483221Y309839D01*
X483191Y309872D01*
X483187Y309876D01*
X483180Y309891D01*
X483169Y309909D01*
X483154Y309939D01*
X483136Y309972D01*
X483121Y310013D01*
X483106Y310057D01*
X483095Y310105D01*
Y310109D01*
X483091Y310124D01*
X483087Y310146D01*
Y310176D01*
X483084Y310220D01*
X483080Y310268D01*
X483076Y310331D01*
Y310401D01*
Y311552D01*
X483391D01*
Y310520D01*
Y310516D01*
Y310509D01*
Y310498D01*
Y310479D01*
Y310438D01*
X483394Y310387D01*
Y310331D01*
X483398Y310276D01*
X483402Y310227D01*
X483409Y310187D01*
Y310183D01*
X483417Y310168D01*
X483424Y310146D01*
X483435Y310117D01*
X483454Y310087D01*
X483476Y310054D01*
X483502Y310024D01*
X483535Y309994D01*
X483539Y309991D01*
X483554Y309983D01*
X483572Y309972D01*
X483602Y309961D01*
X483635Y309946D01*
X483676Y309935D01*
X483720Y309928D01*
X483772Y309924D01*
X483798D01*
X483824Y309928D01*
X483857Y309931D01*
X483898Y309943D01*
X483942Y309954D01*
X483990Y309972D01*
X484038Y309994D01*
X484046Y309998D01*
X484060Y310009D01*
X484083Y310024D01*
X484109Y310046D01*
X484138Y310076D01*
X484168Y310109D01*
X484194Y310146D01*
X484216Y310191D01*
X484220Y310198D01*
X484223Y310213D01*
X484231Y310242D01*
X484242Y310283D01*
X484253Y310335D01*
X484260Y310398D01*
X484264Y310472D01*
X484268Y310557D01*
Y311552D01*
X484582D01*
Y309695D01*
D02*
G37*
G36*
X490417Y311552D02*
X490735D01*
Y311308D01*
X490417D01*
Y310216D01*
Y310209D01*
Y310194D01*
Y310172D01*
X490421Y310146D01*
X490424Y310087D01*
X490428Y310061D01*
X490432Y310043D01*
X490436Y310035D01*
X490447Y310020D01*
X490461Y310002D01*
X490487Y309983D01*
X490495Y309980D01*
X490513Y309972D01*
X490547Y309965D01*
X490595Y309961D01*
X490632D01*
X490650Y309965D01*
X490676D01*
X490706Y309968D01*
X490735Y309972D01*
X490776Y309695D01*
X490769D01*
X490754Y309691D01*
X490728Y309687D01*
X490695Y309684D01*
X490658Y309676D01*
X490617Y309672D01*
X490535Y309669D01*
X490506D01*
X490476Y309672D01*
X490439Y309676D01*
X490395Y309680D01*
X490350Y309691D01*
X490310Y309702D01*
X490269Y309721D01*
X490265Y309724D01*
X490254Y309732D01*
X490239Y309743D01*
X490217Y309761D01*
X490199Y309780D01*
X490177Y309806D01*
X490154Y309832D01*
X490140Y309865D01*
Y309869D01*
X490132Y309883D01*
X490129Y309909D01*
X490121Y309946D01*
X490114Y309994D01*
X490110Y310024D01*
Y310057D01*
X490106Y310098D01*
X490103Y310139D01*
Y310183D01*
Y310235D01*
Y311308D01*
X489869D01*
Y311552D01*
X490103D01*
Y312011D01*
X490417Y312200D01*
Y311552D01*
D02*
G37*
G36*
X485441D02*
X485759D01*
Y311308D01*
X485441D01*
Y310216D01*
Y310209D01*
Y310194D01*
Y310172D01*
X485444Y310146D01*
X485448Y310087D01*
X485452Y310061D01*
X485455Y310043D01*
X485459Y310035D01*
X485470Y310020D01*
X485485Y310002D01*
X485511Y309983D01*
X485518Y309980D01*
X485537Y309972D01*
X485570Y309965D01*
X485618Y309961D01*
X485655D01*
X485674Y309965D01*
X485700D01*
X485729Y309968D01*
X485759Y309972D01*
X485800Y309695D01*
X485792D01*
X485777Y309691D01*
X485751Y309687D01*
X485718Y309684D01*
X485681Y309676D01*
X485640Y309672D01*
X485559Y309669D01*
X485529D01*
X485500Y309672D01*
X485463Y309676D01*
X485418Y309680D01*
X485374Y309691D01*
X485333Y309702D01*
X485293Y309721D01*
X485289Y309724D01*
X485278Y309732D01*
X485263Y309743D01*
X485241Y309761D01*
X485222Y309780D01*
X485200Y309806D01*
X485178Y309832D01*
X485163Y309865D01*
Y309869D01*
X485156Y309883D01*
X485152Y309909D01*
X485145Y309946D01*
X485137Y309994D01*
X485134Y310024D01*
Y310057D01*
X485130Y310098D01*
X485126Y310139D01*
Y310183D01*
Y310235D01*
Y311308D01*
X484893D01*
Y311552D01*
X485126D01*
Y312011D01*
X485441Y312200D01*
Y311552D01*
D02*
G37*
G36*
X486884Y311589D02*
X486917Y311585D01*
X486954Y311578D01*
X486995Y311571D01*
X487043Y311563D01*
X487143Y311530D01*
X487194Y311511D01*
X487246Y311486D01*
X487298Y311460D01*
X487350Y311423D01*
X487398Y311386D01*
X487446Y311341D01*
X487450Y311337D01*
X487457Y311330D01*
X487468Y311315D01*
X487483Y311297D01*
X487501Y311271D01*
X487524Y311238D01*
X487546Y311201D01*
X487568Y311160D01*
X487590Y311116D01*
X487612Y311060D01*
X487635Y311004D01*
X487653Y310942D01*
X487668Y310875D01*
X487679Y310805D01*
X487686Y310731D01*
X487690Y310649D01*
Y310646D01*
Y310634D01*
Y310616D01*
Y310590D01*
X487686Y310560D01*
X487683Y310524D01*
Y310487D01*
X487675Y310446D01*
X487664Y310353D01*
X487642Y310261D01*
X487616Y310168D01*
X487579Y310083D01*
Y310080D01*
X487575Y310076D01*
X487568Y310065D01*
X487561Y310050D01*
X487535Y310013D01*
X487501Y309968D01*
X487457Y309917D01*
X487402Y309865D01*
X487339Y309813D01*
X487265Y309765D01*
X487261D01*
X487257Y309761D01*
X487246Y309754D01*
X487228Y309747D01*
X487209Y309739D01*
X487187Y309732D01*
X487132Y309710D01*
X487069Y309691D01*
X486991Y309672D01*
X486909Y309658D01*
X486821Y309654D01*
X486784D01*
X486754Y309658D01*
X486721Y309661D01*
X486684Y309669D01*
X486639Y309676D01*
X486595Y309684D01*
X486495Y309713D01*
X486440Y309735D01*
X486388Y309758D01*
X486336Y309787D01*
X486284Y309821D01*
X486236Y309858D01*
X486188Y309902D01*
X486184Y309906D01*
X486177Y309913D01*
X486166Y309928D01*
X486151Y309950D01*
X486132Y309976D01*
X486114Y310005D01*
X486092Y310043D01*
X486070Y310087D01*
X486047Y310135D01*
X486025Y310191D01*
X486007Y310250D01*
X485988Y310313D01*
X485973Y310383D01*
X485962Y310457D01*
X485955Y310538D01*
X485951Y310623D01*
Y310631D01*
Y310646D01*
X485955Y310671D01*
Y310708D01*
X485959Y310749D01*
X485966Y310801D01*
X485973Y310853D01*
X485988Y310912D01*
X486003Y310971D01*
X486022Y311034D01*
X486044Y311101D01*
X486073Y311164D01*
X486103Y311223D01*
X486144Y311282D01*
X486184Y311337D01*
X486236Y311386D01*
X486240Y311389D01*
X486247Y311393D01*
X486262Y311404D01*
X486280Y311419D01*
X486303Y311434D01*
X486332Y311452D01*
X486362Y311471D01*
X486399Y311489D01*
X486440Y311508D01*
X486484Y311526D01*
X486584Y311560D01*
X486699Y311585D01*
X486758Y311589D01*
X486821Y311593D01*
X486858D01*
X486884Y311589D01*
D02*
G37*
%LPC*%
G36*
X499224Y300807D02*
X499158D01*
X499154D01*
X499143D01*
X499124D01*
X499102Y300803D01*
X499073D01*
X499039Y300800D01*
X498962Y300789D01*
X498880Y300770D01*
X498791Y300741D01*
X498710Y300700D01*
X498669Y300678D01*
X498636Y300648D01*
X498632D01*
X498629Y300641D01*
X498606Y300618D01*
X498581Y300585D01*
X498547Y300541D01*
X498514Y300485D01*
X498484Y300419D01*
X498466Y300345D01*
X498462Y300304D01*
X498458Y300259D01*
Y300237D01*
X498462Y300219D01*
X498466Y300178D01*
X498481Y300123D01*
X498503Y300060D01*
X498532Y299993D01*
X498577Y299930D01*
X498606Y299897D01*
X498636Y299867D01*
X498640D01*
X498643Y299860D01*
X498655Y299852D01*
X498669Y299841D01*
X498688Y299830D01*
X498710Y299819D01*
X498740Y299804D01*
X498769Y299790D01*
X498806Y299775D01*
X498843Y299760D01*
X498888Y299749D01*
X498936Y299738D01*
X498987Y299727D01*
X499043Y299719D01*
X499106Y299716D01*
X499169Y299712D01*
X499172D01*
X499184D01*
X499202D01*
X499228Y299716D01*
X499258D01*
X499291Y299719D01*
X499369Y299730D01*
X499457Y299749D01*
X499546Y299779D01*
X499631Y299816D01*
X499668Y299841D01*
X499705Y299867D01*
Y299871D01*
X499713Y299875D01*
X499731Y299897D01*
X499761Y299930D01*
X499790Y299975D01*
X499824Y300030D01*
X499853Y300097D01*
X499872Y300174D01*
X499875Y300215D01*
X499879Y300259D01*
Y300282D01*
X499875Y300300D01*
X499868Y300341D01*
X499857Y300396D01*
X499835Y300456D01*
X499805Y300522D01*
X499761Y300585D01*
X499731Y300618D01*
X499702Y300648D01*
X499698Y300652D01*
X499694Y300655D01*
X499683Y300663D01*
X499668Y300674D01*
X499650Y300685D01*
X499628Y300700D01*
X499598Y300715D01*
X499568Y300729D01*
X499531Y300744D01*
X499491Y300755D01*
X499446Y300770D01*
X499398Y300781D01*
X499343Y300792D01*
X499287Y300800D01*
X499224Y300807D01*
D02*
G37*
G36*
X472861Y300885D02*
X472794D01*
X472790D01*
X472779D01*
X472761D01*
X472739Y300881D01*
X472709D01*
X472676Y300877D01*
X472598Y300866D01*
X472517Y300848D01*
X472428Y300818D01*
X472346Y300777D01*
X472306Y300755D01*
X472272Y300725D01*
X472269D01*
X472265Y300718D01*
X472243Y300696D01*
X472217Y300662D01*
X472184Y300618D01*
X472150Y300563D01*
X472121Y300496D01*
X472102Y300422D01*
X472098Y300381D01*
X472095Y300337D01*
Y300315D01*
X472098Y300296D01*
X472102Y300255D01*
X472117Y300200D01*
X472139Y300137D01*
X472169Y300071D01*
X472213Y300008D01*
X472243Y299974D01*
X472272Y299945D01*
X472276D01*
X472280Y299937D01*
X472291Y299930D01*
X472306Y299919D01*
X472324Y299908D01*
X472346Y299897D01*
X472376Y299882D01*
X472406Y299867D01*
X472443Y299852D01*
X472480Y299837D01*
X472524Y299826D01*
X472572Y299815D01*
X472624Y299804D01*
X472679Y299797D01*
X472742Y299793D01*
X472805Y299789D01*
X472809D01*
X472820D01*
X472838D01*
X472864Y299793D01*
X472894D01*
X472927Y299797D01*
X473005Y299808D01*
X473094Y299826D01*
X473183Y299856D01*
X473268Y299893D01*
X473305Y299919D01*
X473342Y299945D01*
Y299948D01*
X473349Y299952D01*
X473368Y299974D01*
X473397Y300008D01*
X473427Y300052D01*
X473460Y300108D01*
X473490Y300174D01*
X473508Y300252D01*
X473512Y300292D01*
X473516Y300337D01*
Y300359D01*
X473512Y300378D01*
X473504Y300418D01*
X473493Y300474D01*
X473471Y300533D01*
X473442Y300600D01*
X473397Y300662D01*
X473368Y300696D01*
X473338Y300725D01*
X473334Y300729D01*
X473331Y300733D01*
X473319Y300740D01*
X473305Y300751D01*
X473286Y300762D01*
X473264Y300777D01*
X473234Y300792D01*
X473205Y300807D01*
X473168Y300822D01*
X473127Y300833D01*
X473083Y300848D01*
X473035Y300859D01*
X472979Y300870D01*
X472924Y300877D01*
X472861Y300885D01*
D02*
G37*
G36*
X486821Y287064D02*
X486798D01*
X486780Y287060D01*
X486739Y287057D01*
X486684Y287042D01*
X486621Y287020D01*
X486554Y286990D01*
X486491Y286946D01*
X486458Y286916D01*
X486428Y286887D01*
Y286883D01*
X486421Y286879D01*
X486414Y286868D01*
X486403Y286853D01*
X486391Y286835D01*
X486380Y286813D01*
X486366Y286783D01*
X486351Y286753D01*
X486336Y286716D01*
X486321Y286679D01*
X486310Y286635D01*
X486299Y286587D01*
X486288Y286535D01*
X486280Y286480D01*
X486277Y286417D01*
X486273Y286354D01*
Y286350D01*
Y286339D01*
Y286320D01*
X486277Y286295D01*
Y286265D01*
X486280Y286232D01*
X486292Y286154D01*
X486310Y286065D01*
X486340Y285976D01*
X486377Y285891D01*
X486403Y285854D01*
X486428Y285817D01*
X486432D01*
X486436Y285810D01*
X486458Y285791D01*
X486491Y285762D01*
X486536Y285732D01*
X486591Y285699D01*
X486658Y285669D01*
X486736Y285651D01*
X486776Y285647D01*
X486821Y285643D01*
X486843D01*
X486861Y285647D01*
X486902Y285654D01*
X486958Y285666D01*
X487017Y285688D01*
X487083Y285717D01*
X487146Y285762D01*
X487180Y285791D01*
X487209Y285821D01*
X487213Y285825D01*
X487217Y285828D01*
X487224Y285840D01*
X487235Y285854D01*
X487246Y285873D01*
X487261Y285895D01*
X487276Y285925D01*
X487291Y285954D01*
X487305Y285991D01*
X487317Y286032D01*
X487331Y286076D01*
X487342Y286124D01*
X487354Y286180D01*
X487361Y286235D01*
X487368Y286298D01*
Y286365D01*
Y286369D01*
Y286380D01*
Y286398D01*
X487365Y286420D01*
Y286450D01*
X487361Y286483D01*
X487350Y286561D01*
X487331Y286642D01*
X487302Y286731D01*
X487261Y286813D01*
X487239Y286853D01*
X487209Y286887D01*
Y286890D01*
X487202Y286894D01*
X487180Y286916D01*
X487146Y286942D01*
X487102Y286975D01*
X487046Y287009D01*
X486980Y287038D01*
X486906Y287057D01*
X486865Y287060D01*
X486821Y287064D01*
D02*
G37*
G36*
Y311334D02*
X486798D01*
X486780Y311330D01*
X486739Y311326D01*
X486684Y311312D01*
X486621Y311289D01*
X486554Y311260D01*
X486491Y311215D01*
X486458Y311186D01*
X486428Y311156D01*
Y311153D01*
X486421Y311149D01*
X486414Y311138D01*
X486403Y311123D01*
X486391Y311104D01*
X486380Y311082D01*
X486366Y311053D01*
X486351Y311023D01*
X486336Y310986D01*
X486321Y310949D01*
X486310Y310905D01*
X486299Y310857D01*
X486288Y310805D01*
X486280Y310749D01*
X486277Y310686D01*
X486273Y310623D01*
Y310620D01*
Y310609D01*
Y310590D01*
X486277Y310564D01*
Y310535D01*
X486280Y310501D01*
X486292Y310424D01*
X486310Y310335D01*
X486340Y310246D01*
X486377Y310161D01*
X486403Y310124D01*
X486428Y310087D01*
X486432D01*
X486436Y310080D01*
X486458Y310061D01*
X486491Y310031D01*
X486536Y310002D01*
X486591Y309968D01*
X486658Y309939D01*
X486736Y309920D01*
X486776Y309917D01*
X486821Y309913D01*
X486843D01*
X486861Y309917D01*
X486902Y309924D01*
X486958Y309935D01*
X487017Y309957D01*
X487083Y309987D01*
X487146Y310031D01*
X487180Y310061D01*
X487209Y310091D01*
X487213Y310094D01*
X487217Y310098D01*
X487224Y310109D01*
X487235Y310124D01*
X487246Y310142D01*
X487261Y310165D01*
X487276Y310194D01*
X487291Y310224D01*
X487305Y310261D01*
X487317Y310301D01*
X487331Y310346D01*
X487342Y310394D01*
X487354Y310450D01*
X487361Y310505D01*
X487368Y310568D01*
Y310634D01*
Y310638D01*
Y310649D01*
Y310668D01*
X487365Y310690D01*
Y310720D01*
X487361Y310753D01*
X487350Y310831D01*
X487331Y310912D01*
X487302Y311001D01*
X487261Y311082D01*
X487239Y311123D01*
X487209Y311156D01*
Y311160D01*
X487202Y311164D01*
X487180Y311186D01*
X487146Y311212D01*
X487102Y311245D01*
X487046Y311278D01*
X486980Y311308D01*
X486906Y311326D01*
X486865Y311330D01*
X486821Y311334D01*
D02*
G37*
%LPD*%
D14*
X0Y0D02*
X590551D01*
X0Y433071D02*
X590551D01*
Y0D02*
Y433071D01*
X0Y0D02*
Y433071D01*
D692*
X474814Y301800D02*
G03*
X475672Y300941I858J0D01*
G01*
X476855Y308744D02*
G03*
X474814Y306703I0J-2042D01*
G01*
X475672Y296742D02*
G03*
X474814Y295883I0J-858D01*
G01*
Y290981D02*
G03*
X476855Y288939I2042J0D01*
G01*
X488596Y289486D02*
G03*
X489127Y288956I531J0D01*
G01*
X489158Y291126D02*
G03*
X488596Y290564I0J-562D01*
G01*
X482170Y288956D02*
G03*
X482701Y289486I0J531D01*
G01*
Y290564D02*
G03*
X482139Y291126I-562J0D01*
G01*
X493519Y301658D02*
G03*
X494235Y300941I716J0D01*
G01*
Y296742D02*
G03*
X493519Y296025I0J-716D01*
G01*
X489127Y308728D02*
G03*
X488596Y308197I0J-531D01*
G01*
X478847Y306557D02*
G03*
X477778Y305489I0J-1068D01*
G01*
X488596Y307119D02*
G03*
X489158Y306557I562J0D01*
G01*
X493519Y305489D02*
G03*
X492451Y306557I-1068J0D01*
G01*
X482701Y308197D02*
G03*
X482170Y308728I-531J0D01*
G01*
X482139Y306557D02*
G03*
X482701Y307119I0J562D01*
G01*
X477778Y296025D02*
G03*
X477062Y296742I-716J0D01*
G01*
X492451Y291126D02*
G03*
X493519Y292194I0J1068D01*
G01*
X495625Y300941D02*
G03*
X496484Y301800I0J858D01*
G01*
X494442Y288939D02*
G03*
X496484Y290981I0J2042D01*
G01*
Y295883D02*
G03*
X495625Y296742I-858J0D01*
G01*
X496484Y306703D02*
G03*
X494442Y308744I-2042J0D01*
G01*
X477778Y292194D02*
G03*
X478847Y291126I1068J0D01*
G01*
X477062Y300941D02*
G03*
X477778Y301658I0J716D01*
G01*
X474814Y301800D02*
Y306703D01*
X475672Y300941D02*
X477062D01*
X475672Y296742D02*
X477062D01*
X474814Y290981D02*
Y295883D01*
X478847Y291126D02*
X482139D01*
X488597Y289486D02*
Y290564D01*
X482701Y289486D02*
Y290564D01*
X489127Y288939D02*
X494442D01*
X494236Y296742D02*
X495625D01*
X489158Y291126D02*
X492451D01*
X494236Y300941D02*
X495625D01*
X493519Y292194D02*
Y296025D01*
X477778Y301658D02*
Y305489D01*
X489158Y306557D02*
X492451D01*
X493519Y301658D02*
Y305489D01*
X488597Y307119D02*
Y308197D01*
X482701Y307119D02*
Y308197D01*
X478847Y306557D02*
X482139D01*
X476855Y288939D02*
X482170D01*
X496484Y290981D02*
Y295883D01*
X476855Y308744D02*
X482170D01*
X496484Y301800D02*
Y306703D01*
X489127Y308744D02*
X494442D01*
X477778Y292194D02*
Y296025D01*
M02*
