G04*
G04 #@! TF.GenerationSoftware,Altium Limited,Altium Designer,23.4.1 (23)*
G04*
G04 Layer_Color=32896*
%FSLAX25Y25*%
%MOIN*%
G70*
G04*
G04 #@! TF.SameCoordinates,6A7C3DE4-8593-4091-87D5-6454EB1C75A9*
G04*
G04*
G04 #@! TF.FilePolarity,Positive*
G04*
G01*
G75*
%ADD10C,0.00630*%
%ADD13C,0.00394*%
%ADD14C,0.00500*%
%ADD15C,0.01000*%
%ADD16C,0.00013*%
%ADD18C,0.00787*%
%ADD21C,0.00600*%
%ADD31R,0.04000X0.01300*%
%ADD193C,0.00800*%
%ADD688C,0.00472*%
%ADD689R,0.01300X0.04000*%
%ADD690R,0.07300X0.01150*%
%ADD691R,0.02754X0.06200*%
D10*
X296918Y405961D02*
G03*
X296918Y405961I-155J0D01*
G01*
X364973Y403761D02*
G03*
X364973Y403761I-155J0D01*
G01*
D13*
X325300Y24400D02*
X325800Y24900D01*
X324800D02*
X325300Y24400D01*
X324800Y24900D02*
X325800D01*
X375000Y11903D02*
X376000D01*
X375500Y12403D02*
X376000Y11903D01*
X375000D02*
X375500Y12403D01*
X345100Y11903D02*
X345600Y12403D01*
X346100Y11903D01*
X345100D02*
X346100D01*
X315000D02*
X316000D01*
X315500Y12403D02*
X316000Y11903D01*
X315000D02*
X315500Y12403D01*
X297400Y25000D02*
X298400D01*
X297400D02*
X297900Y24500D01*
X298400Y25000D01*
X355300Y24400D02*
X355800Y24900D01*
X354800D02*
X355300Y24400D01*
X354800Y24900D02*
X355800D01*
X526200Y65500D02*
X527200D01*
X526700Y66000D02*
X527200Y65500D01*
X526200D02*
X526700Y66000D01*
X526285Y120208D02*
X526785Y120708D01*
X527285Y120208D01*
X526285D02*
X527285D01*
D14*
X46556Y379108D02*
G03*
X48952Y379200I1197J92D01*
G01*
X51352D02*
G03*
X48952Y379200I-1200J0D01*
G01*
X508256Y263537D02*
G03*
X508256Y263537I-394J0D01*
G01*
X490960Y28637D02*
X494860D01*
Y23137D02*
Y28637D01*
X487460Y22337D02*
X490060D01*
X495360Y20337D02*
Y21337D01*
X494860Y20837D02*
X495360Y21337D01*
X494860Y20837D02*
X495360Y20337D01*
X482660Y28637D02*
X486560D01*
X482660Y23137D02*
Y28637D01*
X476700Y14700D02*
X480600D01*
Y9200D02*
Y14700D01*
X473200Y8400D02*
X475800D01*
X481100Y6400D02*
Y7400D01*
X480600Y6900D02*
X481100Y7400D01*
X480600Y6900D02*
X481100Y6400D01*
X468400Y14700D02*
X472300D01*
X468400Y9200D02*
Y14700D01*
X502250Y32183D02*
Y38383D01*
Y32183D02*
X505450D01*
X502250Y38383D02*
X505450D01*
Y32183D02*
Y38383D01*
X295663Y400661D02*
Y403161D01*
X300063Y400661D02*
Y403161D01*
X156999Y299800D02*
X160199D01*
Y301800D01*
X156999Y299800D02*
Y301800D01*
Y306000D02*
X160199D01*
Y304000D02*
Y306000D01*
X156999Y304000D02*
Y306000D01*
X455489Y316549D02*
Y318549D01*
X458689Y316549D02*
Y318549D01*
X455489D02*
X458689D01*
X455489Y312349D02*
Y314349D01*
X458689Y312349D02*
Y314349D01*
X455489Y312349D02*
X458689D01*
X531705Y323764D02*
Y326964D01*
X529705D02*
X531705D01*
X529705Y323764D02*
X531705D01*
X525505D02*
Y326964D01*
X527505D01*
X525505Y323764D02*
X527505D01*
X490462Y350813D02*
X496662D01*
X490462Y347613D02*
Y350813D01*
X496662Y347613D02*
Y350813D01*
X490462Y347613D02*
X496662D01*
X493825Y323881D02*
Y330081D01*
Y323881D02*
X497025D01*
X493825Y330081D02*
X497025D01*
Y323881D02*
Y330081D01*
X490105Y325631D02*
Y331831D01*
Y325631D02*
X493305D01*
X490105Y331831D02*
X493305D01*
Y325631D02*
Y331831D01*
X486362Y327481D02*
Y333681D01*
Y327481D02*
X489562D01*
X486362Y333681D02*
X489562D01*
Y327481D02*
Y333681D01*
X433254Y299494D02*
Y305694D01*
X430054D02*
X433254D01*
X430054Y299494D02*
X433254D01*
X430054D02*
Y305694D01*
X437641Y299494D02*
Y305694D01*
X434441D02*
X437641D01*
X434441Y299494D02*
X437641D01*
X434441D02*
Y305694D01*
X445551Y299494D02*
Y305694D01*
X442351D02*
X445551D01*
X442351Y299494D02*
X445551D01*
X442351D02*
Y305694D01*
X441606Y299494D02*
Y305694D01*
X438406D02*
X441606D01*
X438406Y299494D02*
X441606D01*
X438406D02*
Y305694D01*
X419624Y323781D02*
Y329981D01*
Y323781D02*
X422824D01*
X419624Y329981D02*
X422824D01*
Y323781D02*
Y329981D01*
X419105Y325631D02*
Y331831D01*
X415905D02*
X419105D01*
X415905Y325631D02*
X419105D01*
X415905D02*
Y331831D01*
X415362Y327481D02*
Y333681D01*
X412162D02*
X415362D01*
X412162Y327481D02*
X415362D01*
X412162D02*
Y333681D01*
X416262Y350813D02*
X422462D01*
X416262Y347613D02*
Y350813D01*
X422462Y347613D02*
Y350813D01*
X416262Y347613D02*
X422462D01*
X418659Y343829D02*
Y344429D01*
X418359Y344129D02*
X418659Y344429D01*
X418359Y344129D02*
X418659Y343829D01*
X412859Y338429D02*
X413259D01*
X412859Y345129D02*
X413259D01*
X501345Y353653D02*
X507745D01*
Y357253D01*
X501345D02*
X507745D01*
X501345Y353653D02*
Y357253D01*
X443501Y312349D02*
Y318549D01*
X440301D02*
X443501D01*
X440301Y312349D02*
X443501D01*
X440301D02*
Y318549D01*
X521661Y312349D02*
Y318549D01*
X518461D02*
X521661D01*
X518461Y312349D02*
X521661D01*
X518461D02*
Y318549D01*
X363717Y398461D02*
Y400961D01*
X368117Y398461D02*
Y400961D01*
X201923Y269442D02*
Y271442D01*
X198723Y269442D02*
Y271442D01*
Y269442D02*
X201923D01*
Y273642D02*
Y275642D01*
X198723Y273642D02*
Y275642D01*
X201923D01*
X189756Y269442D02*
Y271442D01*
X186556Y269442D02*
Y271442D01*
Y269442D02*
X189756D01*
Y273642D02*
Y275642D01*
X186556Y273642D02*
Y275642D01*
X189756D01*
X190472Y269442D02*
Y275642D01*
Y269442D02*
X193672D01*
X190472Y275642D02*
X193672D01*
Y269442D02*
Y275642D01*
X206900Y269442D02*
Y275642D01*
Y269442D02*
X210100D01*
X206900Y275642D02*
X210100D01*
Y269442D02*
Y275642D01*
X218151Y269442D02*
Y275642D01*
X214951D02*
X218151D01*
X214951Y269442D02*
X218151D01*
X214951D02*
Y275642D01*
X214095Y269442D02*
Y275642D01*
X210895D02*
X214095D01*
X210895Y269442D02*
X214095D01*
X210895D02*
Y275642D01*
X182500Y269442D02*
Y275642D01*
Y269442D02*
X185700D01*
X182500Y275642D02*
X185700D01*
Y269442D02*
Y275642D01*
X202782Y269442D02*
Y275642D01*
Y269442D02*
X205982D01*
X202782Y275642D02*
X205982D01*
Y269442D02*
Y275642D01*
X194669Y269442D02*
Y275642D01*
Y269442D02*
X197869D01*
X194669Y275642D02*
X197869D01*
Y269442D02*
Y275642D01*
X222208Y269442D02*
Y275642D01*
X219008D02*
X222208D01*
X219008Y269442D02*
X222208D01*
X219008D02*
Y275642D01*
X152043Y320163D02*
Y322163D01*
X148843Y320163D02*
Y322163D01*
Y320163D02*
X152043D01*
Y324363D02*
Y326363D01*
X148843Y324363D02*
Y326363D01*
X152043D01*
X157675Y324363D02*
Y326363D01*
X160875Y324363D02*
Y326363D01*
X157675D02*
X160875D01*
X157675Y320163D02*
Y322163D01*
X160875Y320163D02*
Y322163D01*
X157675Y320163D02*
X160875D01*
X153486Y324363D02*
Y326363D01*
X156686Y324363D02*
Y326363D01*
X153486D02*
X156686D01*
X153486Y320163D02*
Y322163D01*
X156686Y320163D02*
Y322163D01*
X153486Y320163D02*
X156686D01*
X163365Y326363D02*
X166565D01*
X163365Y324363D02*
Y326363D01*
X166565Y324363D02*
Y326363D01*
X163365Y320163D02*
X166565D01*
X163365D02*
Y322163D01*
X166565Y320163D02*
Y322163D01*
X167555Y326363D02*
X170755D01*
X167555Y324363D02*
Y326363D01*
X170755Y324363D02*
Y326363D01*
X167555Y320163D02*
X170755D01*
X167555D02*
Y322163D01*
X170755Y320163D02*
Y322163D01*
X175144Y320163D02*
Y322163D01*
X171944Y320163D02*
Y322163D01*
Y320163D02*
X175144D01*
Y324363D02*
Y326363D01*
X171944Y324363D02*
Y326363D01*
X175144D01*
X176134D02*
X179334D01*
X176134Y324363D02*
Y326363D01*
X179334Y324363D02*
Y326363D01*
X176134Y320163D02*
X179334D01*
X176134D02*
Y322163D01*
X179334Y320163D02*
Y322163D01*
X97950Y363615D02*
X104150D01*
Y366815D01*
X97950Y363615D02*
Y366815D01*
X104150D01*
X160409Y289169D02*
X164609D01*
X160409D02*
Y292269D01*
X164609Y289169D02*
Y292269D01*
X160409Y298969D02*
X164609D01*
X160409Y295869D02*
Y298969D01*
X164609Y295869D02*
Y298969D01*
X6200Y242450D02*
X9400D01*
Y244450D01*
X6200Y242450D02*
Y244450D01*
Y248650D02*
X9400D01*
Y246650D02*
Y248650D01*
X6200Y246650D02*
Y248650D01*
X1400Y250200D02*
X5600D01*
Y247100D02*
Y250200D01*
X1400Y247100D02*
Y250200D01*
Y240400D02*
X5600D01*
Y243500D01*
X1400Y240400D02*
Y243500D01*
X10109Y246800D02*
Y248800D01*
X13309Y246800D02*
Y248800D01*
X10109D02*
X13309D01*
X10109Y242600D02*
Y244600D01*
X13309Y242600D02*
Y244600D01*
X10109Y242600D02*
X13309D01*
X96369Y366921D02*
Y367921D01*
X95869Y367421D02*
X96369Y367921D01*
X95869Y367421D02*
X96369Y366921D01*
X94012Y355944D02*
Y356727D01*
X79812Y355944D02*
Y356727D01*
Y355944D02*
X85213D01*
X94012Y368884D02*
Y371144D01*
X88611Y355944D02*
X94012D01*
X93124Y371144D02*
X94012D01*
X79812Y368884D02*
Y371144D01*
X80700D01*
X93580Y375732D02*
Y381932D01*
Y375732D02*
X96780D01*
X93580Y381932D02*
X96780D01*
Y375732D02*
Y381932D01*
X97475Y375732D02*
Y381932D01*
Y375732D02*
X100675D01*
X97475Y381932D02*
X100675D01*
Y375732D02*
Y381932D01*
X69855Y358953D02*
X73055D01*
Y360953D01*
X69855Y358953D02*
Y360953D01*
Y365153D02*
X73055D01*
Y363153D02*
Y365153D01*
X69855Y363153D02*
Y365153D01*
X74058Y358952D02*
X77258D01*
Y360952D01*
X74058Y358952D02*
Y360952D01*
Y365152D02*
X77258D01*
Y363152D02*
Y365152D01*
X74058Y363152D02*
Y365152D01*
X89743Y375732D02*
Y381932D01*
Y375732D02*
X92943D01*
X89743Y381932D02*
X92943D01*
Y375732D02*
Y381932D01*
X89001Y375732D02*
Y377732D01*
X85801Y375732D02*
Y377732D01*
Y375732D02*
X89001D01*
Y379932D02*
Y381932D01*
X85801Y379932D02*
Y381932D01*
X89001D01*
X75308Y375732D02*
Y381932D01*
Y375732D02*
X78508D01*
X75308Y381932D02*
X78508D01*
Y375732D02*
Y381932D01*
X81859D02*
X85059D01*
X81859Y379932D02*
Y381932D01*
X85059Y379932D02*
Y381932D01*
X81859Y375732D02*
X85059D01*
X81859D02*
Y377732D01*
X85059Y375732D02*
Y377732D01*
X86174Y382850D02*
Y386050D01*
Y382850D02*
X88174D01*
X86174Y386050D02*
X88174D01*
X92374Y382850D02*
Y386050D01*
X90374Y382850D02*
X92374D01*
X90374Y386050D02*
X92374D01*
X105401Y356400D02*
X111601D01*
X105401Y353200D02*
Y356400D01*
X111601Y353200D02*
Y356400D01*
X105401Y353200D02*
X111601D01*
X97850Y353200D02*
Y356400D01*
Y353200D02*
X99850D01*
X97850Y356400D02*
X99850D01*
X104050Y353200D02*
Y356400D01*
X102050Y353200D02*
X104050D01*
X102050Y356400D02*
X104050D01*
X71105Y375732D02*
Y381932D01*
Y375732D02*
X74305D01*
X71105Y381932D02*
X74305D01*
Y375732D02*
Y381932D01*
X62100Y368600D02*
X68900D01*
Y364600D02*
Y368600D01*
X62100Y364600D02*
Y368600D01*
Y355800D02*
X68900D01*
Y359800D01*
X62100Y355800D02*
Y359800D01*
X72821Y326163D02*
X78821D01*
X72821Y333963D02*
X78821D01*
X72821Y326163D02*
Y333963D01*
X83621Y326163D02*
X89621D01*
X83621Y333963D02*
X89621D01*
Y326163D02*
Y333963D01*
X72821Y334986D02*
X78821D01*
X72821Y342786D02*
X78821D01*
X72821Y334986D02*
Y342786D01*
X83621Y334986D02*
X89621D01*
X83621Y342786D02*
X89621D01*
Y334986D02*
Y342786D01*
X116300Y326500D02*
Y352484D01*
X91100Y326500D02*
Y352484D01*
Y326500D02*
X116300D01*
X91100Y352484D02*
X116300D01*
X78300Y343700D02*
X80300D01*
X78300Y346900D02*
X80300D01*
X78300Y343700D02*
Y346900D01*
X82500Y343700D02*
X84500D01*
X82500Y346900D02*
X84500D01*
Y343700D02*
Y346900D01*
X180669Y305300D02*
X183869D01*
X180669Y303300D02*
Y305300D01*
X183869Y303300D02*
Y305300D01*
X180669Y299100D02*
X183869D01*
X180669D02*
Y301100D01*
X183869Y299100D02*
Y301100D01*
X191672Y299100D02*
Y305300D01*
X188472D02*
X191672D01*
X188472Y299100D02*
X191672D01*
X188472D02*
Y305300D01*
X304087Y357100D02*
Y361100D01*
X303687D02*
X304087D01*
X303687Y357100D02*
X304087D01*
X293887D02*
Y361100D01*
X294287D01*
X293887Y357100D02*
X294287D01*
X294487Y362900D02*
X295487D01*
X294487D02*
X294987Y362400D01*
X295487Y362900D01*
X296991Y394067D02*
Y396974D01*
X295517Y393673D02*
X296480D01*
X296598D01*
X296991Y394067D01*
X295517Y397368D02*
X296598D01*
X296991Y396974D01*
X297600Y394142D02*
Y397135D01*
X292044Y394067D02*
Y396974D01*
X292555Y393673D02*
X293517D01*
X292438D02*
X292555D01*
X292044Y394067D02*
X292438Y393673D01*
Y397368D02*
X293517D01*
X292044Y396974D02*
X292438Y397368D01*
X291435Y394142D02*
Y397135D01*
X298946Y394173D02*
Y397079D01*
X299458Y397473D02*
X300420D01*
X299340D02*
X299458D01*
X298946Y397079D02*
X299340Y397473D01*
Y393779D02*
X300420D01*
X298946Y394173D02*
X299340Y393779D01*
X298338Y394012D02*
Y397004D01*
X303894Y394173D02*
Y397079D01*
X302420Y397473D02*
X303382D01*
X303500D01*
X303894Y397079D01*
X302420Y393779D02*
X303500D01*
X303894Y394173D01*
X304503Y394012D02*
Y397004D01*
X37200Y372890D02*
X39000D01*
X37200Y391000D02*
X39000D01*
Y372900D02*
Y391000D01*
X24400Y372890D02*
X26200D01*
X24400Y391000D02*
X26200D01*
X24400Y372900D02*
Y391000D01*
X31668Y379418D02*
Y385284D01*
X30448Y380048D02*
X32810D01*
X30487Y384615D02*
X33064D01*
X31661Y382235D02*
X33064Y384615D01*
X31661Y382235D02*
X32810Y380166D01*
X31625Y382300D02*
X33125D01*
X30487Y384615D02*
X31625Y382300D01*
X30125D02*
X31625D01*
X30448Y380048D02*
X31625Y382300D01*
X13963Y199157D02*
Y202064D01*
X14475Y202458D02*
X15437D01*
X14357D02*
X14475D01*
X13963Y202064D02*
X14357Y202458D01*
Y198764D02*
X15437D01*
X13963Y199157D02*
X14357Y198764D01*
X13355Y198997D02*
Y201989D01*
X18911Y199157D02*
Y202064D01*
X17437Y202458D02*
X18399D01*
X18517D01*
X18911Y202064D01*
X17437Y198764D02*
X18517D01*
X18911Y199157D01*
X19520Y198997D02*
Y201989D01*
X127689Y408998D02*
Y415198D01*
X124489D02*
X127689D01*
X124489Y408998D02*
X127689D01*
X124489D02*
Y415198D01*
X139800Y411748D02*
Y414948D01*
X137800D02*
X139800D01*
X137800Y411748D02*
X139800D01*
X133600D02*
Y414948D01*
X135600D01*
X133600Y411748D02*
X135600D01*
X149400Y408998D02*
Y415198D01*
X146200D02*
X149400D01*
X146200Y408998D02*
X149400D01*
X146200D02*
Y415198D01*
X150539D02*
X153739D01*
X150539Y413198D02*
Y415198D01*
X153739Y413198D02*
Y415198D01*
X150539Y408998D02*
X153739D01*
X150539D02*
Y410998D01*
X153739Y408998D02*
Y410998D01*
X325725Y88083D02*
X328925D01*
Y90083D01*
X325725Y88083D02*
Y90083D01*
Y94283D02*
X328925D01*
Y92283D02*
Y94283D01*
X325725Y92283D02*
Y94283D01*
X324872Y88083D02*
Y94283D01*
X321672D02*
X324872D01*
X321672Y88083D02*
X324872D01*
X321672D02*
Y94283D01*
X372500Y268700D02*
Y274900D01*
Y268700D02*
X375700D01*
X372500Y274900D02*
X375700D01*
Y268700D02*
Y274900D01*
X422285Y17343D02*
Y23543D01*
Y17343D02*
X425485D01*
X422285Y23543D02*
X425485D01*
Y17343D02*
Y23543D01*
X414797Y43292D02*
Y49492D01*
X411597D02*
X414797D01*
X411597Y43292D02*
X414797D01*
X411597D02*
Y49492D01*
X323600Y16400D02*
Y21000D01*
X332200Y16400D02*
Y21000D01*
X337400Y88083D02*
X340600D01*
Y90083D01*
X337400Y88083D02*
Y90083D01*
Y94283D02*
X340600D01*
Y92283D02*
Y94283D01*
X337400Y92283D02*
Y94283D01*
X368600Y15803D02*
Y20403D01*
X377200Y15803D02*
Y20403D01*
X347300Y15803D02*
Y20403D01*
X338700Y15803D02*
Y20403D01*
X308600Y15803D02*
Y20403D01*
X317200Y15803D02*
Y20403D01*
X309500Y29400D02*
Y35600D01*
X306300D02*
X309500D01*
X306300Y29400D02*
X309500D01*
X306300D02*
Y35600D01*
X304800Y16500D02*
Y21100D01*
X296200Y16500D02*
Y21100D01*
X353600Y16400D02*
Y21000D01*
X362200Y16400D02*
Y21000D01*
X361309Y84723D02*
Y91652D01*
X347785Y84723D02*
Y91652D01*
X362935Y84723D02*
Y91652D01*
X376460Y84723D02*
Y91652D01*
X296500Y80500D02*
X298500D01*
X296500Y83700D02*
X298500D01*
X296500Y80500D02*
Y83700D01*
X300700Y80500D02*
X302700D01*
X300700Y83700D02*
X302700D01*
Y80500D02*
Y83700D01*
X497895Y269626D02*
Y279226D01*
X493695D02*
X497895D01*
X493695Y269626D02*
X497895D01*
X493695D02*
Y279226D01*
X519800Y69400D02*
Y74000D01*
X528400Y69400D02*
Y74000D01*
X40700Y153756D02*
X46900D01*
X40700Y150556D02*
Y153756D01*
X46900Y150556D02*
Y153756D01*
X40700Y150556D02*
X46900D01*
X40700Y158100D02*
X46900D01*
X40700Y154900D02*
Y158100D01*
X46900Y154900D02*
Y158100D01*
X40700Y154900D02*
X46900D01*
X49533Y118597D02*
Y124797D01*
Y118597D02*
X52733D01*
X49533Y124797D02*
X52733D01*
Y118597D02*
Y124797D01*
X53381Y118597D02*
Y124797D01*
Y118597D02*
X56581D01*
X53381Y124797D02*
X56581D01*
Y118597D02*
Y124797D01*
X55395Y131486D02*
Y137686D01*
Y131486D02*
X58595D01*
X55395Y137686D02*
X58595D01*
Y131486D02*
Y137686D01*
X59650Y130160D02*
Y135660D01*
X63550D01*
X71850Y127860D02*
X72350Y127360D01*
X71850Y127860D02*
X72350Y128360D01*
Y127360D02*
Y128360D01*
X64450Y129360D02*
X67050D01*
X71850Y130160D02*
Y135660D01*
X67950D02*
X71850D01*
X60760Y121879D02*
X66960D01*
Y125079D01*
X60760Y121879D02*
Y125079D01*
X66960D01*
X528485Y124108D02*
Y128708D01*
X519885Y124108D02*
Y128708D01*
X578175Y270932D02*
X586675D01*
Y241902D02*
Y270932D01*
Y241902D02*
X590185Y227492D01*
Y212722D02*
Y227492D01*
X578175Y212722D02*
X590185D01*
X539159Y213002D02*
X567459D01*
X538845Y271002D02*
X567890Y270928D01*
X532675Y218832D02*
X532679Y231033D01*
X451623Y312349D02*
Y318549D01*
Y312349D02*
X454823D01*
X451623Y318549D02*
X454823D01*
Y312349D02*
Y318549D01*
X447849Y312349D02*
Y318549D01*
Y312349D02*
X451049D01*
X447849Y318549D02*
X451049D01*
Y312349D02*
Y318549D01*
X444075Y312349D02*
Y318549D01*
Y312349D02*
X447275D01*
X444075Y318549D02*
X447275D01*
Y312349D02*
Y318549D01*
X432752Y312339D02*
Y318539D01*
Y312339D02*
X435952D01*
X432752Y318539D02*
X435952D01*
Y312339D02*
Y318539D01*
X436526Y312339D02*
Y318539D01*
Y312339D02*
X439726D01*
X436526Y318539D02*
X439726D01*
Y312339D02*
Y318539D01*
X514751Y312349D02*
Y318549D01*
Y312349D02*
X517951D01*
X514751Y318549D02*
X517951D01*
Y312349D02*
Y318549D01*
X507169Y312349D02*
Y318549D01*
Y312349D02*
X510369D01*
X507169Y318549D02*
X510369D01*
Y312349D02*
Y318549D01*
X511000Y312349D02*
Y318549D01*
Y312349D02*
X514200D01*
X511000Y318549D02*
X514200D01*
Y312349D02*
Y318549D01*
X204078Y299100D02*
Y305300D01*
Y299100D02*
X207278D01*
X204078Y305300D02*
X207278D01*
Y299100D02*
Y305300D01*
X208280Y299100D02*
Y305300D01*
Y299100D02*
X211480D01*
X208280Y305300D02*
X211480D01*
Y299100D02*
Y305300D01*
X209417Y319913D02*
Y326113D01*
X206217D02*
X209417D01*
X206217Y319913D02*
X209417D01*
X206217D02*
Y326113D01*
X213349Y319913D02*
Y326113D01*
X210149D02*
X213349D01*
X210149Y319913D02*
X213349D01*
X210149D02*
Y326113D01*
X383300Y310900D02*
Y317100D01*
X380100D02*
X383300D01*
X380100Y310900D02*
X383300D01*
X380100D02*
Y317100D01*
X421049Y299494D02*
Y305694D01*
Y299494D02*
X424249D01*
X421049Y305694D02*
X424249D01*
Y299494D02*
Y305694D01*
X420084Y269000D02*
Y275200D01*
Y269000D02*
X423284D01*
X420084Y275200D02*
X423284D01*
Y269000D02*
Y275200D01*
X431606Y269000D02*
Y275200D01*
Y269000D02*
X434806D01*
X431606Y275200D02*
X434806D01*
Y269000D02*
Y275200D01*
X425613Y269000D02*
Y275200D01*
Y269000D02*
X428813D01*
X425613Y275200D02*
X428813D01*
Y269000D02*
Y275200D01*
X333400Y88083D02*
Y94283D01*
Y88083D02*
X336600D01*
X333400Y94283D02*
X336600D01*
Y88083D02*
Y94283D01*
X578153Y384100D02*
Y385100D01*
X577653Y384600D02*
X578153Y385100D01*
X577653Y384600D02*
X578153Y384100D01*
X566257Y386703D02*
X573343D01*
X566257Y379325D02*
Y382475D01*
Y375098D02*
X573343D01*
X558200Y379700D02*
X561400D01*
Y381700D01*
X558200Y379700D02*
Y381700D01*
Y385900D02*
X561400D01*
Y383900D02*
Y385900D01*
X558200Y383900D02*
Y385900D01*
X301125Y412194D02*
X301625Y412694D01*
X302125Y412194D01*
X301125D02*
X302125D01*
X302325Y417994D02*
X302725D01*
X302325Y413994D02*
X302725D01*
Y417994D01*
X292525D02*
X292925D01*
X292525Y413994D02*
X292925D01*
X292525D02*
Y417994D01*
X6963Y214326D02*
X10163D01*
X6963Y212326D02*
Y214326D01*
X10163Y212326D02*
Y214326D01*
X6963Y208126D02*
X10163D01*
X6963D02*
Y210126D01*
X10163Y208126D02*
Y210126D01*
X7000Y202100D02*
X10200D01*
X7000Y200100D02*
Y202100D01*
X10200Y200100D02*
Y202100D01*
X7000Y195900D02*
X10200D01*
X7000D02*
Y197900D01*
X10200Y195900D02*
Y197900D01*
X381000Y51800D02*
X385200D01*
Y48700D02*
Y51800D01*
X381000Y48700D02*
Y51800D01*
Y42000D02*
X385200D01*
Y45100D01*
X381000Y42000D02*
Y45100D01*
X386700Y43292D02*
Y49492D01*
Y43292D02*
X389900D01*
X386700Y49492D02*
X389900D01*
Y43292D02*
Y49492D01*
X391452Y43292D02*
Y49492D01*
Y43292D02*
X394652D01*
X391452Y49492D02*
X394652D01*
Y43292D02*
Y49492D01*
X396679Y43426D02*
X399586D01*
X396285Y43938D02*
Y44900D01*
Y43820D02*
Y43938D01*
Y43820D02*
X396679Y43426D01*
X399980Y43820D02*
Y44900D01*
X399586Y43426D02*
X399980Y43820D01*
X396754Y42817D02*
X399747D01*
X396679Y48374D02*
X399586D01*
X396285Y46900D02*
Y47862D01*
Y47980D01*
X396679Y48374D01*
X399980Y46900D02*
Y47980D01*
X399586Y48374D02*
X399980Y47980D01*
X396754Y48982D02*
X399747D01*
X406547Y43426D02*
X409453D01*
X406153Y43938D02*
Y44900D01*
Y43820D02*
Y43938D01*
Y43820D02*
X406547Y43426D01*
X409847Y43820D02*
Y44900D01*
X409453Y43426D02*
X409847Y43820D01*
X406622Y42817D02*
X409614D01*
X406547Y48374D02*
X409453D01*
X406153Y46900D02*
Y47862D01*
Y47980D01*
X406547Y48374D01*
X409847Y46900D02*
Y47980D01*
X409453Y48374D02*
X409847Y47980D01*
X406622Y48982D02*
X409614D01*
X405663Y17317D02*
Y23517D01*
X402463D02*
X405663D01*
X402463Y17317D02*
X405663D01*
X402463D02*
Y23517D01*
X430000Y17343D02*
Y23543D01*
X426800D02*
X430000D01*
X426800Y17343D02*
X430000D01*
X426800D02*
Y23543D01*
X458807Y21182D02*
X461799D01*
X461638Y20574D02*
X462032Y20180D01*
Y19100D02*
Y20180D01*
X458338D02*
X458732Y20574D01*
X458338Y20062D02*
Y20180D01*
Y19100D02*
Y20062D01*
X458732Y20574D02*
X461638D01*
X458807Y15017D02*
X461799D01*
X461638Y15626D02*
X462032Y16020D01*
Y17100D01*
X458338Y16020D02*
X458732Y15626D01*
X458338Y16020D02*
Y16138D01*
Y17100D01*
X458732Y15626D02*
X461638D01*
X448964Y21182D02*
X451957D01*
X451796Y20574D02*
X452190Y20180D01*
Y19100D02*
Y20180D01*
X448495D02*
X448889Y20574D01*
X448495Y20062D02*
Y20180D01*
Y19100D02*
Y20062D01*
X448889Y20574D02*
X451796D01*
X448964Y15017D02*
X451957D01*
X451796Y15626D02*
X452190Y16020D01*
Y17100D01*
X448495Y16020D02*
X448889Y15626D01*
X448495Y16020D02*
Y16138D01*
Y17100D01*
X448889Y15626D02*
X451796D01*
X165347Y296820D02*
X171547D01*
X165347Y293620D02*
Y296820D01*
X171547Y293620D02*
Y296820D01*
X165347Y293620D02*
X171547D01*
X154100Y272125D02*
Y274125D01*
X157300Y272125D02*
Y274125D01*
X154100D02*
X157300D01*
X154100Y267925D02*
Y269925D01*
X157300Y267925D02*
Y269925D01*
X154100Y267925D02*
X157300D01*
X148016Y326863D02*
Y329963D01*
X143816Y326863D02*
Y329963D01*
X148016D01*
Y320163D02*
Y323263D01*
X143816Y320163D02*
Y323263D01*
Y320163D02*
X148016D01*
X149100Y299800D02*
X152300D01*
Y301800D01*
X149100Y299800D02*
Y301800D01*
Y306000D02*
X152300D01*
Y304000D02*
Y306000D01*
X149100Y304000D02*
Y306000D01*
X140743Y267925D02*
X143943D01*
Y269925D01*
X140743Y267925D02*
Y269925D01*
Y274125D02*
X143943D01*
Y272125D02*
Y274125D01*
X140743Y272125D02*
Y274125D01*
X136680Y267925D02*
X139880D01*
Y269925D01*
X136680Y267925D02*
Y269925D01*
Y274125D02*
X139880D01*
Y272125D02*
Y274125D01*
X136680Y272125D02*
Y274125D01*
X132600Y267925D02*
X135800D01*
Y269925D01*
X132600Y267925D02*
Y269925D01*
Y274125D02*
X135800D01*
Y272125D02*
Y274125D01*
X132600Y272125D02*
Y274125D01*
X135000Y320163D02*
Y322163D01*
X131800Y320163D02*
Y322163D01*
Y320163D02*
X135000D01*
Y324363D02*
Y326363D01*
X131800Y324363D02*
Y326363D01*
X135000D01*
X414817Y299494D02*
Y305694D01*
X411617D02*
X414817D01*
X411617Y299494D02*
X414817D01*
X411617D02*
Y305694D01*
X563431Y370872D02*
X569631D01*
Y374072D01*
X563431Y370872D02*
Y374072D01*
X569631D01*
X556164Y339731D02*
Y342931D01*
Y339731D02*
X558164D01*
X556164Y342931D02*
X558164D01*
X562364Y339731D02*
Y342931D01*
X560364Y339731D02*
X562364D01*
X560364Y342931D02*
X562364D01*
X563064Y334509D02*
Y338709D01*
X559964Y334509D02*
X563064D01*
X559964Y338709D02*
X563064D01*
X553264Y334509D02*
Y338709D01*
Y334509D02*
X556364D01*
X553264Y338709D02*
X556364D01*
X407683Y299494D02*
Y305694D01*
Y299494D02*
X410883D01*
X407683Y305694D02*
X410883D01*
Y299494D02*
Y305694D01*
X478636Y343243D02*
Y345243D01*
X481836Y343243D02*
Y345243D01*
X478636D02*
X481836D01*
X478636Y339043D02*
Y341043D01*
X481836Y339043D02*
Y341043D01*
X478636Y339043D02*
X481836D01*
X301683Y422233D02*
X304883D01*
Y424233D01*
X301683Y422233D02*
Y424233D01*
Y428433D02*
X304883D01*
Y426433D02*
Y428433D01*
X301683Y426433D02*
Y428433D01*
X294525Y346660D02*
Y352860D01*
X291325D02*
X294525D01*
X291325Y346660D02*
X294525D01*
X291325D02*
Y352860D01*
X298416Y346660D02*
Y352860D01*
X295216D02*
X298416D01*
X295216Y346660D02*
X298416D01*
X295216D02*
Y352860D01*
X297792Y422233D02*
X300992D01*
Y424233D01*
X297792Y422233D02*
Y424233D01*
Y428433D02*
X300992D01*
Y426433D02*
Y428433D01*
X297792Y426433D02*
Y428433D01*
X299107Y352890D02*
X302307D01*
X299107Y350890D02*
Y352890D01*
X302307Y350890D02*
Y352890D01*
X299107Y346690D02*
X302307D01*
X299107D02*
Y348690D01*
X302307Y346690D02*
Y348690D01*
X302998Y352860D02*
X306198D01*
X302998Y350860D02*
Y352860D01*
X306198Y350860D02*
Y352860D01*
X302998Y346660D02*
X306198D01*
X302998D02*
Y348660D01*
X306198Y346660D02*
Y348660D01*
X505720Y347956D02*
X506720D01*
X505720D02*
X506220Y347456D01*
X506720Y347956D01*
X503281Y343678D02*
Y345647D01*
X505250D01*
X503281Y325386D02*
Y327355D01*
Y325386D02*
X505250D01*
X523540Y343678D02*
Y345647D01*
X521571D02*
X523540D01*
Y325386D02*
Y327355D01*
X521571Y325386D02*
X523540D01*
X497842Y310200D02*
Y313400D01*
X495842D02*
X497842D01*
X495842Y310200D02*
X497842D01*
X491642D02*
Y313400D01*
X493642D01*
X491642Y310200D02*
X493642D01*
X495219Y321300D02*
X496719D01*
X495219Y314500D02*
X496719D01*
X496969Y338038D02*
Y340038D01*
X493769Y338038D02*
Y340038D01*
Y338038D02*
X496969D01*
Y342238D02*
Y344238D01*
X493769Y342238D02*
Y344238D01*
X496969D01*
X493036Y343652D02*
Y344252D01*
X492736Y343952D02*
X493036Y344252D01*
X492736Y343952D02*
X493036Y343652D01*
X487236Y338252D02*
X487636D01*
X487236Y344952D02*
X487636D01*
X491278Y353653D02*
Y357253D01*
X497678D01*
Y353653D02*
Y357253D01*
X491278Y353653D02*
X497678D01*
X511293D02*
Y357253D01*
X517693D01*
Y353653D02*
Y357253D01*
X511293Y353653D02*
X517693D01*
X531251D02*
Y357253D01*
X524851Y353653D02*
X531251D01*
X524851D02*
Y357253D01*
X531251D01*
X534551Y355100D02*
Y357100D01*
X537751Y355100D02*
Y357100D01*
X534551D02*
X537751D01*
X534551Y350900D02*
Y352900D01*
X537751Y350900D02*
Y352900D01*
X534551Y350900D02*
X537751D01*
X567281Y354745D02*
X568281D01*
X567281D02*
X567781Y354245D01*
X568281Y354745D01*
X586406Y362181D02*
X590343D01*
Y286197D02*
Y362181D01*
X586406Y286197D02*
X590343D01*
X570658D02*
X574989D01*
X570658D02*
Y293677D01*
Y354701D02*
Y362181D01*
X574989D01*
X549900Y361017D02*
Y367017D01*
X542100Y361017D02*
Y367017D01*
Y361017D02*
X549900D01*
Y371817D02*
Y377817D01*
X542100Y371817D02*
Y377817D01*
X549900D01*
X37851Y207494D02*
X39851D01*
X37851Y204294D02*
X39851D01*
Y207494D01*
X33651D02*
X35651D01*
X33651Y204294D02*
X35651D01*
X33651D02*
Y207494D01*
X42551Y191281D02*
Y192281D01*
X30951Y191281D02*
Y192281D01*
Y191281D02*
X42551D01*
X49251Y200881D02*
Y201881D01*
X48751Y201381D02*
X49251Y201881D01*
X48751Y201381D02*
X49251Y200881D01*
X42551Y202481D02*
Y203481D01*
X30951Y202481D02*
Y203481D01*
X42551D01*
X33546Y185652D02*
X39546D01*
X33546Y177852D02*
X39546D01*
Y185652D01*
X22746D02*
X28746D01*
X22746Y177852D02*
X28746D01*
X22746D02*
Y185652D01*
X24508Y190065D02*
X30708D01*
X24508Y186865D02*
Y190065D01*
X30708Y186865D02*
Y190065D01*
X24508Y186865D02*
X30708D01*
X19520Y194630D02*
Y197622D01*
X18517Y194397D02*
X18911Y194791D01*
X17437Y194397D02*
X18517D01*
Y198091D02*
X18911Y197697D01*
X18399Y198091D02*
X18517D01*
X17437D02*
X18399D01*
X18911Y194791D02*
Y197697D01*
X13355Y194630D02*
Y197622D01*
X13963Y194791D02*
X14357Y194397D01*
X15437D01*
X13963Y197697D02*
X14357Y198091D01*
X14475D01*
X15437D01*
X13963Y194791D02*
Y197697D01*
X6949Y188695D02*
X9941D01*
X6716Y189697D02*
X7110Y189303D01*
X6716Y189697D02*
Y190777D01*
X10016Y189303D02*
X10410Y189697D01*
Y189815D01*
Y190777D01*
X7110Y189303D02*
X10016D01*
X6949Y194860D02*
X9941D01*
X6716Y193857D02*
X7110Y194251D01*
X6716Y192777D02*
Y193857D01*
X10016Y194251D02*
X10410Y193857D01*
Y193739D02*
Y193857D01*
Y192777D02*
Y193739D01*
X7110Y194251D02*
X10016D01*
X53251Y191053D02*
Y197253D01*
X50051D02*
X53251D01*
X50051Y191053D02*
X53251D01*
X50051D02*
Y197253D01*
Y201381D02*
X56251D01*
X50051Y198181D02*
Y201381D01*
X56251Y198181D02*
Y201381D01*
X50051Y198181D02*
X56251D01*
X365582Y391086D02*
Y394078D01*
X364580Y390853D02*
X364974Y391247D01*
X363500Y390853D02*
X364580D01*
Y394547D02*
X364974Y394153D01*
X364462Y394547D02*
X364580D01*
X363500D02*
X364462D01*
X364974Y391247D02*
Y394153D01*
X359418Y391086D02*
Y394078D01*
X360026Y391247D02*
X360420Y390853D01*
X361500D01*
X360026Y394153D02*
X360420Y394547D01*
X360538D01*
X361500D01*
X360026Y391247D02*
Y394153D01*
X366197Y391322D02*
Y394314D01*
X366806Y394153D02*
X367199Y394547D01*
X368279D01*
X366806Y391247D02*
X367199Y390853D01*
X367317D01*
X368279D01*
X366806Y391247D02*
Y394153D01*
X372362Y391322D02*
Y394314D01*
X371359Y394547D02*
X371753Y394153D01*
X370279Y394547D02*
X371359D01*
Y390853D02*
X371753Y391247D01*
X371241Y390853D02*
X371359D01*
X370279D02*
X371241D01*
X371753Y391247D02*
Y394153D01*
X402628Y356530D02*
Y362730D01*
X399428D02*
X402628D01*
X399428Y356530D02*
X402628D01*
X399428D02*
Y362730D01*
X404709Y411103D02*
Y417303D01*
Y411103D02*
X407909D01*
X404709Y417303D02*
X407909D01*
Y411103D02*
Y417303D01*
X425358Y375737D02*
Y382137D01*
Y375737D02*
X428958D01*
Y382137D01*
X425358D02*
X428958D01*
X432807Y411179D02*
Y417579D01*
X429207D02*
X432807D01*
X429207Y411179D02*
Y417579D01*
Y411179D02*
X432807D01*
X435358Y375737D02*
Y382137D01*
Y375737D02*
X438958D01*
Y382137D01*
X435358D02*
X438958D01*
X445358Y375737D02*
Y382137D01*
Y375737D02*
X448958D01*
Y382137D01*
X445358D02*
X448958D01*
X474600Y411200D02*
Y417600D01*
X471000D02*
X474600D01*
X471000Y411200D02*
Y417600D01*
Y411200D02*
X474600D01*
X455358Y375737D02*
Y382137D01*
Y375737D02*
X458958D01*
Y382137D01*
X455358D02*
X458958D01*
X477389Y361017D02*
Y367017D01*
X469589Y361017D02*
Y367017D01*
Y361017D02*
X477389D01*
Y371817D02*
Y377817D01*
X469589Y371817D02*
Y377817D01*
X477389D01*
X446709Y411103D02*
Y417303D01*
Y411103D02*
X449909D01*
X446709Y417303D02*
X449909D01*
Y411103D02*
Y417303D01*
X482180Y369387D02*
Y375587D01*
X478980D02*
X482180D01*
X478980Y369387D02*
X482180D01*
X478980D02*
Y375587D01*
X509351Y375737D02*
Y382137D01*
Y375737D02*
X512951D01*
Y382137D01*
X509351D02*
X512951D01*
X519351Y375737D02*
Y382137D01*
Y375737D02*
X522951D01*
Y382137D01*
X519351D02*
X522951D01*
X499351Y375737D02*
Y382137D01*
Y375737D02*
X502951D01*
Y382137D01*
X499351D02*
X502951D01*
X520900Y411067D02*
Y417267D01*
Y411067D02*
X524100D01*
X520900Y417267D02*
X524100D01*
Y411067D02*
Y417267D01*
X506800Y411067D02*
Y417467D01*
X503200D02*
X506800D01*
X503200Y411067D02*
Y417467D01*
Y411067D02*
X506800D01*
X482100D02*
Y417267D01*
X478900D02*
X482100D01*
X478900Y411067D02*
X482100D01*
X478900D02*
Y417267D01*
X554891Y369387D02*
Y375587D01*
X551691D02*
X554891D01*
X551691Y369387D02*
X554891D01*
X551691D02*
Y375587D01*
X529351Y375737D02*
Y382137D01*
Y375737D02*
X532951D01*
Y382137D01*
X529351D02*
X532951D01*
X549300Y411167D02*
Y417567D01*
X545700D02*
X549300D01*
X545700Y411167D02*
Y417567D01*
Y411167D02*
X549300D01*
X389919Y366230D02*
X397719D01*
X389919Y360230D02*
Y366230D01*
X397719Y360230D02*
Y366230D01*
X389919Y349430D02*
X397719D01*
X389919D02*
Y355430D01*
X397719Y349430D02*
Y355430D01*
X417185Y353653D02*
X423585D01*
Y357253D01*
X417185D02*
X423585D01*
X417185Y353653D02*
Y357253D01*
X427202Y353653D02*
X433602D01*
Y357253D01*
X427202D02*
X433602D01*
X427202Y353653D02*
Y357253D01*
X437483Y353653D02*
X443883D01*
Y357253D01*
X437483D02*
X443883D01*
X437483Y353653D02*
Y357253D01*
X450831D02*
X457231D01*
X450831Y353653D02*
Y357253D01*
Y353653D02*
X457231D01*
Y357253D01*
X293001Y422233D02*
Y428433D01*
X289801D02*
X293001D01*
X289801Y422233D02*
X293001D01*
X289801D02*
Y428433D01*
X460458Y350837D02*
X463658D01*
Y352837D01*
X460458Y350837D02*
Y352837D01*
Y357037D02*
X463658D01*
Y355037D02*
Y357037D01*
X460458Y355037D02*
Y357037D01*
X296855Y422233D02*
Y428433D01*
X293655D02*
X296855D01*
X293655Y422233D02*
X296855D01*
X293655D02*
Y428433D01*
X330400Y351030D02*
Y357030D01*
X322600Y351030D02*
Y357030D01*
Y351030D02*
X330400D01*
Y361830D02*
Y367830D01*
X322600Y361830D02*
Y367830D01*
X330400D01*
X331200Y359630D02*
Y365830D01*
Y359630D02*
X334400D01*
X331200Y365830D02*
X334400D01*
Y359630D02*
Y365830D01*
X160965Y400612D02*
Y406812D01*
Y400612D02*
X164165D01*
X160965Y406812D02*
X164165D01*
Y400612D02*
Y406812D01*
X172166Y299100D02*
Y305300D01*
X168966D02*
X172166D01*
X168966Y299100D02*
X172166D01*
X168966D02*
Y305300D01*
X180363Y401012D02*
Y407212D01*
Y401012D02*
X183563D01*
X180363Y407212D02*
X183563D01*
Y401012D02*
Y407212D01*
X179682Y411977D02*
X182882D01*
Y413977D01*
X179682Y411977D02*
Y413977D01*
Y418177D02*
X182882D01*
Y416177D02*
Y418177D01*
X179682Y416177D02*
Y418177D01*
X185309Y407212D02*
X188301D01*
X188140Y406604D02*
X188534Y406210D01*
Y405130D02*
Y406210D01*
X184840D02*
X185234Y406604D01*
X184840Y406092D02*
Y406210D01*
Y405130D02*
Y406092D01*
X185234Y406604D02*
X188140D01*
X185309Y401047D02*
X188301D01*
X188140Y401656D02*
X188534Y402050D01*
Y403130D01*
X184840Y402050D02*
X185234Y401656D01*
X184840Y402050D02*
Y402168D01*
Y403130D01*
X185234Y401656D02*
X188140D01*
X183873Y412013D02*
X186865D01*
X183640Y413015D02*
X184034Y412621D01*
X183640Y413015D02*
Y414095D01*
X186940Y412621D02*
X187334Y413015D01*
Y413133D01*
Y414095D01*
X184034Y412621D02*
X186940D01*
X183873Y418178D02*
X186865D01*
X183640Y417175D02*
X184034Y417569D01*
X183640Y416095D02*
Y417175D01*
X186940Y417569D02*
X187334Y417175D01*
Y417057D02*
Y417175D01*
Y416095D02*
Y417057D01*
X184034Y417569D02*
X186940D01*
X178919Y411977D02*
Y418177D01*
X175719D02*
X178919D01*
X175719Y411977D02*
X178919D01*
X175719D02*
Y418177D01*
X156227Y400647D02*
X159219D01*
X155994Y401650D02*
X156388Y401256D01*
X155994Y401650D02*
Y402730D01*
X159294Y401256D02*
X159688Y401650D01*
Y401768D01*
Y402730D01*
X156388Y401256D02*
X159294D01*
X156227Y406812D02*
X159219D01*
X155994Y405810D02*
X156388Y406204D01*
X155994Y404730D02*
Y405810D01*
X159294Y406204D02*
X159688Y405810D01*
Y405692D02*
Y405810D01*
Y404730D02*
Y405692D01*
X156388Y406204D02*
X159294D01*
X202537Y375397D02*
Y381397D01*
X194737Y375397D02*
Y381397D01*
Y375397D02*
X202537D01*
Y386197D02*
Y392197D01*
X194737Y386197D02*
Y392197D01*
X202537D01*
X207117Y383834D02*
Y390034D01*
X203917D02*
X207117D01*
X203917Y383834D02*
X207117D01*
X203917D02*
Y390034D01*
X153739Y401030D02*
Y407230D01*
X150539D02*
X153739D01*
X150539Y401030D02*
X153739D01*
X150539D02*
Y407230D01*
X421200Y321400D02*
X422700D01*
X421200Y314600D02*
X422700D01*
X407150Y299494D02*
Y305694D01*
X403950D02*
X407150D01*
X403950Y299494D02*
X407150D01*
X403950D02*
Y305694D01*
X417606Y310257D02*
X419606D01*
X417606Y313457D02*
X419606D01*
X417606Y310257D02*
Y313457D01*
X421806Y310257D02*
X423806D01*
X421806Y313457D02*
X423806D01*
Y310257D02*
Y313457D01*
X404436Y343257D02*
Y345257D01*
X407636Y343257D02*
Y345257D01*
X404436D02*
X407636D01*
X404436Y339057D02*
Y341057D01*
X407636Y339057D02*
Y341057D01*
X404436Y339057D02*
X407636D01*
X422462Y338038D02*
Y340038D01*
X419262Y338038D02*
Y340038D01*
Y338038D02*
X422462D01*
Y342238D02*
Y344238D01*
X419262Y342238D02*
Y344238D01*
X422462D01*
X431520Y347956D02*
X432520D01*
X431520D02*
X432020Y347456D01*
X432520Y347956D01*
X429080Y343678D02*
Y345647D01*
X431049D01*
X429080Y325386D02*
Y327355D01*
Y325386D02*
X431049D01*
X449340Y343678D02*
Y345647D01*
X447371D02*
X449340D01*
Y325386D02*
Y327355D01*
X447371Y325386D02*
X449340D01*
X482900Y298584D02*
X484900D01*
X482900Y301784D02*
X484900D01*
X482900Y298584D02*
Y301784D01*
X487100Y298584D02*
X489100D01*
X487100Y301784D02*
X489100D01*
Y298584D02*
Y301784D01*
X397936Y17317D02*
Y23517D01*
Y17317D02*
X401136D01*
X397936Y23517D02*
X401136D01*
Y17317D02*
Y23517D01*
X407939Y20243D02*
Y25743D01*
X411839D01*
X420139Y17943D02*
X420639Y17443D01*
X420139Y17943D02*
X420639Y18443D01*
Y17443D02*
Y18443D01*
X412739Y19443D02*
X415339D01*
X420139Y20243D02*
Y25743D01*
X416239D02*
X420139D01*
X384091Y20243D02*
Y25743D01*
X387991D01*
X396291Y17943D02*
X396791Y17443D01*
X396291Y17943D02*
X396791Y18443D01*
Y17443D02*
Y18443D01*
X388891Y19443D02*
X391491D01*
X396291Y20243D02*
Y25743D01*
X392391D02*
X396291D01*
X43643Y346190D02*
X46843D01*
X43643Y344190D02*
Y346190D01*
X46843Y344190D02*
Y346190D01*
X43643Y339990D02*
X46843D01*
X43643D02*
Y341990D01*
X46843Y339990D02*
Y341990D01*
X8400Y365827D02*
X9400D01*
X8400D02*
X8900Y365327D01*
X9400Y365827D01*
X35842Y351389D02*
X42642D01*
Y347389D02*
Y351389D01*
X35842Y347389D02*
Y351389D01*
Y338589D02*
X42642D01*
Y342589D01*
X35842Y338589D02*
Y342589D01*
X27842Y351390D02*
X34642D01*
Y347390D02*
Y351390D01*
X27842Y347390D02*
Y351390D01*
Y338590D02*
X34642D01*
Y342590D01*
X27842Y338590D02*
Y342590D01*
X316600Y268700D02*
Y274900D01*
X313400D02*
X316600D01*
X313400Y268700D02*
X316600D01*
X313400D02*
Y274900D01*
X320800Y268700D02*
Y274900D01*
X317600D02*
X320800D01*
X317600Y268700D02*
X320800D01*
X317600D02*
Y274900D01*
X504500Y201111D02*
Y207311D01*
X501300D02*
X504500D01*
X501300Y201111D02*
X504500D01*
X501300D02*
Y207311D01*
X498766Y240351D02*
Y246551D01*
X495566D02*
X498766D01*
X495566Y240351D02*
X498766D01*
X495566D02*
Y246551D01*
X220028Y322213D02*
Y328513D01*
X232627Y322213D02*
Y328513D01*
X223958Y267113D02*
Y273413D01*
X236557Y267113D02*
Y273413D01*
X488174Y240410D02*
Y243610D01*
Y240410D02*
X490174D01*
X488174Y243610D02*
X490174D01*
X494374Y240410D02*
Y243610D01*
X492374Y240410D02*
X494374D01*
X492374Y243610D02*
X494374D01*
X492375Y239314D02*
X494375D01*
X492375Y236114D02*
X494375D01*
Y239314D01*
X488175D02*
X490175D01*
X488175Y236114D02*
X490175D01*
X488175D02*
Y239314D01*
X520250Y250913D02*
X523450D01*
X520250Y248913D02*
Y250913D01*
X523450Y248913D02*
Y250913D01*
X520250Y244713D02*
X523450D01*
X520250D02*
Y246713D01*
X523450Y244713D02*
Y246713D01*
X515884Y250912D02*
X519084D01*
X515884Y248912D02*
Y250912D01*
X519084Y248912D02*
Y250912D01*
X515884Y244712D02*
X519084D01*
X515884D02*
Y246712D01*
X519084Y244712D02*
Y246712D01*
X504036Y246876D02*
X508957D01*
X504036Y238451D02*
X508957D01*
X513349Y244764D02*
Y245764D01*
X512849Y245264D02*
X513349Y245764D01*
X512849Y245264D02*
X513349Y244764D01*
X521300Y274389D02*
X527500D01*
X521300Y271189D02*
Y274389D01*
X527500Y271189D02*
Y274389D01*
X521300Y271189D02*
X527500D01*
X521200Y275989D02*
X527200D01*
X521200Y283789D02*
X527200D01*
X521200Y275989D02*
Y283789D01*
X532000Y275989D02*
X538000D01*
X532000Y283789D02*
X538000D01*
Y275989D02*
Y283789D01*
X156686Y327750D02*
Y333950D01*
X153486D02*
X156686D01*
X153486Y327750D02*
X156686D01*
X153486D02*
Y333950D01*
X160875Y327750D02*
Y333950D01*
X157675D02*
X160875D01*
X157675Y327750D02*
X160875D01*
X157675D02*
Y333950D01*
X141747Y414572D02*
X144653D01*
X145047Y413098D02*
Y414060D01*
Y414178D01*
X144653Y414572D02*
X145047Y414178D01*
X141353Y413098D02*
Y414178D01*
X141747Y414572D01*
X141586Y415181D02*
X144578D01*
X141747Y409624D02*
X144653D01*
X145047Y410136D02*
Y411098D01*
Y410018D02*
Y410136D01*
X144653Y409624D02*
X145047Y410018D01*
X141353D02*
Y411098D01*
Y410018D02*
X141747Y409624D01*
X141586Y409016D02*
X144578D01*
X129247Y414572D02*
X132153D01*
X132547Y413098D02*
Y414060D01*
Y414178D01*
X132153Y414572D02*
X132547Y414178D01*
X128853Y413098D02*
Y414178D01*
X129247Y414572D01*
X129086Y415181D02*
X132078D01*
X129247Y409624D02*
X132153D01*
X132547Y410136D02*
Y411098D01*
Y410018D02*
Y410136D01*
X132153Y409624D02*
X132547Y410018D01*
X128853D02*
Y411098D01*
Y410018D02*
X129247Y409624D01*
X129086Y409016D02*
X132078D01*
X98713Y414572D02*
X101620D01*
X102014Y413098D02*
Y414060D01*
Y414178D01*
X101620Y414572D02*
X102014Y414178D01*
X98320Y413098D02*
Y414178D01*
X98713Y414572D01*
X98553Y415181D02*
X101545D01*
X98713Y409624D02*
X101620D01*
X102014Y410136D02*
Y411098D01*
Y410018D02*
Y410136D01*
X101620Y409624D02*
X102014Y410018D01*
X98320D02*
Y411098D01*
Y410018D02*
X98713Y409624D01*
X98553Y409016D02*
X101545D01*
X105547Y414572D02*
X108453D01*
X108847Y413098D02*
Y414060D01*
Y414178D01*
X108453Y414572D02*
X108847Y414178D01*
X105153Y413098D02*
Y414178D01*
X105547Y414572D01*
X105386Y415181D02*
X108378D01*
X105547Y409624D02*
X108453D01*
X108847Y410136D02*
Y411098D01*
Y410018D02*
Y410136D01*
X108453Y409624D02*
X108847Y410018D01*
X105153D02*
Y411098D01*
Y410018D02*
X105547Y409624D01*
X105386Y409016D02*
X108378D01*
X524197Y15526D02*
X527103D01*
X523803Y16038D02*
Y17000D01*
Y15920D02*
Y16038D01*
Y15920D02*
X524197Y15526D01*
X527497Y15920D02*
Y17000D01*
X527103Y15526D02*
X527497Y15920D01*
X524272Y14917D02*
X527264D01*
X524197Y20474D02*
X527103D01*
X523803Y19000D02*
Y19962D01*
Y20080D01*
X524197Y20474D01*
X527497Y19000D02*
Y20080D01*
X527103Y20474D02*
X527497Y20080D01*
X524272Y21082D02*
X527264D01*
X7797Y268900D02*
Y275100D01*
Y268900D02*
X10997D01*
X7797Y275100D02*
X10997D01*
Y268900D02*
Y275100D01*
X14997Y268900D02*
Y275100D01*
X11797D02*
X14997D01*
X11797Y268900D02*
X14997D01*
X11797D02*
Y275100D01*
X17600Y267143D02*
X20700D01*
X17600Y262943D02*
X20700D01*
X17600D02*
Y267143D01*
X24300D02*
X27400D01*
X24300Y262943D02*
X27400D01*
Y267143D01*
X40400Y262942D02*
Y267142D01*
X37300Y262942D02*
X40400D01*
X37300Y267142D02*
X40400D01*
X30600Y262942D02*
Y267142D01*
Y262942D02*
X33700D01*
X30600Y267142D02*
X33700D01*
X54200Y268900D02*
Y275100D01*
X51000D02*
X54200D01*
X51000Y268900D02*
X54200D01*
X51000D02*
Y275100D01*
X62399Y255118D02*
Y258318D01*
Y255118D02*
X64399D01*
X62399Y258318D02*
X64399D01*
X68599Y255118D02*
Y258318D01*
X66599Y255118D02*
X68599D01*
X66599Y258318D02*
X68599D01*
X58482Y272180D02*
X61682D01*
Y274180D01*
X58482Y272180D02*
Y274180D01*
Y278380D02*
X61682D01*
Y276380D02*
Y278380D01*
X58482Y276380D02*
Y278380D01*
X62635Y277537D02*
Y283537D01*
X70435Y277537D02*
Y283537D01*
X62635D02*
X70435D01*
X62635Y266737D02*
Y272737D01*
X70435Y266737D02*
Y272737D01*
X62635Y266737D02*
X70435D01*
X7500Y387900D02*
X17100D01*
X7500Y383700D02*
Y387900D01*
X17100Y383700D02*
Y387900D01*
X7500Y383700D02*
X17100D01*
X7500Y388555D02*
X17100D01*
Y392755D01*
X7500Y388555D02*
Y392755D01*
X17100D01*
X7500Y393400D02*
X17100D01*
Y397600D01*
X7500Y393400D02*
Y397600D01*
X17100D01*
X48474Y290210D02*
X52274D01*
Y292810D01*
X11674Y290210D02*
X15474D01*
X11674D02*
Y292810D01*
X46275Y375757D02*
X51630D01*
X46275Y382443D02*
X51630D01*
X40300Y367300D02*
Y374100D01*
X44300D01*
X40300Y367300D02*
X44300D01*
X53100D02*
Y374100D01*
X49100D02*
X53100D01*
X49100Y367300D02*
X53100D01*
X44444Y366100D02*
X51344D01*
Y365706D02*
Y366100D01*
X44444Y365706D02*
Y366100D01*
Y354100D02*
X51344D01*
Y354494D01*
X44444Y354100D02*
Y354494D01*
X55944Y363900D02*
X56444Y363400D01*
X55944Y363900D02*
X56444Y364400D01*
Y363400D02*
Y364400D01*
X61203Y358898D02*
Y360898D01*
X58003Y358898D02*
Y360898D01*
Y358898D02*
X61203D01*
Y363098D02*
Y365098D01*
X58003Y363098D02*
Y365098D01*
X61203D01*
X64011Y293698D02*
Y297698D01*
X70811Y293698D02*
Y297698D01*
X64011Y293698D02*
X70811D01*
X64011Y302498D02*
Y306498D01*
X70811Y302498D02*
Y306498D01*
X64011D02*
X70811D01*
X71828Y300699D02*
Y302699D01*
X75028Y300699D02*
Y302699D01*
X71828D02*
X75028D01*
X71828Y296499D02*
Y298499D01*
X75028Y296499D02*
Y298499D01*
X71828Y296499D02*
X75028D01*
X73105Y307999D02*
Y314199D01*
Y307999D02*
X76305D01*
X73105Y314199D02*
X76305D01*
Y307999D02*
Y314199D01*
X71558Y277537D02*
Y283537D01*
X79358Y277537D02*
Y283537D01*
X71558D02*
X79358D01*
X71558Y266737D02*
Y272737D01*
X79358Y266737D02*
Y272737D01*
X71558Y266737D02*
X79358D01*
X76058Y300698D02*
Y302698D01*
X79258Y300698D02*
Y302698D01*
X76058D02*
X79258D01*
X76058Y296498D02*
Y298498D01*
X79258Y296498D02*
Y298498D01*
X76058Y296498D02*
X79258D01*
X77308Y307999D02*
Y314199D01*
Y307999D02*
X80508D01*
X77308Y314199D02*
X80508D01*
Y307999D02*
Y314199D01*
X86859D02*
Y316199D01*
X83659Y314199D02*
Y316199D01*
Y314199D02*
X86859D01*
Y318399D02*
Y320399D01*
X83659Y318399D02*
Y320399D01*
X86859D01*
X98369Y305239D02*
Y306239D01*
X97869Y305739D02*
X98369Y306239D01*
X97869Y305739D02*
X98369Y305239D01*
X96012Y294262D02*
Y295044D01*
X81812Y294262D02*
Y295044D01*
Y294262D02*
X87213D01*
X96012Y307202D02*
Y309462D01*
X90611Y294262D02*
X96012D01*
X95124Y309462D02*
X96012D01*
X81812Y307202D02*
Y309462D01*
X82700D01*
X99977Y305624D02*
X106177D01*
X99977Y302424D02*
Y305624D01*
X106177Y302424D02*
Y305624D01*
X99977Y302424D02*
X106177D01*
X99977Y298314D02*
X106177D01*
Y301514D01*
X99977Y298314D02*
Y301514D01*
X106177D01*
X104177Y297454D02*
X106177D01*
X104177Y294254D02*
X106177D01*
Y297454D01*
X99977D02*
X101977D01*
X99977Y294254D02*
X101977D01*
X99977D02*
Y297454D01*
X7500Y398237D02*
X17100D01*
Y402437D01*
X7500Y398237D02*
Y402437D01*
X17100D01*
X106300Y264958D02*
Y290942D01*
X81100Y264958D02*
Y290942D01*
Y264958D02*
X106300D01*
X81100Y290942D02*
X106300D01*
X90806Y314199D02*
Y316199D01*
X87606Y314199D02*
Y316199D01*
Y314199D02*
X90806D01*
Y318399D02*
Y320399D01*
X87606Y318399D02*
Y320399D01*
X90806D01*
X92374Y324500D02*
X94374D01*
X92374Y321300D02*
X94374D01*
Y324500D01*
X88174D02*
X90174D01*
X88174Y321300D02*
X90174D01*
X88174D02*
Y324500D01*
X94743Y314199D02*
Y320399D01*
X91543D02*
X94743D01*
X91543Y314199D02*
X94743D01*
X91543D02*
Y320399D01*
X98127Y307200D02*
X104327D01*
Y310400D01*
X98127Y307200D02*
Y310400D01*
X104327D01*
X98127Y311329D02*
X104327D01*
Y314529D01*
X98127Y311329D02*
Y314529D01*
X104327D01*
X38503Y247281D02*
Y256881D01*
X34303D02*
X38503D01*
X34303Y247281D02*
X38503D01*
X34303D02*
Y256881D01*
X69900Y239372D02*
Y246172D01*
X65900Y239372D02*
X69900D01*
X65900Y246172D02*
X69900D01*
X57100Y239372D02*
Y246172D01*
Y239372D02*
X61100D01*
X57100Y246172D02*
X61100D01*
X69901Y247274D02*
Y254074D01*
X65901Y247274D02*
X69901D01*
X65901Y254074D02*
X69901D01*
X57101Y247274D02*
Y254074D01*
Y247274D02*
X61101D01*
X57101Y254074D02*
X61101D01*
X62400Y234916D02*
Y238116D01*
Y234916D02*
X64400D01*
X62400Y238116D02*
X64400D01*
X68600Y234916D02*
Y238116D01*
X66600Y234916D02*
X68600D01*
X66600Y238116D02*
X68600D01*
X81300Y259500D02*
X95600D01*
X81300Y233500D02*
Y259500D01*
X95600Y233500D02*
Y259500D01*
X81300Y233500D02*
X95600D01*
X590186Y97179D02*
Y148479D01*
X531086Y144279D02*
Y148779D01*
X533086D01*
X531086Y96879D02*
Y101379D01*
Y96879D02*
X533086D01*
X486825Y125209D02*
Y131409D01*
X483625D02*
X486825D01*
X483625Y125209D02*
X486825D01*
X483625D02*
Y131409D01*
X477430Y190360D02*
Y195860D01*
X473530Y190360D02*
X477430D01*
X464730Y198660D02*
X465230Y198160D01*
X464730Y197660D02*
X465230Y198160D01*
X464730Y197660D02*
Y198660D01*
X470030Y196660D02*
X472630D01*
X465230Y190360D02*
Y195860D01*
Y190360D02*
X469130D01*
X526100Y201111D02*
Y207311D01*
Y201111D02*
X529300D01*
X526100Y207311D02*
X529300D01*
Y201111D02*
Y207311D01*
X521700Y201111D02*
Y207311D01*
Y201111D02*
X524900D01*
X521700Y207311D02*
X524900D01*
Y201111D02*
Y207311D01*
X518119Y207363D02*
X520119D01*
X518119Y204163D02*
X520119D01*
Y207363D01*
X513919D02*
X515919D01*
X513919Y204163D02*
X515919D01*
X513919D02*
Y207363D01*
X513900Y196163D02*
X515900D01*
X513900Y199363D02*
X515900D01*
X513900Y196163D02*
Y199363D01*
X518100Y196163D02*
X520100D01*
X518100Y199363D02*
X520100D01*
Y196163D02*
Y199363D01*
X513899Y200174D02*
X515899D01*
X513899Y203374D02*
X515899D01*
X513899Y200174D02*
Y203374D01*
X518099Y200174D02*
X520099D01*
X518099Y203374D02*
X520099D01*
Y200174D02*
Y203374D01*
X506000Y216263D02*
X508600D01*
X507300Y214863D02*
Y217463D01*
X463741Y190360D02*
Y195860D01*
X459841Y190360D02*
X463741D01*
X451041Y198660D02*
X451541Y198160D01*
X451041Y197660D02*
X451541Y198160D01*
X451041Y197660D02*
Y198660D01*
X456341Y196660D02*
X458941D01*
X451541Y190360D02*
Y195860D01*
Y190360D02*
X455441D01*
X452301Y201222D02*
Y207422D01*
Y201222D02*
X455501D01*
X452301Y207422D02*
X455501D01*
Y201222D02*
Y207422D01*
X465990Y201222D02*
Y207422D01*
Y201222D02*
X469190D01*
X465990Y207422D02*
X469190D01*
Y201222D02*
Y207422D01*
X537462Y189960D02*
Y195460D01*
X533562Y189960D02*
X537462D01*
X524762Y198260D02*
X525262Y197760D01*
X524762Y197260D02*
X525262Y197760D01*
X524762Y197260D02*
Y198260D01*
X530062Y196260D02*
X532662D01*
X525262Y189960D02*
Y195460D01*
Y189960D02*
X529162D01*
X492323Y125209D02*
Y131409D01*
X489123D02*
X492323D01*
X489123Y125209D02*
X492323D01*
X489123D02*
Y131409D01*
X497857Y125209D02*
Y131409D01*
X494657D02*
X497857D01*
X494657Y125209D02*
X497857D01*
X494657D02*
Y131409D01*
X503374Y125209D02*
Y131409D01*
X500174D02*
X503374D01*
X500174Y125209D02*
X503374D01*
X500174D02*
Y131409D01*
X508879Y125209D02*
Y131409D01*
X505679D02*
X508879D01*
X505679Y125209D02*
X508879D01*
X505679D02*
Y131409D01*
X511169Y129409D02*
Y131409D01*
X514369Y129409D02*
Y131409D01*
X511169D02*
X514369D01*
X511169Y125209D02*
Y127209D01*
X514369Y125209D02*
Y127209D01*
X511169Y125209D02*
X514369D01*
X590186Y41215D02*
Y92515D01*
X531086Y88315D02*
Y92815D01*
X533086D01*
X531086Y40915D02*
Y45415D01*
Y40915D02*
X533086D01*
X172868Y305300D02*
X176068D01*
X172868Y303300D02*
Y305300D01*
X176068Y303300D02*
Y305300D01*
X172868Y299100D02*
X176068D01*
X172868D02*
Y301100D01*
X176068Y299100D02*
Y301100D01*
X192374Y305300D02*
X195574D01*
X192374Y303300D02*
Y305300D01*
X195574Y303300D02*
Y305300D01*
X192374Y299100D02*
X195574D01*
X192374D02*
Y301100D01*
X195574Y299100D02*
Y301100D01*
X464668Y166817D02*
Y174717D01*
X472868Y166817D02*
Y174717D01*
X469320Y184363D02*
Y186363D01*
X472520Y184363D02*
Y186363D01*
X469320D02*
X472520D01*
X469320Y180163D02*
Y182163D01*
X472520Y180163D02*
Y182163D01*
X469320Y180163D02*
X472520D01*
X475456Y205263D02*
Y214863D01*
X471256D02*
X475456D01*
X471256Y205263D02*
X475456D01*
X471256D02*
Y214863D01*
X481200Y205263D02*
Y214863D01*
X477000D02*
X481200D01*
X477000Y205263D02*
X481200D01*
X477000D02*
Y214863D01*
X468283Y180163D02*
Y182163D01*
X465083Y180163D02*
Y182163D01*
Y180163D02*
X468283D01*
Y184363D02*
Y186363D01*
X465083Y184363D02*
Y186363D01*
X468283D01*
X469400Y155563D02*
Y157563D01*
X466200Y155563D02*
Y157563D01*
Y155563D02*
X469400D01*
Y159763D02*
Y161763D01*
X466200Y159763D02*
Y161763D01*
X469400D01*
X515879Y223515D02*
Y224115D01*
X506679Y223515D02*
X515879D01*
Y228715D02*
Y229315D01*
X506679D02*
X515879D01*
X499809Y215413D02*
Y217413D01*
X505209Y215413D02*
Y217413D01*
X366300Y4350D02*
Y10550D01*
Y4350D02*
X369500D01*
X366300Y10550D02*
X369500D01*
Y4350D02*
Y10550D01*
X560364Y351186D02*
X562364D01*
X560364Y347986D02*
X562364D01*
Y351186D01*
X556164D02*
X558164D01*
X556164Y347986D02*
X558164D01*
X556164D02*
Y351186D01*
X553144Y356335D02*
X556244D01*
X553144Y352135D02*
X556244D01*
X553144D02*
Y356335D01*
X559844D02*
X562944D01*
X559844Y352135D02*
X562944D01*
Y356335D01*
X556164Y343858D02*
X562364D01*
Y347058D01*
X556164Y343858D02*
Y347058D01*
X562364D01*
X150036Y267925D02*
X153236D01*
Y269925D01*
X150036Y267925D02*
Y269925D01*
Y274125D02*
X153236D01*
Y272125D02*
Y274125D01*
X150036Y272125D02*
Y274125D01*
X165347Y289220D02*
X171547D01*
Y292420D01*
X165347Y289220D02*
Y292420D01*
X171547D01*
X144648Y274321D02*
X148848D01*
Y271221D02*
Y274321D01*
X144648Y271221D02*
Y274321D01*
Y264521D02*
X148848D01*
Y267621D01*
X144648Y264521D02*
Y267621D01*
X151756Y289169D02*
X155956D01*
X151756D02*
Y292269D01*
X155956Y289169D02*
Y292269D01*
X151756Y298969D02*
X155956D01*
X151756Y295869D02*
Y298969D01*
X155956Y295869D02*
Y298969D01*
X156600Y295420D02*
X159800D01*
X156600Y293420D02*
Y295420D01*
X159800Y293420D02*
Y295420D01*
X156600Y289220D02*
X159800D01*
X156600D02*
Y291220D01*
X159800Y289220D02*
Y291220D01*
X164600Y267925D02*
Y274125D01*
X161400D02*
X164600D01*
X161400Y267925D02*
X164600D01*
X161400D02*
Y274125D01*
X168659Y267925D02*
Y274125D01*
X165459D02*
X168659D01*
X165459Y267925D02*
X168659D01*
X165459D02*
Y274125D01*
X143005Y295420D02*
X146205D01*
X143005Y293420D02*
Y295420D01*
X146205Y293420D02*
Y295420D01*
X143005Y289220D02*
X146205D01*
X143005D02*
Y291220D01*
X146205Y289220D02*
Y291220D01*
X147932Y295420D02*
X151132D01*
X147932Y293420D02*
Y295420D01*
X151132Y293420D02*
Y295420D01*
X147932Y289220D02*
X151132D01*
X147932D02*
Y291220D01*
X151132Y289220D02*
Y291220D01*
X138200Y289169D02*
X142400D01*
X138200D02*
Y292269D01*
X142400Y289169D02*
Y292269D01*
X138200Y298969D02*
X142400D01*
X138200Y295869D02*
Y298969D01*
X142400Y295869D02*
Y298969D01*
X139947Y326363D02*
X143147D01*
X139947Y324363D02*
Y326363D01*
X143147Y324363D02*
Y326363D01*
X139947Y320163D02*
X143147D01*
X139947D02*
Y322163D01*
X143147Y320163D02*
Y322163D01*
X135880Y326363D02*
X139080D01*
X135880Y324363D02*
Y326363D01*
X139080Y324363D02*
Y326363D01*
X135880Y320163D02*
X139080D01*
X135880D02*
Y322163D01*
X139080Y320163D02*
Y322163D01*
X500059Y201111D02*
Y207311D01*
X496859D02*
X500059D01*
X496859Y201111D02*
X500059D01*
X496859D02*
Y207311D01*
X512779Y189960D02*
Y195460D01*
X508879Y189960D02*
X512779D01*
X500079Y198260D02*
X500579Y197760D01*
X500079Y197260D02*
X500579Y197760D01*
X500079Y197260D02*
Y198260D01*
X505379Y196260D02*
X507979D01*
X500579Y189960D02*
Y195460D01*
Y189960D02*
X504479D01*
X319606Y4350D02*
Y10550D01*
X316406D02*
X319606D01*
X316406Y4350D02*
X319606D01*
X316406D02*
Y10550D01*
X329500Y4350D02*
Y10550D01*
X326300D02*
X329500D01*
X326300Y4350D02*
X329500D01*
X326300D02*
Y10550D01*
X309500Y4350D02*
Y10550D01*
X306300D02*
X309500D01*
X306300Y4350D02*
X309500D01*
X306300D02*
Y10550D01*
X299500Y4350D02*
Y10550D01*
X296300D02*
X299500D01*
X296300Y4350D02*
X299500D01*
X296300D02*
Y10550D01*
X196275Y299100D02*
Y305300D01*
Y299100D02*
X199475D01*
X196275Y305300D02*
X199475D01*
Y299100D02*
Y305300D01*
X184571Y299100D02*
Y305300D01*
Y299100D02*
X187771D01*
X184571Y305300D02*
X187771D01*
Y299100D02*
Y305300D01*
X176769Y299100D02*
Y305300D01*
Y299100D02*
X179969D01*
X176769Y305300D02*
X179969D01*
Y299100D02*
Y305300D01*
X511164Y254682D02*
Y260882D01*
Y254682D02*
X514364D01*
X511164Y260882D02*
X514364D01*
Y254682D02*
Y260882D01*
X504713Y262750D02*
X506287D01*
X504713Y256450D02*
X506287D01*
X497206Y256569D02*
Y262769D01*
Y256569D02*
X500406D01*
X497206Y262769D02*
X500406D01*
Y256569D02*
Y262769D01*
X509532Y58600D02*
Y64800D01*
X506332D02*
X509532D01*
X506332Y58600D02*
X509532D01*
X506332D02*
Y64800D01*
X502100Y62800D02*
Y64800D01*
X505300Y62800D02*
Y64800D01*
X502100D02*
X505300D01*
X502100Y58600D02*
Y60600D01*
X505300Y58600D02*
Y60600D01*
X502100Y58600D02*
X505300D01*
X296300Y29400D02*
Y35600D01*
Y29400D02*
X299500D01*
X296300Y35600D02*
X299500D01*
Y29400D02*
Y35600D01*
X336300Y29400D02*
Y35600D01*
Y29400D02*
X339500D01*
X336300Y35600D02*
X339500D01*
Y29400D02*
Y35600D01*
X316300Y29400D02*
Y35600D01*
Y29400D02*
X319500D01*
X316300Y35600D02*
X319500D01*
Y29400D02*
Y35600D01*
X326339Y29400D02*
Y35600D01*
Y29400D02*
X329539D01*
X326339Y35600D02*
X329539D01*
Y29400D02*
Y35600D01*
X339600Y4350D02*
Y10550D01*
X336400D02*
X339600D01*
X336400Y4350D02*
X339600D01*
X336400D02*
Y10550D01*
X359500Y4350D02*
Y10550D01*
X356300D02*
X359500D01*
X356300Y4350D02*
X359500D01*
X356300D02*
Y10550D01*
X349500Y4350D02*
Y10550D01*
X346300D02*
X349500D01*
X346300Y4350D02*
X349500D01*
X346300D02*
Y10550D01*
X356300Y29400D02*
Y35600D01*
Y29400D02*
X359500D01*
X356300Y35600D02*
X359500D01*
Y29400D02*
Y35600D01*
X346400Y29400D02*
Y35600D01*
Y29400D02*
X349600D01*
X346400Y35600D02*
X349600D01*
Y29400D02*
Y35600D01*
X366300Y29400D02*
Y35600D01*
Y29400D02*
X369500D01*
X366300Y35600D02*
X369500D01*
Y29400D02*
Y35600D01*
X203377Y299100D02*
Y301100D01*
X200177Y299100D02*
Y301100D01*
Y299100D02*
X203377D01*
Y303300D02*
Y305300D01*
X200177Y303300D02*
Y305300D01*
X203377D01*
X520874Y256419D02*
X524774D01*
X520874Y266619D02*
X524774D01*
X521074Y230889D02*
X524974D01*
X521074Y241089D02*
X524974D01*
X323339Y268700D02*
Y274900D01*
Y268700D02*
X326539D01*
X323339Y274900D02*
X326539D01*
Y268700D02*
Y274900D01*
X327276Y268700D02*
Y274900D01*
Y268700D02*
X330476D01*
X327276Y274900D02*
X330476D01*
Y268700D02*
Y274900D01*
D15*
X33000Y228223D02*
Y257423D01*
X30100Y228223D02*
X33000D01*
X30100Y257423D02*
X33000D01*
X14800D02*
X17700D01*
X14800Y228223D02*
X17700D01*
X14800D02*
Y257423D01*
X16400Y259458D02*
Y261372D01*
X15482Y260423D02*
X17366D01*
X48774Y276610D02*
Y277610D01*
X48274Y277110D02*
X48774Y277610D01*
X48274Y277110D02*
X48774Y276610D01*
D16*
X505550Y32083D02*
Y38483D01*
X490362Y350913D02*
X496762D01*
X497125Y323781D02*
Y330181D01*
X493405Y325531D02*
Y331931D01*
X489662Y327381D02*
Y333781D01*
X433354Y299394D02*
Y305794D01*
X437741Y299394D02*
Y305794D01*
X442251Y299394D02*
Y305794D01*
X441706Y299394D02*
Y305794D01*
X422924Y323681D02*
Y330081D01*
X419205Y325531D02*
Y331931D01*
X415462Y327381D02*
Y333781D01*
X416162Y350913D02*
X422562D01*
X443601Y312249D02*
Y318649D01*
X521761Y312249D02*
Y318649D01*
X190372Y269342D02*
Y275742D01*
X206800Y269342D02*
Y275742D01*
X218251Y269342D02*
Y275742D01*
X214195Y269342D02*
Y275742D01*
X185800Y269342D02*
Y275742D01*
X206082Y269342D02*
Y275742D01*
X194569Y269342D02*
Y275742D01*
X222308Y269342D02*
Y275742D01*
X97850Y363515D02*
X104250D01*
X93480Y375632D02*
Y382032D01*
X100775Y375632D02*
Y382032D01*
X93043Y375632D02*
Y382032D01*
X78608Y375632D02*
Y382032D01*
X105301Y353100D02*
X111701D01*
X74405Y375632D02*
Y382032D01*
X188372Y299000D02*
Y305400D01*
X124389Y408898D02*
Y415298D01*
X146100Y408898D02*
Y415298D01*
X321572Y87983D02*
Y94383D01*
X372400Y268600D02*
Y275000D01*
X425585Y17243D02*
Y23643D01*
X414897Y43192D02*
Y49592D01*
X306200Y29300D02*
Y35700D01*
X40600Y150456D02*
X47000D01*
X40600Y154800D02*
X47000D01*
X52833Y118497D02*
Y124897D01*
X56681Y118497D02*
Y124897D01*
X58695Y131386D02*
Y137786D01*
X60660Y125179D02*
X67060D01*
X454923Y312249D02*
Y318649D01*
X451149Y312249D02*
Y318649D01*
X447375Y312249D02*
Y318649D01*
X436052Y312239D02*
Y318639D01*
X439826Y312239D02*
Y318639D01*
X518051Y312249D02*
Y318649D01*
X510469Y312249D02*
Y318649D01*
X514300Y312249D02*
Y318649D01*
X207378Y299000D02*
Y305400D01*
X211580Y299000D02*
Y305400D01*
X206117Y319813D02*
Y326213D01*
X210049Y319813D02*
Y326213D01*
X380000Y310800D02*
Y317200D01*
X424349Y299394D02*
Y305794D01*
X423384Y268900D02*
Y275300D01*
X434906Y268900D02*
Y275300D01*
X428913Y268900D02*
Y275300D01*
X333300Y87983D02*
Y94383D01*
X390000Y43192D02*
Y49592D01*
X394752Y43192D02*
Y49592D01*
X405763Y17217D02*
Y23617D01*
X430100Y17243D02*
Y23643D01*
X165247Y293520D02*
X171647D01*
X414917Y299394D02*
Y305794D01*
X563331Y374172D02*
X569731D01*
X410983Y299394D02*
Y305794D01*
X291225Y346560D02*
Y352960D01*
X295116Y346560D02*
Y352960D01*
X24408Y186765D02*
X30808D01*
X53351Y190953D02*
Y197353D01*
X49951Y201481D02*
X56351D01*
X399328Y356430D02*
Y362830D01*
X404609Y411003D02*
Y417403D01*
X450009Y411003D02*
Y417403D01*
X478880Y369287D02*
Y375687D01*
X524200Y410967D02*
Y417367D01*
X478800Y410967D02*
Y417367D01*
X551591Y369287D02*
Y375687D01*
X293101Y422133D02*
Y428533D01*
X296955Y422133D02*
Y428533D01*
X331100Y359530D02*
Y365930D01*
X160865Y400512D02*
Y406912D01*
X168866Y299000D02*
Y305400D01*
X183663Y400912D02*
Y407312D01*
X179019Y411877D02*
Y418277D01*
X203817Y383734D02*
Y390134D01*
X150439Y400930D02*
Y407330D01*
X407250Y299394D02*
Y305794D01*
X401236Y17217D02*
Y23617D01*
X316700Y268600D02*
Y275000D01*
X320900Y268600D02*
Y275000D01*
X504600Y201011D02*
Y207411D01*
X498866Y240251D02*
Y246651D01*
X521200Y274489D02*
X527600D01*
X153386Y327650D02*
Y334050D01*
X157575Y327650D02*
Y334050D01*
X7697Y268800D02*
Y275200D01*
X15097Y268800D02*
Y275200D01*
X54300Y268800D02*
Y275200D01*
X76405Y307899D02*
Y314299D01*
X80608Y307899D02*
Y314299D01*
X99877Y302324D02*
X106277D01*
X99877Y301614D02*
X106277D01*
X94843Y314099D02*
Y320499D01*
X98027Y307100D02*
X104427D01*
X98027Y314629D02*
X104427D01*
X483525Y125109D02*
Y131509D01*
X529400Y201011D02*
Y207411D01*
X525000Y201011D02*
Y207411D01*
X455601Y201122D02*
Y207522D01*
X469290Y201122D02*
Y207522D01*
X492423Y125109D02*
Y131509D01*
X497957Y125109D02*
Y131509D01*
X503474Y125109D02*
Y131509D01*
X508979Y125109D02*
Y131509D01*
X369600Y4250D02*
Y10650D01*
X556064Y347158D02*
X562464D01*
X165247Y289120D02*
X171647D01*
X164700Y267825D02*
Y274225D01*
X168759Y267825D02*
Y274225D01*
X496759Y201011D02*
Y207411D01*
X319706Y4250D02*
Y10650D01*
X329600Y4250D02*
Y10650D01*
X309600Y4250D02*
Y10650D01*
X299600Y4250D02*
Y10650D01*
X196175Y299000D02*
Y305400D01*
X184471Y299000D02*
Y305400D01*
X176669Y299000D02*
Y305400D01*
X514464Y254582D02*
Y260982D01*
X500506Y256469D02*
Y262869D01*
X509632Y58500D02*
Y64900D01*
X296200Y29300D02*
Y35700D01*
X336200Y29300D02*
Y35700D01*
X316200Y29300D02*
Y35700D01*
X326239Y29300D02*
Y35700D01*
X339700Y4250D02*
Y10650D01*
X359600Y4250D02*
Y10650D01*
X349600Y4250D02*
Y10650D01*
X356200Y29300D02*
Y35700D01*
X346300Y29300D02*
Y35700D01*
X366200Y29300D02*
Y35700D01*
X323239Y268600D02*
Y275000D01*
X327176Y268600D02*
Y275000D01*
D18*
X473217Y164717D02*
G03*
X473217Y164717I-150J0D01*
G01*
X358947Y81587D02*
X359547Y82187D01*
X360147Y81587D01*
X358947D02*
X360147D01*
X374098D02*
X375298D01*
X374698Y82187D02*
X375298Y81587D01*
X374098D02*
X374698Y82187D01*
X230528Y318863D02*
X231028Y319363D01*
X231528Y318863D01*
X230528D02*
X231528D01*
X225058Y276763D02*
X226058D01*
X225058D02*
X225558Y276263D01*
X226058Y276763D01*
X75900Y233300D02*
X76400Y233800D01*
X76900Y233300D01*
X75900D02*
X76900D01*
X518774Y256919D02*
Y258119D01*
Y256919D02*
X519374Y257519D01*
X518774Y258119D02*
X519374Y257519D01*
X518974Y231389D02*
Y232589D01*
Y231389D02*
X519574Y231989D01*
X518974Y232589D02*
X519574Y231989D01*
D21*
X39300Y242615D02*
Y258215D01*
X52100Y242615D02*
Y258215D01*
X511585Y210063D02*
X527185D01*
X511585Y222863D02*
X527185D01*
D31*
X427160Y382789D02*
D03*
X431008Y410525D02*
D03*
X437160Y382789D02*
D03*
X447160D02*
D03*
X472801Y410548D02*
D03*
X457160Y382789D02*
D03*
X511153Y382788D02*
D03*
X521153Y382788D02*
D03*
X501153Y382788D02*
D03*
X505002Y410415D02*
D03*
X531153Y382788D02*
D03*
X547502Y410515D02*
D03*
D193*
X574881Y353245D02*
Y352246D01*
Y352746D01*
X571882D01*
X572382Y353245D01*
D688*
X26736Y343708D02*
X26740Y343566D01*
Y360496D01*
X25950D02*
X26740D01*
X6260D02*
X7050D01*
X6260Y343566D02*
Y360496D01*
Y343566D02*
X6264Y343511D01*
D689*
X500694Y355453D02*
D03*
X490625D02*
D03*
X510642Y355452D02*
D03*
X531902Y355453D02*
D03*
X416533Y355452D02*
D03*
X426550D02*
D03*
X436835Y355451D02*
D03*
X457883Y355453D02*
D03*
D690*
X503028Y223841D02*
D03*
Y228991D02*
D03*
D691*
X500756Y226416D02*
D03*
M02*
